<svg width="362" height="216" viewBox="0 0 362 216" fill="none" xmlns="http://www.w3.org/2000/svg">
<g clip-path="url(#clip0)">
<rect width="362" height="216" fill="white"/>
<g clip-path="url(#clip1)">
<path d="M361.99 -0.000854492H-0.310364V217H361.99V-0.000854492Z" fill="#E1DBFC"/>
<path d="M96.3318 153.952C98.1554 146.134 97.439 137.933 94.2881 130.557C91.1373 123.181 85.7187 117.021 78.8315 112.986C77.4773 112.081 75.9232 111.527 74.3062 111.371C71.1125 111.27 68.2992 114.045 67.5384 117.154C66.7775 120.262 67.5384 123.593 68.6496 126.591C69.7579 129.442 71.1962 132.153 72.9346 134.665C70.5949 134.006 68.1977 133.577 65.7763 133.383C64.1667 133.176 62.5312 133.366 61.0108 133.938C58.0974 135.26 56.8259 138.984 57.4567 142.133C58.0874 145.282 60.2099 147.936 62.5726 150.116C72.1137 158.957 85.5292 161.824 98.3041 164.034L99.5655 163.237C98.8957 160.012 97.8085 156.89 96.3318 153.952Z" fill="#399F8F"/>
<path d="M80.8038 146.947C80.7743 146.901 80.7345 146.862 80.6876 146.834C80.6406 146.806 80.5879 146.79 80.5334 146.786C76.6525 144.443 72.6412 142.327 68.5195 140.448C66.0366 139.324 63.517 138.284 60.9607 137.329C60.4702 137.147 60.2499 137.935 60.7405 138.116C67.2283 140.548 73.4899 143.554 79.4522 147.099C75.066 148.432 70.872 150.338 66.9777 152.771C66.5372 153.053 66.9777 153.78 67.3782 153.477C71.429 150.939 75.809 148.98 80.3933 147.654C84.7401 150.282 88.9137 153.192 92.8878 156.364C93.2882 156.687 93.8889 156.121 93.4584 155.798C89.4357 152.574 85.2085 149.617 80.8038 146.947Z" fill="#2A2D7E"/>
<path d="M83.2666 129.194C83.2873 129.145 83.2979 129.092 83.2979 129.038C83.2979 128.984 83.2873 128.931 83.2666 128.882C82.259 124.298 81.8218 119.606 81.9651 114.913C81.9651 114.806 81.9229 114.704 81.8478 114.628C81.7727 114.552 81.6708 114.51 81.5646 114.51C81.4584 114.51 81.3566 114.552 81.2815 114.628C81.2064 114.704 81.1642 114.806 81.1642 114.913C81.0313 119.264 81.3975 123.616 82.2554 127.882C81.034 126.207 79.7592 124.582 78.431 123.008C78.1407 122.665 77.8303 122.331 77.54 121.998C77.5284 121.931 77.4977 121.868 77.4514 121.818C77.4052 121.768 77.3456 121.732 77.2797 121.716C74.9077 119.002 72.3663 116.443 69.6708 114.056C69.2804 113.712 68.6697 114.278 69.1002 114.631C71.6286 116.842 74.0255 119.201 76.2785 121.696C73.4811 121.837 70.719 122.387 68.079 123.331C67.5884 123.512 67.7887 124.34 68.2692 124.118C71.0785 123.109 74.0282 122.554 77.0093 122.473C84.2019 130.702 89.7589 140.248 93.3783 150.591C94.7383 154.476 95.8157 158.457 96.6021 162.5C96.7022 163.005 97.4831 162.803 97.383 162.298C95.0347 150.387 90.2249 139.108 83.2666 129.194Z" fill="#2A2D7E"/>
<path d="M280.065 153.952C278.245 146.133 278.965 137.932 282.117 130.557C285.27 123.182 290.688 117.022 297.575 112.986C298.925 112.08 300.476 111.525 302.09 111.371C305.284 111.27 308.097 114.045 308.868 117.154C309.639 120.262 308.918 123.593 307.757 126.591C306.641 129.439 305.203 132.148 303.472 134.665C305.812 134.006 308.209 133.576 310.63 133.383C312.237 133.173 313.87 133.364 315.386 133.938C318.299 135.26 319.581 138.984 318.95 142.133C318.319 145.282 316.187 147.936 313.834 150.116C304.293 158.957 290.867 161.824 278.103 164.034L276.841 163.237C277.508 160.013 278.591 156.891 280.065 153.952Z" fill="#399F8F"/>
<path d="M295.603 146.947C295.631 146.9 295.671 146.86 295.718 146.832C295.765 146.804 295.818 146.788 295.873 146.786C299.752 144.439 303.763 142.322 307.887 140.448C310.37 139.324 312.89 138.284 315.446 137.329C315.937 137.147 316.147 137.935 315.666 138.116C309.178 140.546 302.916 143.552 296.955 147.099C301.34 148.433 305.534 150.34 309.429 152.771C309.86 153.053 309.429 153.78 309.029 153.477C304.978 150.939 300.598 148.98 296.013 147.654C291.665 150.28 287.491 153.189 283.519 156.364C283.118 156.687 282.518 156.121 282.938 155.798C286.964 152.574 291.195 149.617 295.603 146.947Z" fill="#2A2D7E"/>
<path d="M293.14 129.194C293.111 129.148 293.092 129.097 293.083 129.043C293.075 128.989 293.077 128.934 293.09 128.882C294.088 124.29 294.508 119.59 294.342 114.893C294.357 114.796 294.406 114.707 294.48 114.643C294.555 114.579 294.649 114.544 294.747 114.544C294.845 114.544 294.939 114.579 295.014 114.643C295.088 114.707 295.137 114.796 295.152 114.893C295.275 119.244 294.909 123.595 294.061 127.862C295.283 126.187 296.557 124.562 297.886 122.987C298.176 122.644 298.476 122.311 298.777 121.978C298.789 121.912 298.818 121.851 298.862 121.801C298.907 121.752 298.963 121.715 299.027 121.696C301.416 118.981 303.978 116.425 306.696 114.045C307.086 113.702 307.697 114.267 307.267 114.621C304.738 116.831 302.341 119.19 300.088 121.686C302.899 121.824 305.675 122.374 308.328 123.321C308.818 123.502 308.618 124.33 308.128 124.108C305.322 123.098 302.375 122.543 299.397 122.463C289.44 133.807 282.676 147.631 279.805 162.5C279.705 163.005 278.924 162.803 279.024 162.298C281.368 150.386 286.178 139.106 293.14 129.194Z" fill="#2A2D7E"/>
<path d="M79.2119 102.015C89.4079 102.015 97.6733 93.6828 97.6733 83.4043C97.6733 73.1259 89.4079 64.7936 79.2119 64.7936C69.016 64.7936 60.7505 73.1259 60.7505 83.4043C60.7505 93.6828 69.016 102.015 79.2119 102.015Z" fill="#B59DFF"/>
<path d="M70.0813 91.9124C69.992 91.912 69.904 91.8909 69.8241 91.8506C69.7443 91.8104 69.6747 91.7521 69.6208 91.6803C69.5331 91.558 69.4966 91.406 69.5191 91.2568C69.5415 91.1077 69.6212 90.9734 69.7409 90.883L78.6513 84.2824V71.5355C78.6405 71.4542 78.6471 71.3716 78.6706 71.2931C78.6941 71.2147 78.734 71.1422 78.7876 71.0805C78.8411 71.0188 78.9071 70.9694 78.9812 70.9355C79.0552 70.9017 79.1356 70.8842 79.2169 70.8842C79.2982 70.8842 79.3786 70.9017 79.4526 70.9355C79.5267 70.9694 79.5927 71.0188 79.6463 71.0805C79.6998 71.1422 79.7397 71.2147 79.7632 71.2931C79.7867 71.3716 79.7933 71.4542 79.7826 71.5355V84.8577L70.4117 91.8519C70.3101 91.905 70.195 91.9261 70.0813 91.9124Z" fill="#2A2D7E"/>
<path d="M92.6976 49.5941H282.488C284.346 49.5941 286.129 50.3384 287.443 51.6634C288.758 52.9883 289.496 54.7852 289.496 56.6589V163.994H85.7094V56.6387C85.7147 54.772 86.4527 52.9833 87.7621 51.6633C89.0714 50.3434 90.8458 49.5994 92.6976 49.5941Z" fill="#434660"/>
<path d="M98.6144 63.4816H282.658V156.444H94.3695V67.7507C94.3722 66.6176 94.8205 65.5317 95.6163 64.7314C96.4121 63.931 97.4903 63.4816 98.6144 63.4816Z" fill="#FCFCFC"/>
<path d="M283.239 59.7271H94.3695V70.1124H283.239V59.7271Z" fill="#6633FF"/>
<path d="M102.759 67.0442C103.909 67.0442 104.842 66.1043 104.842 64.945C104.842 63.7856 103.909 62.8457 102.759 62.8457C101.609 62.8457 100.677 63.7856 100.677 64.945C100.677 66.1043 101.609 67.0442 102.759 67.0442Z" fill="#F72828"/>
<path d="M111.079 67.0442C112.229 67.0442 113.161 66.1043 113.161 64.945C113.161 63.7856 112.229 62.8457 111.079 62.8457C109.929 62.8457 108.996 63.7856 108.996 64.945C108.996 66.1043 109.929 67.0442 111.079 67.0442Z" fill="#FF7E00"/>
<path d="M119.389 67.0442C120.539 67.0442 121.471 66.1043 121.471 64.945C121.471 63.7856 120.539 62.8457 119.389 62.8457C118.238 62.8457 117.306 63.7856 117.306 64.945C117.306 66.1043 118.238 67.0442 119.389 67.0442Z" fill="#33CCCC"/>
<path d="M289.486 163.994H85.7094V175.661H289.486V163.994Z" fill="#FCFCFC"/>
<path d="M183.533 80.0031H106.293C106.227 80.0031 106.173 80.0573 106.173 80.1242V86.8156C106.173 86.8825 106.227 86.9367 106.293 86.9367H183.533C183.599 86.9367 183.653 86.8825 183.653 86.8156V80.1242C183.653 80.0573 183.599 80.0031 183.533 80.0031Z" fill="#E8EAF3"/>
<path d="M263.736 97.1505H106.413C106.273 97.1505 106.173 97.1505 106.173 97.2716V103.963C106.173 104.024 106.273 104.084 106.413 104.084H263.736C263.876 104.084 263.976 104.024 263.976 103.963V97.2716C263.976 97.2009 263.876 97.1505 263.736 97.1505Z" fill="#E8EAF3"/>
<path d="M263.736 113.914H106.413C106.273 113.914 106.173 113.914 106.173 114.035V120.717C106.173 120.787 106.273 120.838 106.413 120.838H263.736C263.876 120.838 263.976 120.838 263.976 120.717V114.056C263.976 113.965 263.876 113.914 263.736 113.914Z" fill="#E8EAF3"/>
<path d="M263.736 130.204H106.413C106.273 130.204 106.173 130.254 106.173 130.325V137.016C106.173 137.077 106.273 137.137 106.413 137.137H263.736C263.876 137.137 263.976 137.077 263.976 137.016V130.325C263.976 130.295 263.876 130.204 263.736 130.204Z" fill="#E8EAF3"/>
<path d="M254.716 89.4094H127.778V217H254.716V89.4094Z" fill="#6633FF"/>
<path d="M244.113 97.1505H138.641V217H244.113V97.1505Z" fill="#FCFCFC"/>
<path d="M127.598 167.708L82.3856 216.99L127.598 217.353V167.708Z" fill="#FFB979"/>
<path d="M171.449 85.3219H211.045C212.131 85.3219 213.206 85.5375 214.21 85.9565C215.213 86.3754 216.124 86.9895 216.892 87.7636C217.66 88.5377 218.269 89.4567 218.685 90.4681C219.101 91.4796 219.314 92.5636 219.314 93.6584V99.29H163.189V93.6584C163.189 91.4492 164.059 89.3303 165.608 87.7672C167.157 86.2041 169.257 85.3246 171.449 85.3219Z" fill="#434660"/>
<path d="M192.063 72.6759C190.381 72.6759 188.738 73.1787 187.34 74.1207C185.942 75.0627 184.852 76.4015 184.209 77.9678C183.566 79.5341 183.398 81.2575 183.727 82.9199C184.056 84.5823 184.866 86.1091 186.056 87.307C187.246 88.5049 188.761 89.3202 190.411 89.6497C192.06 89.9792 193.77 89.8081 195.323 89.158C196.876 88.5079 198.202 87.4081 199.135 85.9976C200.068 84.5872 200.565 82.9296 200.563 81.2344C200.563 80.1097 200.343 78.9959 199.916 77.9569C199.488 76.9179 198.862 75.9739 198.073 75.1791C197.283 74.3842 196.346 73.754 195.315 73.3245C194.284 72.895 193.179 72.6746 192.063 72.6759ZM192.063 85.1403C191.297 85.1403 190.547 84.9112 189.91 84.482C189.273 84.0528 188.777 83.4428 188.483 82.7291C188.19 82.0154 188.113 81.2301 188.263 80.4724C188.412 79.7148 188.781 79.0188 189.323 78.4726C189.865 77.9263 190.555 77.5544 191.307 77.4036C192.059 77.2529 192.838 77.3303 193.546 77.6259C194.254 77.9215 194.859 78.4221 195.284 79.0645C195.71 79.7068 195.937 80.4619 195.937 81.2344C195.927 82.2633 195.514 83.2464 194.788 83.9702C194.063 84.694 193.084 85.0999 192.063 85.0999V85.1403Z" fill="#434660"/>
<path d="M155.18 131.758C153.964 131.758 152.776 131.395 151.765 130.714C150.754 130.033 149.966 129.065 149.501 127.933C149.036 126.8 148.914 125.554 149.151 124.352C149.388 123.15 149.974 122.046 150.833 121.179C151.693 120.313 152.788 119.722 153.981 119.483C155.173 119.244 156.409 119.367 157.532 119.836C158.656 120.305 159.616 121.099 160.291 122.118C160.967 123.137 161.327 124.335 161.327 125.561C161.325 127.204 160.676 128.778 159.524 129.94C158.372 131.102 156.81 131.755 155.18 131.758ZM155.18 120.303C154.148 120.303 153.14 120.611 152.282 121.189C151.424 121.767 150.756 122.588 150.361 123.549C149.966 124.51 149.863 125.567 150.064 126.587C150.265 127.607 150.762 128.544 151.492 129.279C152.221 130.015 153.151 130.515 154.162 130.718C155.174 130.921 156.223 130.817 157.176 130.419C158.129 130.021 158.944 129.347 159.517 128.482C160.09 127.618 160.396 126.601 160.396 125.561C160.396 124.871 160.261 124.187 159.999 123.549C159.737 122.911 159.353 122.331 158.868 121.843C158.384 121.355 157.809 120.967 157.176 120.703C156.543 120.439 155.865 120.303 155.18 120.303Z" fill="#6633FF"/>
<path d="M154.699 128.357L152.697 125.329C152.631 125.225 152.608 125.098 152.635 124.977C152.661 124.856 152.734 124.75 152.837 124.683C152.941 124.616 153.067 124.593 153.187 124.62C153.307 124.646 153.412 124.72 153.478 124.824L154.72 126.742L157.433 123.28C157.467 123.223 157.514 123.173 157.569 123.135C157.624 123.097 157.686 123.071 157.752 123.059C157.818 123.047 157.885 123.049 157.95 123.066C158.015 123.082 158.076 123.112 158.128 123.154C158.18 123.196 158.223 123.249 158.254 123.309C158.284 123.369 158.302 123.435 158.305 123.502C158.309 123.569 158.298 123.636 158.273 123.699C158.249 123.762 158.211 123.819 158.164 123.866L154.699 128.357Z" fill="#6633FF"/>
<path d="M173.852 120.828H225.572" stroke="#AFAFAF" stroke-width="3" stroke-miterlimit="10" stroke-linecap="round"/>
<path d="M148.713 109.968H219.314" stroke="#777676" stroke-width="3" stroke-miterlimit="10" stroke-linecap="round"/>
<path d="M173.852 129.739H208.081" stroke="#AFAFAF" stroke-width="3" stroke-miterlimit="10" stroke-linecap="round"/>
<path d="M155.18 155.92C153.964 155.92 152.775 155.556 151.764 154.875C150.753 154.193 149.965 153.225 149.5 152.092C149.035 150.959 148.914 149.712 149.152 148.51C149.39 147.308 149.976 146.204 150.837 145.337C151.698 144.471 152.794 143.882 153.987 143.644C155.18 143.406 156.416 143.53 157.539 144C158.662 144.471 159.622 145.267 160.296 146.287C160.97 147.308 161.329 148.507 161.327 149.733C161.322 151.374 160.672 152.946 159.52 154.105C158.368 155.265 156.808 155.917 155.18 155.92ZM155.18 144.475C154.148 144.475 153.14 144.783 152.282 145.361C151.424 145.939 150.756 146.76 150.361 147.721C149.966 148.681 149.863 149.739 150.064 150.759C150.265 151.779 150.762 152.716 151.492 153.451C152.221 154.186 153.151 154.687 154.162 154.89C155.174 155.093 156.223 154.989 157.176 154.591C158.129 154.193 158.944 153.519 159.517 152.654C160.09 151.789 160.396 150.773 160.396 149.733C160.397 149.042 160.263 148.358 160.002 147.719C159.74 147.08 159.356 146.5 158.871 146.012C158.387 145.523 157.811 145.136 157.178 144.872C156.544 144.608 155.865 144.473 155.18 144.475Z" fill="#6633FF"/>
<path d="M154.7 152.528L152.697 149.501C152.664 149.449 152.641 149.391 152.63 149.331C152.619 149.27 152.62 149.208 152.633 149.148C152.646 149.088 152.671 149.031 152.706 148.981C152.741 148.93 152.786 148.888 152.837 148.855C152.94 148.789 153.064 148.765 153.184 148.79C153.304 148.814 153.409 148.885 153.478 148.986L154.72 150.914L157.433 147.452C157.468 147.386 157.518 147.329 157.579 147.287C157.64 147.244 157.711 147.218 157.785 147.209C157.858 147.2 157.933 147.209 158.003 147.236C158.072 147.262 158.134 147.305 158.184 147.361C158.233 147.398 158.275 147.444 158.306 147.498C158.337 147.551 158.357 147.61 158.364 147.672C158.372 147.733 158.366 147.795 158.349 147.855C158.332 147.914 158.303 147.969 158.264 148.017L154.7 152.528Z" fill="#6633FF"/>
<path d="M173.852 144.999H225.572" stroke="#AFAFAF" stroke-width="3" stroke-miterlimit="10" stroke-linecap="round"/>
<path d="M173.852 153.901H208.081" stroke="#AFAFAF" stroke-width="3" stroke-miterlimit="10" stroke-linecap="round"/>
<path d="M155.18 180.091C153.964 180.091 152.776 179.728 151.765 179.047C150.754 178.366 149.966 177.398 149.501 176.266C149.036 175.134 148.914 173.888 149.151 172.686C149.388 171.483 149.974 170.379 150.833 169.513C151.693 168.646 152.788 168.056 153.981 167.817C155.173 167.578 156.409 167.7 157.532 168.169C158.656 168.638 159.616 169.433 160.291 170.452C160.967 171.471 161.327 172.669 161.327 173.894C161.325 175.537 160.676 177.112 159.524 178.273C158.372 179.435 156.81 180.089 155.18 180.091ZM155.18 168.646C154.148 168.646 153.139 168.955 152.281 169.533C151.423 170.111 150.755 170.933 150.36 171.895C149.966 172.856 149.863 173.914 150.065 174.934C150.267 175.954 150.765 176.891 151.495 177.626C152.226 178.361 153.156 178.861 154.169 179.063C155.181 179.265 156.23 179.159 157.183 178.76C158.136 178.36 158.95 177.685 159.522 176.819C160.094 175.953 160.398 174.935 160.396 173.894C160.396 173.204 160.261 172.521 159.999 171.884C159.737 171.246 159.352 170.667 158.868 170.18C158.383 169.692 157.808 169.306 157.175 169.043C156.543 168.78 155.865 168.645 155.18 168.646Z" fill="#6633FF"/>
<path d="M173.852 169.161H225.572" stroke="#AFAFAF" stroke-width="3" stroke-miterlimit="10" stroke-linecap="round"/>
<path d="M173.852 178.073H208.081" stroke="#AFAFAF" stroke-width="3" stroke-miterlimit="10" stroke-linecap="round"/>
<path d="M155.18 204.263C153.964 204.263 152.776 203.9 151.765 203.219C150.754 202.538 149.966 201.57 149.501 200.438C149.036 199.305 148.914 198.059 149.151 196.857C149.388 195.655 149.974 194.551 150.833 193.684C151.693 192.818 152.788 192.228 153.981 191.988C155.173 191.749 156.409 191.872 157.532 192.341C158.656 192.81 159.616 193.604 160.291 194.623C160.967 195.643 161.327 196.841 161.327 198.066C161.325 199.709 160.676 201.284 159.524 202.445C158.372 203.607 156.81 204.26 155.18 204.263ZM155.18 192.778C154.148 192.778 153.14 193.086 152.282 193.664C151.424 194.242 150.756 195.063 150.361 196.024C149.966 196.985 149.863 198.042 150.064 199.062C150.265 200.082 150.762 201.019 151.492 201.754C152.221 202.489 153.151 202.99 154.162 203.193C155.174 203.396 156.223 203.292 157.176 202.894C158.129 202.496 158.944 201.822 159.517 200.957C160.09 200.093 160.396 199.076 160.396 198.036C160.396 197.345 160.261 196.662 159.999 196.024C159.737 195.386 159.353 194.806 158.868 194.318C158.384 193.83 157.809 193.442 157.176 193.178C156.543 192.914 155.865 192.778 155.18 192.778Z" fill="#6633FF"/>
<path d="M173.852 193.333H225.572" stroke="#AFAFAF" stroke-width="3" stroke-miterlimit="10" stroke-linecap="round"/>
<path d="M173.852 202.245H208.081" stroke="#AFAFAF" stroke-width="3" stroke-miterlimit="10" stroke-linecap="round"/>
<path d="M213.087 216.566H276.751C278.633 210.097 278.984 205.979 279.915 198.662C280.916 190.588 282.608 178.477 279.304 171.008C278.61 169.176 277.462 167.553 275.97 166.295C275.217 165.678 274.302 165.295 273.337 165.193C272.372 165.091 271.398 165.274 270.534 165.719C269.738 166.253 269.073 166.961 268.589 167.792C268.105 168.622 267.815 169.553 267.741 170.513C267.18 176.508 266.599 180.313 261.734 188.68C261.063 187.53 247.938 155.324 239.708 143.263C238.407 141.376 237.035 139.418 235.013 138.358C232.99 137.299 230.137 137.47 228.846 139.368C227.754 140.983 228.135 143.152 228.595 145.05C230.604 153.402 233.214 161.595 236.404 169.565C235.061 169.138 233.626 169.096 232.26 169.444C230.895 169.792 229.652 170.516 228.67 171.534C227.689 172.553 227.008 173.826 226.703 175.213C226.398 176.599 226.481 178.043 226.943 179.385C225.711 178.282 224.157 177.613 222.515 177.477C220.873 177.341 219.231 177.747 217.837 178.632C216.443 179.517 215.372 180.835 214.784 182.386C214.197 183.938 214.125 185.64 214.579 187.237C212.326 186.036 209.353 186.409 206.78 187.893C203.146 190.002 207.361 201.013 208.992 207.22C210.018 210.476 211.391 213.609 213.087 216.566Z" fill="#FFB979"/>
<path d="M214.909 187.035C214.909 186.47 213.998 186.47 214.038 187.035C214.157 188.924 214.531 190.789 215.15 192.576C215.33 193.101 216.151 192.879 215.991 192.344C215.397 190.631 215.034 188.845 214.909 187.035Z" fill="#2A2D7E"/>
<path d="M227.384 178.85C227.073 178.386 226.313 178.85 226.633 179.294C227.755 180.997 228.704 182.809 229.466 184.704C229.501 184.813 229.574 184.905 229.672 184.962C229.77 185.02 229.886 185.039 229.997 185.017C230.053 185.001 230.105 184.975 230.151 184.94C230.197 184.904 230.235 184.86 230.264 184.809C230.293 184.758 230.312 184.702 230.319 184.645C230.326 184.587 230.322 184.528 230.307 184.472C229.522 182.504 228.542 180.621 227.384 178.85Z" fill="#2A2D7E"/>
<path d="M241.34 174.995L236.805 169.353C236.722 169.271 236.611 169.226 236.496 169.227C236.38 169.228 236.27 169.275 236.189 169.358C236.108 169.441 236.063 169.553 236.064 169.669C236.065 169.786 236.112 169.897 236.194 169.979L240.729 175.61C240.811 175.69 240.921 175.734 241.035 175.734C241.149 175.734 241.258 175.69 241.34 175.61C241.38 175.57 241.412 175.522 241.434 175.469C241.456 175.416 241.467 175.36 241.467 175.302C241.467 175.245 241.456 175.189 241.434 175.136C241.412 175.083 241.38 175.035 241.34 174.995Z" fill="#2A2D7E"/>
<path d="M152.907 36.3931C155.117 35.4322 156.858 33.6266 157.747 31.3728C158.637 29.119 158.603 26.6013 157.653 24.3728C157.244 23.2448 156.619 22.2091 155.813 21.3248C155.007 20.4405 154.036 19.7248 152.956 19.2187C151.876 18.7126 150.707 18.426 149.517 18.3752C148.327 18.3245 147.138 18.5105 146.019 18.9228C144.818 19.4154 143.744 20.1764 142.877 21.1484C142.009 22.1204 141.372 23.2781 141.014 24.5343C140.032 24.5702 139.064 24.775 138.15 25.1398C136.359 25.814 134.864 27.1074 133.931 28.7894C132.997 30.4714 132.687 32.4328 133.054 34.3241C129.907 35.414 127.179 37.4739 125.257 40.2124C123.334 42.9509 122.315 46.2293 122.342 49.5841L154.109 49.3217C154.091 46.8846 153.519 44.484 152.438 42.3041C151.357 40.1242 149.795 38.223 147.872 36.7463C149.546 37.1532 151.305 37.0298 152.907 36.3931Z" fill="#2A2D7E"/>
<path d="M147.371 37.4426C144.256 37.4225 141.209 38.355 138.631 40.1172L118.327 49.5437H161.377C161.337 42.8624 155.08 37.4426 147.371 37.4426Z" fill="#F72828"/>
<path d="M151.916 22.6671C152.381 23.7604 152.469 24.9792 152.167 26.1289C151.837 27.3895 151.065 28.4866 149.993 29.2162C148.921 29.9458 147.623 30.2582 146.34 30.0953C146.167 29.8774 145.942 29.7069 145.687 29.5993C145.432 29.4917 145.153 29.4506 144.878 29.4796C144.419 29.5364 144.001 29.7726 143.713 30.1373C143.426 30.502 143.292 30.9661 143.34 31.4294C143.389 31.8928 143.616 32.3183 143.973 32.6144C144.33 32.9104 144.788 33.0532 145.249 33.012C145.448 34.1213 145.951 35.1525 146.7 35.9893L146.65 35.9288C146.65 37.0087 146.55 41.8834 146.55 42.8725C146.55 44.4873 148.703 44.7295 150.655 43.579C151.486 43.0844 152.066 41.2173 152.457 39.2492C154.72 39.2492 156.652 37.4931 156.762 32.3257C156.882 25.9977 154.489 23.5149 151.916 22.6671Z" fill="#FFB979"/>
<path d="M117.016 45.0222C116.425 45.0262 115.84 45.1476 115.295 45.3797C114.751 45.6117 114.257 45.9497 113.842 46.3744C113.428 46.7991 113.1 47.3021 112.878 47.8546C112.657 48.4071 112.545 48.9982 112.551 49.5941L121.561 49.5134C121.557 48.9171 121.436 48.3274 121.205 47.7783C120.974 47.2293 120.638 46.7317 120.216 46.3143C119.793 45.8968 119.293 45.5677 118.744 45.346C118.195 45.1242 117.607 45.0142 117.016 45.0222Z" fill="#FFB979"/>
<path d="M173.621 45.0222C172.434 45.0408 171.303 45.532 170.474 46.3886C169.645 47.2451 169.186 48.3975 169.196 49.5942L178.207 49.5134C178.202 48.914 178.078 48.3216 177.845 47.7705C177.611 47.2194 177.271 46.7205 176.844 46.3028C176.418 45.8851 175.913 45.5568 175.36 45.337C174.807 45.1172 174.216 45.0102 173.621 45.0222Z" fill="#FFB979"/>
<path d="M151.576 35.9187C152.267 36.2746 153.07 36.3399 153.808 36.1004C153.999 36.0398 153.919 35.7471 153.738 35.8077C153.411 35.9173 153.066 35.9604 152.722 35.9344C152.378 35.9085 152.043 35.8139 151.736 35.6563C151.556 35.5655 151.406 35.8279 151.576 35.9187Z" fill="#2A2D7E"/>
<path d="M156.281 27.996C155.916 27.8718 155.529 27.8221 155.144 27.8499C154.759 27.8776 154.383 27.9822 154.039 28.1575C153.859 28.2483 154.039 28.5107 154.189 28.4199C154.813 28.1125 155.533 28.0654 156.191 28.2887C156.381 28.3593 156.462 28.0666 156.281 27.996Z" fill="#2A2D7E"/>
<path d="M149.303 28.4905C149.611 28.3345 149.947 28.2417 150.29 28.2175C150.634 28.1932 150.979 28.238 151.306 28.3492C151.486 28.4199 151.566 28.1272 151.386 28.0565C151.021 27.9414 150.638 27.9009 150.258 27.9373C149.878 27.9737 149.509 28.0863 149.173 28.2685C148.983 28.2685 149.173 28.5713 149.303 28.4905Z" fill="#2A2D7E"/>
<path d="M154.519 33.2543L154.459 32.6891C154.409 32.3056 154.369 31.9119 154.319 31.5284C154.319 31.4883 154.303 31.4498 154.275 31.4214C154.247 31.393 154.209 31.377 154.169 31.377C154.149 31.3755 154.129 31.3784 154.11 31.3855C154.091 31.3926 154.074 31.4037 154.059 31.418C154.045 31.4324 154.034 31.4497 154.027 31.4688C154.02 31.4878 154.017 31.5082 154.019 31.5284L154.249 33.5469C154.249 33.5469 154.249 33.6176 154.249 33.658H154.069L153.588 33.557L152.587 33.3552C152.397 33.3552 152.317 33.6075 152.507 33.6479L153.608 33.88L154.139 33.991C154.208 34.0113 154.282 34.005 154.347 33.9733C154.412 33.9416 154.462 33.8867 154.489 33.8194C154.504 33.7428 154.504 33.6639 154.489 33.5873L154.519 33.2543Z" fill="#2A2D7E"/>
<path d="M150.074 30.6806C150.074 31.0339 150.274 31.3063 150.525 31.3063C150.775 31.3063 150.965 31.0339 150.965 30.6806C150.965 30.3274 150.765 30.0549 150.525 30.0549C150.284 30.0549 150.074 30.3375 150.074 30.6806Z" fill="#2A2D7E"/>
<path d="M155.39 30.2164C155.2 30.2164 155.04 30.4788 155.04 30.7916C155.04 31.1045 155.2 31.377 155.39 31.377C155.581 31.377 155.751 31.1146 155.751 30.7916C155.751 30.4687 155.591 30.2164 155.39 30.2164Z" fill="#2A2D7E"/>
<path d="M154.279 38.7648C153.243 39.0757 152.145 39.1099 151.092 38.864C150.038 38.618 149.067 38.1004 148.272 37.3619C148.132 37.2307 147.922 37.4426 148.062 37.5738C148.892 38.3504 149.908 38.8956 151.01 39.1557C152.113 39.4159 153.264 39.382 154.349 39.0575C154.384 39.0449 154.413 39.0198 154.431 38.9869C154.448 38.954 154.453 38.9157 154.445 38.8793C154.436 38.843 154.414 38.8112 154.384 38.79C154.353 38.7689 154.316 38.7599 154.279 38.7648Z" fill="#2A2D7E"/>
<path d="M145.719 31.2963C145.696 31.295 145.674 31.2866 145.656 31.2721C145.638 31.2576 145.625 31.2378 145.619 31.2155C145.529 30.721 145.359 30.4182 145.098 30.3072C144.979 30.2685 144.852 30.2565 144.728 30.2722C144.603 30.2879 144.484 30.3308 144.378 30.398C144.366 30.4053 144.354 30.4103 144.341 30.4127C144.328 30.4151 144.314 30.4149 144.301 30.4121C144.288 30.4093 144.276 30.404 144.265 30.3963C144.254 30.3887 144.245 30.379 144.237 30.3677C144.23 30.3565 144.225 30.3439 144.223 30.3307C144.22 30.3175 144.221 30.3039 144.223 30.2908C144.226 30.2777 144.231 30.2653 144.239 30.2542C144.247 30.2432 144.256 30.2337 144.267 30.2264C144.403 30.144 144.555 30.0923 144.712 30.0749C144.869 30.0575 145.028 30.0747 145.178 30.1255C145.358 30.2297 145.509 30.3758 145.621 30.5514C145.732 30.7271 145.8 30.9271 145.819 31.1348C145.823 31.1613 145.816 31.1882 145.802 31.2104C145.787 31.2327 145.765 31.2488 145.739 31.2559L145.719 31.2963Z" fill="#2A2D7E"/>
</g>
</g>
<defs>
<clipPath id="clip0">
<rect width="362" height="216" fill="white"/>
</clipPath>
<clipPath id="clip1">
<rect width="362" height="218" fill="white" transform="translate(0 -1)"/>
</clipPath>
</defs>
</svg>
