<svg width="362" height="216" viewBox="0 0 362 216" fill="none" xmlns="http://www.w3.org/2000/svg">
<g clip-path="url(#clip0)">
<rect width="362" height="216" fill="white"/>
<g clip-path="url(#clip1)">
<path d="M363 0H0V216H363V0Z" fill="#DBD8FE"/>
<path d="M334.237 91.39H269.424C265.071 91.39 261.543 94.9046 261.543 99.24V137.54C261.543 141.875 265.071 145.39 269.424 145.39H334.237C338.59 145.39 342.118 141.875 342.118 137.54V99.24C342.118 94.9046 338.59 91.39 334.237 91.39Z" fill="#FCFCFC"/>
<path d="M90.986 116.84H26.6443C22.2918 116.84 18.7634 120.355 18.7634 124.69V162.67C18.7634 167.005 22.2918 170.52 26.6443 170.52H90.986C95.3384 170.52 98.8668 167.005 98.8668 162.67V124.69C98.8668 120.355 95.3384 116.84 90.986 116.84Z" fill="#FCFCFC"/>
<path d="M81.298 116.67H34.5251V158.09H81.298V116.67Z" fill="#F3F3FF"/>
<path d="M331.055 132.5C330.303 129.1 328.408 126.057 325.685 123.875C322.961 121.693 319.572 120.503 316.076 120.5C315.439 120.499 314.802 120.54 314.169 120.62C313.498 117.596 311.921 114.846 309.647 112.734C307.372 110.623 304.507 109.249 301.432 108.795C298.356 108.34 295.215 108.827 292.423 110.191C289.631 111.554 287.321 113.73 285.798 116.43C284.239 115.908 282.604 115.645 280.959 115.65C278.938 115.65 276.937 116.047 275.071 116.82C273.205 117.592 271.51 118.723 270.084 120.15C268.657 121.576 267.528 123.268 266.76 125.13C265.992 126.992 265.601 128.987 265.609 131C265.609 131.51 265.609 132 265.689 132.53L331.055 132.5Z" fill="#F3F3FF"/>
<path d="M328.525 120.25C327.692 119.67 326.517 120.08 325.674 120.66L325.162 121.05C325.217 119.956 325.146 118.858 324.951 117.78C324.74 116.78 324.228 115.54 323.184 115.3C322.792 115.252 322.394 115.296 322.022 115.43C321.651 115.564 321.316 115.783 321.046 116.07C319.846 117.234 319.13 118.804 319.038 120.47C318.847 120.098 318.596 119.76 318.295 119.47C318.055 119.247 317.765 119.085 317.448 119C317.131 118.914 316.798 118.908 316.478 118.98C315.474 119.27 315.103 120.45 315.042 121.46C314.979 122.793 315.234 124.123 315.785 125.339C316.337 126.556 317.169 127.625 318.215 128.46L320.845 128.34C320.84 128.27 320.84 128.2 320.845 128.13L320.956 128.4L320.795 128.45C321.119 128.587 321.474 128.641 321.825 128.606C322.175 128.571 322.512 128.449 322.803 128.25L323.807 129.38C325.826 127.888 327.48 125.96 328.646 123.74C328.973 123.208 329.192 122.617 329.288 122C329.317 121.668 329.263 121.334 329.13 121.029C328.996 120.723 328.789 120.455 328.525 120.25Z" fill="#AAA9F7"/>
<path d="M328.485 124.8H317.522C317.259 124.781 316.995 124.816 316.747 124.903C316.498 124.99 316.27 125.128 316.078 125.306C315.885 125.485 315.731 125.702 315.625 125.942C315.52 126.183 315.466 126.443 315.466 126.705C315.466 126.967 315.52 127.227 315.625 127.468C315.731 127.708 315.885 127.925 316.078 128.104C316.27 128.282 316.498 128.42 316.747 128.507C316.995 128.594 317.259 128.629 317.522 128.61H319.389V132.36H327.421L328.535 128.61C329.018 128.575 329.471 128.359 329.801 128.006C330.131 127.652 330.314 127.188 330.314 126.705C330.314 126.222 330.131 125.758 329.801 125.404C329.471 125.051 329.018 124.835 328.535 124.8H328.485Z" fill="#DBD8FE"/>
<path d="M33.9829 137.38H81.9104" stroke="white" stroke-width="6" stroke-miterlimit="10"/>
<path d="M256.122 71.35H107.089V153.79H256.122V71.35Z" fill="#2A2D7E"/>
<path d="M188.447 182.58H62.2635V187.78H188.447V182.58Z" fill="#AAA9F7"/>
<path d="M41.2172 144.708L38.1004 145.966L43.1212 158.301L46.2379 157.042L41.2172 144.708Z" fill="#DBD8FE"/>
<path d="M18.7634 158.09H98.8668V163.39C98.8668 165.472 98.0365 167.469 96.5585 168.941C95.0806 170.413 93.076 171.24 90.9859 171.24H26.6342C24.5441 171.24 22.5395 170.413 21.0616 168.941C19.5837 167.469 18.7534 165.472 18.7534 163.39V158.09H18.7634Z" fill="#AAA9F7"/>
<path d="M110.783 61.11V35.42C110.778 33.3397 109.946 31.3461 108.469 29.8751C106.992 28.404 104.991 27.5753 102.903 27.57H49.0017C46.9202 27.5858 44.929 28.4192 43.4609 29.8891C41.9927 31.359 41.1662 33.3466 41.161 35.42V61.11H110.783Z" fill="#FCFCFC"/>
<path d="M41.161 61.11H110.813V66.41C110.813 68.4919 109.983 70.4886 108.505 71.9608C107.027 73.4329 105.023 74.26 102.933 74.26H49.0017C46.9185 74.2494 44.9243 73.4177 43.455 71.9467C41.9858 70.4757 41.161 68.485 41.161 66.41V61.11Z" fill="#AAA9F7"/>
<path d="M67.0322 27.57H47.5962V61.11H67.0322V27.57Z" fill="#F3F3FF"/>
<path d="M106.356 27.57H86.6992V61.11H106.356V27.57Z" fill="#F3F3FF"/>
<path d="M43.209 99.29L124.377 99.29V95.3L43.209 95.3V99.29Z" fill="white"/>
<path d="M242.559 129.18H186.038V133.96H242.559V129.18Z" fill="#DBD8FE"/>
<path d="M256.122 66.73H107.089V75.97H256.122V66.73Z" fill="#6633FF"/>
<path d="M113.705 72.99C114.614 72.99 115.351 72.2558 115.351 71.35C115.351 70.4443 114.614 69.71 113.705 69.71C112.795 69.71 112.058 70.4443 112.058 71.35C112.058 72.2558 112.795 72.99 113.705 72.99Z" fill="#F72828"/>
<path d="M120.26 72.99C121.17 72.99 121.907 72.2558 121.907 71.35C121.907 70.4443 121.17 69.71 120.26 69.71C119.351 69.71 118.614 70.4443 118.614 71.35C118.614 72.2558 119.351 72.99 120.26 72.99Z" fill="#FF7E00"/>
<path d="M126.826 72.99C127.735 72.99 128.473 72.2558 128.473 71.35C128.473 70.4443 127.735 69.71 126.826 69.71C125.917 69.71 125.18 70.4443 125.18 71.35C125.18 72.2558 125.917 72.99 126.826 72.99Z" fill="#33CCCC"/>
<path d="M194.872 84.69H113.705V88.68H194.872V84.69Z" fill="#DBD8FE"/>
<path d="M164.283 95.29H107.089V99.28H164.283V95.29Z" fill="#DBD8FE"/>
<path d="M194.872 106.6H113.705V110.59H194.872V106.6Z" fill="#DBD8FE"/>
<path d="M289.914 106.6H204.721V110.94H289.914V106.6Z" fill="#33CCCC"/>
<path d="M181.59 33.91H100.423V37.9H181.59V33.91Z" fill="#FF7E00"/>
<path d="M287.294 40.7H246.705V45.01H287.294V40.7Z" fill="#33CCCC"/>
<path d="M321.588 31.96H228.524V35.9H321.588V31.96Z" fill="#FCFCFC"/>
<path d="M325.252 183.03H284.664V187.34H325.252V183.03Z" fill="#FCFCFC"/>
<path d="M58.1876 83.19H17.5989V87.5H58.1876V83.19Z" fill="#FCFCFC"/>
<path d="M363.291 52.56H282.124V56.55H363.291V52.56Z" fill="#AAA9F7"/>
<path d="M194.19 117.74H81.9104V122.05H194.19V117.74Z" fill="#FF7E00"/>
<path d="M193.758 144.76C193.105 145.2 194.16 147.19 194.491 148.53C193.216 148.8 192.101 149.25 191.85 149.98C191.745 150.352 191.728 150.743 191.799 151.123C191.87 151.503 192.029 151.861 192.262 152.17C192.728 152.782 193.311 153.296 193.979 153.68C194.27 153.9 194.618 154.032 194.983 154.06C195.896 154.06 197.523 152.34 197.523 152.34C196.928 150.38 196.2 148.462 195.344 146.6C194.943 145.85 194.471 144.49 193.758 144.76Z" fill="#D37552"/>
<path d="M224.287 139.76C224.014 139.759 223.746 139.835 223.514 139.98C222.942 139.63 222.741 138.98 222.35 137.86C221.979 136.88 221.671 135.878 221.426 134.86C220.607 135.483 219.957 136.301 219.539 137.24C218.867 137.244 218.206 137.408 217.611 137.72C217.551 137.759 217.503 137.812 217.469 137.875C217.436 137.938 217.419 138.009 217.421 138.08C217.446 138.235 217.503 138.383 217.587 138.515C217.672 138.648 217.782 138.761 217.912 138.85C217.992 138.912 218.076 138.969 218.163 139.02C217.39 140.83 217.501 142.37 219.981 143.34V148.52H222.219C221.764 147.648 221.546 146.672 221.587 145.69C221.587 145.036 221.73 144.389 222.006 143.795C222.281 143.201 222.683 142.674 223.183 142.25C223.322 142.405 223.492 142.528 223.683 142.613C223.873 142.697 224.079 142.741 224.287 142.74C224.687 142.74 225.07 142.582 225.352 142.301C225.635 142.019 225.793 141.638 225.793 141.24C225.793 140.842 225.635 140.461 225.352 140.179C225.07 139.898 224.687 139.74 224.287 139.74V139.76Z" fill="#D37552"/>
<path d="M236.214 159C236.214 155 234.005 147.08 226.034 147.08H219.097C217.331 146.994 215.566 147.288 213.924 147.942C212.282 148.596 210.8 149.595 209.58 150.87C207.726 152.905 206.11 155.143 204.761 157.54C202.261 155.78 199.802 153.64 197.302 151.88C196.469 152.45 195.023 153.31 194.19 153.88C196.367 157.071 198.713 160.146 201.217 163.09C201.779 163.81 203.918 165.66 204.821 165.82C205.739 165.86 206.642 165.576 207.371 165.02C209.66 163.64 211.919 160.33 213.555 157.25C213.555 160.7 212.29 168.91 212.29 168.91L231.947 168.56C233.805 168.53 236.284 166.43 236.214 159Z" fill="#F72828"/>
<path d="M220.211 137.85C220.256 137.866 220.302 137.872 220.349 137.87C220.396 137.867 220.442 137.855 220.484 137.835C220.526 137.814 220.563 137.786 220.594 137.75C220.625 137.715 220.649 137.674 220.663 137.63C220.716 137.552 220.737 137.457 220.722 137.364C220.707 137.271 220.658 137.188 220.583 137.13C220.494 137.104 220.398 137.112 220.314 137.152C220.23 137.193 220.165 137.264 220.131 137.35C220.078 137.428 220.057 137.523 220.072 137.616C220.087 137.709 220.137 137.792 220.211 137.85Z" fill="#1B1464"/>
<path d="M221.496 143.64L219.981 143.52V144.72C219.981 144.72 222.119 143.68 221.496 143.64Z" fill="#1B1464"/>
<path d="M219.689 140.34C219.575 140.44 219.441 140.515 219.296 140.559C219.15 140.604 218.997 140.618 218.846 140.6C218.594 140.541 218.374 140.387 218.234 140.17C218.215 140.156 218.192 140.149 218.168 140.149C218.145 140.149 218.122 140.156 218.103 140.17C218.088 140.188 218.079 140.211 218.079 140.235C218.079 140.259 218.088 140.282 218.103 140.3C218.27 140.56 218.534 140.743 218.836 140.81H219.017C219.314 140.794 219.598 140.685 219.83 140.5C219.84 140.493 219.848 140.484 219.855 140.473C219.861 140.463 219.865 140.451 219.867 140.439C219.869 140.427 219.868 140.415 219.865 140.403C219.863 140.391 219.857 140.38 219.85 140.37C219.843 140.36 219.834 140.352 219.823 140.345C219.813 140.339 219.801 140.335 219.789 140.333C219.777 140.331 219.764 140.332 219.753 140.335C219.741 140.338 219.729 140.343 219.72 140.35L219.689 140.34Z" fill="#1B1464"/>
<path d="M224.689 140.44C224.462 140.38 224.223 140.38 223.996 140.44C223.936 140.44 223.906 140.52 223.916 140.57C223.919 140.585 223.926 140.599 223.935 140.611C223.944 140.623 223.956 140.633 223.969 140.64C223.982 140.648 223.996 140.653 224.012 140.654C224.027 140.656 224.042 140.654 224.056 140.65C224.232 140.61 224.413 140.61 224.589 140.65C224.671 140.674 224.745 140.719 224.805 140.781C224.865 140.842 224.908 140.917 224.93 141C224.986 141.18 224.974 141.373 224.896 141.545C224.818 141.716 224.68 141.853 224.508 141.93C224.378 141.98 224.438 142.19 224.568 142.14C224.795 142.044 224.978 141.869 225.084 141.648C225.189 141.427 225.209 141.175 225.141 140.94C225.113 140.826 225.057 140.721 224.978 140.633C224.899 140.546 224.8 140.48 224.689 140.44Z" fill="#1B1464"/>
<path d="M231.907 157.1V173.62C231.907 173.91 232.208 173.91 232.208 173.62V157.1C232.238 156.81 231.907 156.81 231.907 157.1Z" fill="#1B1464"/>
<path d="M231.054 138.52C231.057 138.368 231.041 138.217 231.004 138.07C230.92 137.428 230.711 136.809 230.387 136.248C230.063 135.687 229.631 135.195 229.116 134.8C227.218 133.292 224.939 132.334 222.531 132.03C221.115 132.03 221.055 133.33 221.416 134.89C221.507 135.31 221.637 135.76 221.768 136.2V136.27C221.938 136.81 222.129 137.36 222.31 137.87C222.701 138.98 222.902 139.63 223.474 139.99C223.706 139.847 223.974 139.771 224.247 139.77C224.647 139.77 225.03 139.928 225.312 140.209C225.594 140.491 225.753 140.872 225.753 141.27C225.753 141.668 225.594 142.049 225.312 142.331C225.03 142.612 224.647 142.77 224.247 142.77C224.039 142.769 223.833 142.725 223.643 142.641C223.453 142.557 223.283 142.434 223.143 142.28C222.645 142.703 222.245 143.229 221.971 143.821C221.697 144.414 221.556 145.058 221.557 145.71C221.555 146.196 221.596 146.681 221.677 147.16C221.832 147.935 222.238 148.637 222.832 149.16C222.479 149.619 222.242 150.156 222.141 150.725C222.04 151.294 222.078 151.879 222.251 152.431C222.424 152.983 222.728 153.485 223.136 153.896C223.545 154.306 224.046 154.613 224.599 154.79C223.92 154.84 223.283 155.136 222.808 155.623C222.334 156.109 222.056 156.752 222.025 157.429C221.995 158.107 222.215 158.772 222.644 159.298C223.073 159.825 223.681 160.176 224.353 160.286C225.025 160.396 225.714 160.256 226.289 159.894C226.865 159.532 227.287 158.972 227.475 158.32C227.664 157.669 227.606 156.971 227.313 156.359C227.019 155.747 226.511 155.263 225.884 155C226.517 154.986 227.135 154.806 227.677 154.478C228.218 154.151 228.664 153.688 228.969 153.135C229.274 152.582 229.428 151.958 229.415 151.327C229.402 150.697 229.223 150.08 228.895 149.54C233.684 147.53 231.054 140.69 231.054 138.52Z" fill="#1B1464"/>
<path d="M213.826 168.83L212.28 204.77L219.981 205.15L223.063 175.75L225.793 205.15H233.845L231.937 168.51L213.826 168.83Z" fill="#1B1464"/>
<path d="M177.585 129.18H114.116V133.43H177.585V129.18Z" fill="#DBD8FE"/>
<path d="M363.291 161.77H282.124V165.76H363.291V161.77Z" fill="white"/>
<path d="M150.569 166.59L148.722 202.46L153.36 202.76L159.253 176.76L162.104 202.99H166.451L167.947 166.71L150.569 166.59Z" fill="#1B1464"/>
<path d="M67.7751 179.75L72.3932 181.16L74.5015 174.31L69.6525 173.66L67.7751 179.75Z" fill="#F72828"/>
<path d="M68.4578 144.95L61.2697 171.24H51.5015L54.7441 149.29L68.4578 144.95Z" fill="#2A2D7E"/>
<path d="M65.4159 142.68L78.3866 153.68C78.9427 154.218 79.3503 154.89 79.5701 155.631C79.7899 156.372 79.8145 157.157 79.6415 157.91L75.2042 174.43L68.8794 173.58L71.4294 159.93L62.4945 156.31C57.4748 154.61 55.979 152.31 55.979 147.09V146.24L65.4159 142.68Z" fill="#2A2D7E"/>
<path d="M53.7101 127.52C54.9951 125.52 56.0593 124.13 58.4386 124.52C58.8124 124.45 59.1927 124.419 59.573 124.43L65.2653 124.6C66.6589 124.647 67.9773 125.241 68.9327 126.253C69.8882 127.265 70.4032 128.612 70.3652 130L69.8532 146.58C69.852 146.644 69.8379 146.707 69.8118 146.765C69.7858 146.824 69.7483 146.876 69.7015 146.92C69.6547 146.964 69.5997 146.998 69.5395 147.02C69.4794 147.043 69.4154 147.053 69.3513 147.05L64.3919 147L63.2173 147.81C62.905 148.077 62.5137 148.235 62.1029 148.26C61.7315 148.26 61.4705 147.88 61.099 147.76C60.441 147.514 59.8142 147.192 59.2317 146.8H58.8602C57.4666 146.753 56.1482 146.159 55.1928 145.147C54.2373 144.135 53.7224 142.788 53.7603 141.4V141.19C52.4753 138.87 52.4552 129.5 53.7101 127.52Z" fill="#F72828"/>
<path d="M52.907 118.55C53.1859 119.08 53.6062 119.523 54.1217 119.83C53.798 120.447 53.6289 121.134 53.6289 121.83C53.6289 122.526 53.798 123.213 54.1217 123.83C54.6953 124.874 55.6581 125.651 56.8021 125.993C57.9461 126.336 59.1795 126.216 60.2356 125.66C61.3534 125.096 62.2017 124.115 62.5949 122.93C62.8794 123.629 63.3689 124.226 63.9993 124.643C64.6297 125.061 65.3718 125.279 66.1287 125.27C66.6139 125.281 67.0964 125.196 67.5487 125.021C68.0011 124.846 68.4143 124.583 68.7648 124.249C69.1154 123.915 69.3964 123.515 69.5917 123.072C69.7871 122.63 69.893 122.153 69.9035 121.67C69.9024 121.053 69.7323 120.448 69.4115 119.92C69.8099 119.594 70.1315 119.186 70.3536 118.723C70.5756 118.259 70.6927 117.753 70.6966 117.24C70.6887 116.515 70.4613 115.809 70.0439 115.215C69.6265 114.621 69.0387 114.166 68.3574 113.91C68.488 113.527 68.5525 113.125 68.5482 112.72C68.5484 112.184 68.4404 111.653 68.2305 111.159C68.0206 110.665 67.713 110.218 67.3262 109.845C66.9394 109.471 66.4812 109.18 65.9788 108.986C65.4764 108.793 64.9402 108.703 64.4019 108.72C63.8261 108.723 63.2564 108.838 62.7254 109.06C61.9786 108.694 61.1581 108.503 60.326 108.5C58.9039 108.5 57.5391 109.058 56.528 110.054C55.5168 111.051 54.9407 112.404 54.9249 113.82C54.7811 113.865 54.6403 113.918 54.5032 113.98C54.0943 114.172 53.7279 114.444 53.4256 114.779C53.1232 115.114 52.891 115.506 52.7423 115.931C52.5937 116.357 52.5317 116.808 52.56 117.257C52.5883 117.707 52.7062 118.146 52.907 118.55ZM62.3439 119.62C62.2446 119.423 62.127 119.235 61.9925 119.06C62.4727 118.903 62.9287 118.681 63.3478 118.4C63.4195 118.605 63.5102 118.802 63.6189 118.99C63.1828 119.343 62.8384 119.796 62.6149 120.31C62.5454 120.072 62.4547 119.841 62.3439 119.62Z" fill="#2A2D7E"/>
<path d="M68.7991 176.45C67.4766 178.21 66.8415 180.388 67.0121 182.58H77.6638C77.6638 182.58 77.8646 177.96 71.6402 177.89L68.7991 176.45Z" fill="#2A2D7E"/>
<path d="M58.1475 119.07C58.1786 118.905 58.2425 118.748 58.3355 118.608C58.4285 118.467 58.5487 118.347 58.689 118.254C58.8293 118.161 58.9869 118.097 59.1525 118.065C59.3181 118.033 59.4884 118.035 59.6534 118.07H59.824C60.8246 118.083 61.8034 117.778 62.6178 117.199C63.4322 116.62 64.0397 115.797 64.3517 114.85C64.8834 115.152 65.3257 115.589 65.6341 116.115C65.9425 116.642 66.1062 117.24 66.1086 117.85L65.9982 120.14C65.9997 120.392 65.9555 120.643 65.8677 120.88C65.4159 122.12 64.9441 122.77 64.151 123.06V124.97C64.1523 125.169 64.114 125.367 64.0385 125.551C63.9629 125.735 63.8514 125.903 63.7105 126.044C63.5696 126.185 63.4021 126.298 63.2175 126.374C63.0329 126.451 62.8349 126.49 62.635 126.49H62.2435C61.8405 126.487 61.455 126.326 61.171 126.041C60.8869 125.756 60.7276 125.371 60.7276 124.97V122.43C60.1454 121.905 59.7566 121.201 59.6232 120.43C59.4679 120.465 59.3067 120.465 59.1514 120.43C58.8448 120.367 58.5724 120.193 58.387 119.942C58.2016 119.691 58.1162 119.38 58.1475 119.07Z" fill="#FFB979"/>
<path d="M59.3723 139.2L77.7943 121.68L82.4224 126.51L63.9401 144.09C62.4409 142.927 61.0921 141.583 59.9244 140.09C59.7537 139.78 59.553 139.5 59.3723 139.2Z" fill="#2A2D7E"/>
<path d="M43.1689 153.16C43.4527 152.88 43.8181 152.696 44.2129 152.635C44.6077 152.574 45.0117 152.639 45.3675 152.82L45.0462 152.5C44.9277 152.439 44.825 152.352 44.7461 152.244C44.6673 152.137 44.6144 152.013 44.5916 151.883C44.5689 151.752 44.5769 151.617 44.615 151.49C44.6531 151.363 44.7203 151.246 44.8114 151.149C44.9024 151.052 45.0148 150.977 45.1396 150.93C45.2645 150.884 45.3986 150.867 45.5312 150.88C45.6639 150.894 45.7915 150.938 45.9042 151.009C46.0169 151.08 46.1115 151.176 46.1806 151.29L46.4015 151.5L55.226 143.11C56.6081 144.907 58.3652 146.385 60.3762 147.44L51.2003 156.22L51.2505 156.28C51.3857 156.445 51.4545 156.654 51.4437 156.867C51.4329 157.08 51.3432 157.281 51.1919 157.432C51.0407 157.582 50.8387 157.672 50.6251 157.682C50.4115 157.693 50.2015 157.625 50.0357 157.49L49.7145 157.17C49.9403 157.569 50.0112 158.037 49.9138 158.484C49.8164 158.932 49.5574 159.329 49.186 159.599C48.8145 159.869 48.3565 159.994 47.8988 159.95C47.441 159.906 47.0154 159.696 46.7027 159.36L43.1689 155.81C42.8176 155.458 42.6204 154.981 42.6204 154.485C42.6204 153.989 42.8176 153.512 43.1689 153.16Z" fill="#2A2D7E"/>
<path d="M84.9724 121.7L82.6433 120L86.5988 118.63L84.9724 121.7Z" fill="#2A2D7E"/>
<path d="M62.2435 123.07C62.8564 123.234 63.5063 123.195 64.095 122.959C64.6837 122.723 65.1791 122.302 65.5062 121.76C65.5218 121.737 65.5457 121.72 65.573 121.714C65.6004 121.708 65.6291 121.712 65.6534 121.726C65.6777 121.74 65.6957 121.763 65.7038 121.789C65.7119 121.816 65.7095 121.845 65.697 121.87C65.3438 122.453 64.8102 122.905 64.1765 123.159C63.5427 123.414 62.8432 123.456 62.1833 123.28C62.0628 123.25 62.123 123 62.2435 123.07Z" fill="#2A2D7E"/>
<path d="M58.7097 118.86C58.731 118.843 58.7576 118.834 58.7849 118.834C58.8123 118.834 58.8389 118.843 58.8602 118.86C58.8758 118.882 58.8841 118.908 58.8841 118.935C58.8841 118.962 58.8758 118.988 58.8602 119.01C58.818 119.085 58.7958 119.169 58.7958 119.255C58.7958 119.341 58.818 119.425 58.8602 119.5C58.9074 119.568 58.9704 119.623 59.0438 119.662C59.1173 119.7 59.199 119.72 59.2819 119.72C59.3112 119.72 59.3393 119.732 59.36 119.752C59.3807 119.773 59.3923 119.801 59.3923 119.83C59.3923 119.859 59.3807 119.887 59.36 119.908C59.3393 119.928 59.3112 119.94 59.2819 119.94C59.1621 119.938 59.0445 119.907 58.9395 119.85C58.8344 119.792 58.7452 119.71 58.6795 119.61C58.6148 119.494 58.5834 119.363 58.5887 119.231C58.594 119.098 58.6359 118.97 58.7097 118.86Z" fill="#2A2D7E"/>
<path d="M62.2435 121.23C62.3011 121.324 62.3779 121.405 62.4688 121.468C62.5598 121.531 62.663 121.574 62.7718 121.595C62.8805 121.616 62.9924 121.613 63.1003 121.588C63.2081 121.564 63.3096 121.516 63.398 121.45C63.5084 121.37 63.6189 121.56 63.5084 121.64C63.3909 121.724 63.2565 121.782 63.1144 121.81C62.9723 121.837 62.8259 121.834 62.6852 121.8C62.4229 121.733 62.1964 121.569 62.0527 121.34C62.0403 121.315 62.0378 121.286 62.0459 121.259C62.054 121.233 62.072 121.21 62.0963 121.196C62.1206 121.182 62.1493 121.178 62.1767 121.184C62.204 121.19 62.2279 121.207 62.2435 121.23Z" fill="#2A2D7E"/>
<path d="M63.9401 120.28L63.6189 120.2L62.9462 120C62.8659 120 62.8258 119.88 62.8458 119.8C62.8492 119.78 62.8568 119.762 62.868 119.745C62.8793 119.728 62.894 119.715 62.9111 119.704C62.9282 119.694 62.9474 119.687 62.9673 119.685C62.9872 119.682 63.0074 119.684 63.0266 119.69L63.5888 119.82L63.8799 119.89C63.8799 119.45 63.7895 119.01 63.7393 118.57C63.738 118.55 63.7405 118.531 63.7469 118.512C63.7532 118.493 63.7632 118.476 63.7762 118.461C63.7893 118.446 63.8052 118.434 63.823 118.425C63.8408 118.416 63.8601 118.411 63.8799 118.41C63.9702 118.41 64.0204 118.48 64.0305 118.57L64.1108 119.34C64.1108 119.46 64.1108 119.59 64.1108 119.71V119.91C64.1257 119.972 64.1257 120.038 64.1108 120.1C64.1025 120.143 64.0821 120.183 64.0519 120.215C64.0216 120.247 63.9828 120.269 63.9401 120.28Z" fill="#2A2D7E"/>
<path d="M65.1248 118.56C64.9742 118.56 64.8637 118.4 64.8637 118.2C64.8637 118 64.9742 117.85 65.1248 117.85C65.2754 117.85 65.3757 118 65.3757 118.2C65.3757 118.4 65.2553 118.56 65.1248 118.56Z" fill="#2A2D7E"/>
<path d="M62.0025 118.45C62.1467 118.45 62.2636 118.289 62.2636 118.09C62.2636 117.891 62.1467 117.73 62.0025 117.73C61.8584 117.73 61.7415 117.891 61.7415 118.09C61.7415 118.289 61.8584 118.45 62.0025 118.45Z" fill="#2A2D7E"/>
<path d="M65.8075 117.33C65.6657 117.17 65.4683 117.07 65.2553 117.05C65.1403 117.043 65.0252 117.061 64.9179 117.103C64.8105 117.144 64.7133 117.208 64.6329 117.29C64.5325 117.38 64.3919 117.22 64.4923 117.12C64.5951 117.02 64.7183 116.944 64.8533 116.895C64.9884 116.847 65.1323 116.828 65.2754 116.84C65.5461 116.862 65.7979 116.988 65.9781 117.19C66.0685 117.3 65.8978 117.43 65.8075 117.33Z" fill="#2A2D7E"/>
<path d="M62.7856 117.17C62.6439 117.01 62.4465 116.91 62.2335 116.89C62.1185 116.883 62.0034 116.901 61.896 116.943C61.7886 116.984 61.6914 117.048 61.611 117.13C61.5106 117.23 61.3701 117.06 61.4705 116.96C61.5745 116.859 61.6992 116.782 61.8362 116.733C61.9731 116.685 62.1189 116.667 62.2636 116.68C62.5308 116.705 62.7785 116.83 62.9563 117.03C62.9749 117.053 62.9838 117.082 62.981 117.111C62.9782 117.14 62.9639 117.166 62.9412 117.185C62.9186 117.204 62.8895 117.212 62.8603 117.21C62.8311 117.207 62.8043 117.193 62.7856 117.17Z" fill="#2A2D7E"/>
<path d="M64.9039 149.71C66.534 149.71 67.8554 148.394 67.8554 146.77C67.8554 145.146 66.534 143.83 64.9039 143.83C63.2738 143.83 61.9523 145.146 61.9523 146.77C61.9523 148.394 63.2738 149.71 64.9039 149.71Z" fill="#FFB979"/>
<path d="M72.8148 137.74C74.4449 137.74 75.7664 136.424 75.7664 134.8C75.7664 133.176 74.4449 131.86 72.8148 131.86C71.1847 131.86 69.8633 133.176 69.8633 134.8C69.8633 136.424 71.1847 137.74 72.8148 137.74Z" fill="#FFB979"/>
<path d="M77.7943 121.68L82.6433 120L84.9724 121.7L82.4224 126.51L77.7943 121.68Z" fill="#FFB979"/>
<path d="M50.879 50.58H47.5159V61.2H50.879V50.58Z" fill="#DBD8FE"/>
<path d="M54.7943 47.9H51.4312V61.21H54.7943V47.9Z" fill="#DBD8FE"/>
<path d="M58.6996 47.9H55.3365V61.21H58.6996V47.9Z" fill="#DBD8FE"/>
<path d="M62.0216 47.7526L58.9049 49.0113L63.9256 61.346L67.0424 60.0873L62.0216 47.7526Z" fill="#DBD8FE"/>
<path d="M30.0777 147.54H26.7145V158.16H30.0777V147.54Z" fill="#DBD8FE"/>
<path d="M33.9829 144.85H30.6198V158.16H33.9829V144.85Z" fill="#DBD8FE"/>
<path d="M37.8882 144.85H34.5251V158.16H37.8882V144.85Z" fill="#DBD8FE"/>
<path d="M102.772 49C101.929 48.41 100.764 48.83 99.9209 49.41C99.7436 49.5312 99.5727 49.6614 99.4089 49.8C99.4661 48.7051 99.392 47.6074 99.188 46.53C98.9872 45.47 98.4752 44.29 97.4211 44.05C97.0312 43.9979 96.6344 44.0397 96.2641 44.172C95.8937 44.3042 95.5607 44.523 95.2928 44.81C94.0996 45.9784 93.3842 47.5463 93.2849 49.21C93.0956 48.8577 92.8479 48.5399 92.5521 48.27C92.3164 48.0403 92.0261 47.8739 91.7083 47.7864C91.3905 47.699 91.0556 47.6933 90.7349 47.77C89.731 48.07 89.3596 49.24 89.2993 50.26C89.2358 51.5924 89.4892 52.9209 90.0387 54.1373C90.5883 55.3537 91.4185 56.4237 92.4617 57.26L95.092 57.13V56.93L95.2125 57.2H95.0518C95.3752 57.3407 95.7292 57.3971 96.0805 57.3639C96.4317 57.3307 96.7687 57.2089 97.0597 57.01L98.0636 58.14C100.078 56.6453 101.729 54.7176 102.893 52.5C103.232 51.9353 103.444 51.3042 103.515 50.65C103.536 50.3355 103.479 50.0206 103.349 49.733C103.22 49.4453 103.022 49.1937 102.772 49Z" fill="#AAA9F7"/>
<path d="M102.732 53.5H91.769C91.5062 53.481 91.2423 53.5162 90.9937 53.6033C90.7452 53.6905 90.5173 53.8277 90.3244 54.0064C90.1315 54.1852 89.9776 54.4016 89.8724 54.6423C89.7671 54.8829 89.7128 55.1425 89.7128 55.405C89.7128 55.6675 89.7671 55.9271 89.8724 56.1677C89.9776 56.4084 90.1315 56.6248 90.3244 56.8035C90.5173 56.9823 90.7452 57.1195 90.9937 57.2067C91.2423 57.2938 91.5062 57.329 91.769 57.31H93.6363V61.06H101.668L102.782 57.31C103.265 57.2751 103.717 57.0592 104.047 56.7058C104.377 56.3524 104.561 55.8877 104.561 55.405C104.561 54.9223 104.377 54.4576 104.047 54.1042C103.717 53.7508 103.265 53.5349 102.782 53.5H102.732Z" fill="#DBD8FE"/>
<path d="M61.9825 68.61L63.6088 59C64.6128 52.12 69.783 51 72.1121 51H80.6555C81.6594 51 90.1728 54.58 90.9056 55.2L96.9292 48.2L100.724 50L92.6926 66.55C92.3298 67.1551 91.8079 67.65 91.1834 67.9814C90.5588 68.3127 89.8553 68.4678 89.1488 68.43H88.1448V69.85C88.1448 70.9639 87.7006 72.0322 86.9098 72.8199C86.1191 73.6075 85.0466 74.05 83.9283 74.05L81.3181 77.52L68.508 74.25L65.5665 73.91C62.6953 73.91 61.5006 71.44 61.9825 68.61Z" fill="#33CCCC"/>
<path d="M101.397 39.33C102.15 39.84 100.935 42.14 100.553 43.68C102.019 43.99 103.314 44.52 103.565 45.36C103.683 45.7882 103.702 46.2375 103.621 46.6741C103.539 47.1107 103.359 47.523 103.093 47.88C102.549 48.5942 101.866 49.1927 101.085 49.64C100.758 49.8838 100.368 50.0327 99.961 50.07C98.9571 50.07 97.0296 48.07 97.0296 48.07C97.7152 45.8061 98.5537 43.5911 99.5394 41.44C100.001 40.59 100.543 39 101.397 39.33Z" fill="#FFB979"/>
<path d="M70.1344 54.13C72.8734 54.13 75.0938 51.9183 75.0938 49.19C75.0938 46.4617 72.8734 44.25 70.1344 44.25C67.3954 44.25 65.175 46.4617 65.175 49.19C65.175 51.9183 67.3954 54.13 70.1344 54.13Z" fill="#633736"/>
<path d="M73.7617 51.9583C73.987 53.2983 75.2602 54.2026 76.6054 53.9781C77.9506 53.7536 78.8585 52.4854 78.6331 51.1455L77.9763 47.2399C77.7509 45.8999 76.4777 44.9957 75.1325 45.2201C73.7873 45.4446 72.8795 46.7128 73.1048 48.0528L73.7617 51.9583Z" fill="#FFB979"/>
<path d="M66.7913 42.05C67.0139 42.9192 67.3164 43.7661 67.6948 44.58C68.9799 47.58 71.8109 49.45 74.7223 48.96C78.226 48.37 80.515 44.58 79.8323 40.48C79.1496 36.38 75.7463 33.54 72.2828 34.12C71.3907 34.2634 70.537 34.5852 69.7731 35.066C69.0092 35.5468 68.3509 36.1766 67.8378 36.9175C67.3247 37.6584 66.9675 38.4951 66.7877 39.3772C66.6078 40.2592 66.609 41.1684 66.7913 42.05Z" fill="#633736"/>
<path d="M69.9135 43.18C69.7072 41.9613 69.9953 40.7109 70.7145 39.7039C71.4337 38.6968 72.525 38.0156 73.7485 37.81C75.0429 37.6173 76.363 37.9122 77.4508 38.6371C78.5387 39.362 79.3162 40.4647 79.6315 41.73C79.6315 41.73 81.6896 48.64 77.1518 49.65C77.1518 49.65 71.6202 51.65 70.034 43.9C69.9766 43.6632 69.9364 43.4225 69.9135 43.18Z" fill="#FFB979"/>
<path d="M70.6162 46.24C71.4424 46.24 72.1121 45.5729 72.1121 44.75C72.1121 43.9271 71.4424 43.26 70.6162 43.26C69.7901 43.26 69.1204 43.9271 69.1204 44.75C69.1204 45.5729 69.7901 46.24 70.6162 46.24Z" fill="#FFB979"/>
<path d="M73.2867 49.31C74.6121 49.9488 76.1349 50.0492 77.5333 49.59C77.7991 49.4932 78.0493 49.3585 78.2762 49.19V49.26C77.8346 49.7697 77.2909 50.1819 76.68 50.47C76.1591 50.6701 75.6015 50.7575 75.0442 50.7265C74.4868 50.6954 73.9425 50.5467 73.4473 50.29L73.2867 49.31Z" fill="#2A2D7E"/>
<path d="M74.6721 43.89C74.5918 43.64 74.3709 43.48 74.1802 43.54C74.08 43.5916 74.0034 43.6793 73.9661 43.7853C73.9287 43.8913 73.9335 44.0074 73.9794 44.11C74.0597 44.37 74.2806 44.52 74.4713 44.46C74.5733 44.4104 74.6515 44.3227 74.6891 44.2161C74.7267 44.1094 74.7206 43.9923 74.6721 43.89Z" fill="#2A2D7E"/>
<path d="M78.3063 43.16C78.3153 43.0468 78.2809 42.9344 78.2101 42.8454C78.1394 42.7564 78.0375 42.6973 77.9248 42.68C77.724 42.68 77.5634 42.9 77.5734 43.17C77.5618 43.2822 77.5939 43.3945 77.663 43.4838C77.7321 43.5732 77.833 43.6326 77.9449 43.65C78.1055 43.65 78.3063 43.43 78.3063 43.16Z" fill="#2A2D7E"/>
<path d="M78.5071 41.35C78.3748 41.2636 78.2258 41.2057 78.0696 41.1801C77.9135 41.1545 77.7537 41.1617 77.6006 41.2013C77.4474 41.2408 77.3042 41.3119 77.1803 41.4098C77.0563 41.5077 76.9543 41.6304 76.8808 41.77C76.8205 41.88 76.9912 41.98 77.0514 41.87C77.1125 41.7535 77.1974 41.6511 77.3007 41.5693C77.404 41.4875 77.5233 41.4282 77.6511 41.3953C77.7788 41.3623 77.912 41.3563 78.0422 41.3778C78.1723 41.3993 78.2965 41.4477 78.4067 41.52C78.5172 41.59 78.6175 41.42 78.5071 41.35Z" fill="#2A2D7E"/>
<path d="M73.8288 41.92C73.678 41.8683 73.518 41.8489 73.3592 41.863C73.2004 41.877 73.0463 41.9243 72.907 42.0017C72.7678 42.079 72.6465 42.1848 72.551 42.312C72.4556 42.4392 72.3881 42.5851 72.353 42.74C72.3596 42.76 72.3724 42.7774 72.3895 42.7898C72.4067 42.8021 72.4273 42.8088 72.4484 42.8088C72.4695 42.8088 72.4901 42.8021 72.5073 42.7898C72.5244 42.7774 72.5372 42.76 72.5438 42.74C72.5733 42.6116 72.6295 42.4909 72.7088 42.3855C72.7881 42.2802 72.8888 42.1926 73.0043 42.1285C73.1197 42.0644 73.2474 42.0252 73.3791 42.0134C73.5108 42.0016 73.6435 42.0175 73.7686 42.06C73.889 42.15 73.9392 42 73.8288 41.92Z" fill="#2A2D7E"/>
<path d="M77.5132 47.57C77.5935 47.48 77.453 47.35 77.3626 47.44C77.1191 47.6969 76.7929 47.8606 76.4407 47.9026C76.0885 47.9447 75.7326 47.8623 75.4351 47.67C75.3347 47.6 75.2042 47.74 75.3046 47.81C75.6416 48.0372 76.0486 48.1378 76.4531 48.0939C76.8577 48.0499 77.2334 47.8642 77.5132 47.57Z" fill="#2A2D7E"/>
<path d="M78.3063 45.16C78.243 44.9998 78.1393 44.8586 78.0051 44.75L77.5534 44.3L76.6599 43.42C76.5595 43.32 76.3888 43.42 76.4892 43.57L77.2321 44.3C77.4831 44.55 77.7542 44.78 77.9851 45.05C78.045 45.0958 78.0854 45.1623 78.0985 45.2364C78.1115 45.3105 78.0961 45.3867 78.0553 45.45C77.9695 45.5525 77.8589 45.6316 77.7341 45.68C77.4429 45.82 77.1217 45.86 76.8406 46.01C76.7201 46.07 76.8406 46.28 76.941 46.21C77.2622 46.04 77.6337 46.01 77.9449 45.82C78.2561 45.63 78.3967 45.45 78.3063 45.16Z" fill="#2A2D7E"/>
<path d="M71.0479 57.47C71.2346 59.8854 71.0621 62.3149 70.5359 64.68C70.3853 65.35 70.2046 66.01 70.0039 66.68C70.0039 66.81 69.7629 66.75 69.8031 66.68C70.5232 64.374 70.8987 61.975 70.9174 59.56C70.9174 58.88 70.9174 58.21 70.8471 57.56C70.8471 57.43 71.0379 57.43 71.0479 57.56V57.47Z" fill="#2A2D7E"/>
<path d="M83.8882 73.24C79.3103 71.45 74.8528 69.45 70.5058 67.24C69.271 66.64 68.0663 66 66.8616 65.35C66.711 65.27 66.8616 65.1 66.982 65.18C71.2186 67.47 75.6158 69.58 80.1234 71.48C81.4085 72.03 82.7035 72.55 84.0086 73.06C84.1693 73.13 84.0086 73.3 83.8882 73.24Z" fill="#2A2D7E"/>
<path d="M85.3338 57.8C85.4911 59.6373 85.9454 61.4371 86.6791 63.13C87.4294 64.9173 87.9326 66.7978 88.1749 68.72C88.2632 69.716 88.1189 70.7188 87.7533 71.65C87.7533 71.77 87.5023 71.72 87.5525 71.6C88.135 69.8467 88.1138 67.95 87.4923 66.21C86.9702 64.33 86.1872 62.54 85.635 60.66C85.3399 59.733 85.1678 58.7715 85.123 57.8C85.123 57.67 85.3238 57.67 85.3338 57.8Z" fill="#2A2D7E"/>
<path d="M79.1898 39.77C79.0661 38.9662 78.7846 38.1946 78.3614 37.4992C77.9382 36.8038 77.3816 36.1983 76.7234 35.7173C76.0652 35.2362 75.3182 34.8891 74.5253 34.6956C73.7324 34.5022 72.9089 34.4663 72.102 34.59C71.5899 34.6767 71.0884 34.8175 70.6062 35.01C70.1701 35.8355 70.0319 36.7852 70.2147 37.7C70.7166 40.28 73.5879 42.02 76.6097 41.59C77.5832 41.4612 78.5103 41.0973 79.3102 40.53C79.2851 40.2745 79.2449 40.0208 79.1898 39.77Z" fill="#633736"/>
<path d="M82.9746 78.31C84.6379 78.31 85.9864 76.9669 85.9864 75.31C85.9864 73.6531 84.6379 72.31 82.9746 72.31C81.3112 72.31 79.9628 73.6531 79.9628 75.31C79.9628 76.9669 81.3112 78.31 82.9746 78.31Z" fill="#FFB979"/>
<path d="M261.543 132.24H342.118V137.54C342.118 139.622 341.288 141.619 339.81 143.091C338.332 144.563 336.328 145.39 334.237 145.39H269.424C267.334 145.39 265.329 144.563 263.851 143.091C262.373 141.619 261.543 139.622 261.543 137.54V132.24Z" fill="#AAA9F7"/>
<path d="M321.518 140L319.249 126.56C319.249 125.446 318.805 124.378 318.014 123.59C317.223 122.803 316.151 122.36 315.032 122.36H299.612C298.615 122.361 297.65 122.715 296.891 123.36L292.595 126.57L286.571 119.57L282.796 121.34L290.878 137.89C291.241 138.495 291.763 138.99 292.387 139.321C293.012 139.653 293.715 139.808 294.422 139.77H295.426V141.19C295.426 142.304 295.87 143.372 296.661 144.16C297.451 144.948 298.524 145.39 299.642 145.39H316.96C317.633 145.386 318.296 145.237 318.905 144.952C319.515 144.668 320.054 144.255 320.488 143.743C320.921 143.23 321.238 142.63 321.415 141.984C321.593 141.338 321.628 140.661 321.518 140Z" fill="#6458E2"/>
<path d="M282.104 110.7C281.361 111.21 282.575 113.51 282.947 115.05C281.491 115.36 280.186 115.89 279.935 116.73C279.817 117.158 279.798 117.608 279.88 118.044C279.961 118.481 280.142 118.893 280.407 119.25C280.951 119.965 281.634 120.563 282.415 121.01C282.747 121.252 283.139 121.401 283.549 121.44C284.603 121.44 286.481 119.44 286.481 119.44C285.795 117.176 284.957 114.961 283.971 112.81C283.489 112 282.947 110.39 282.104 110.7Z" fill="#FFB979"/>
<path d="M312.746 119.329L303.139 118.567C301.354 118.426 299.791 119.752 299.649 121.531C299.507 123.309 300.839 124.865 302.624 125.007L312.232 125.768C314.017 125.91 315.579 124.583 315.721 122.805C315.864 121.026 314.531 119.47 312.746 119.329Z" fill="#6458E2"/>
<path d="M313.516 110.94C315.196 110.94 316.558 109.583 316.558 107.91C316.558 106.237 315.196 104.88 313.516 104.88C311.836 104.88 310.475 106.237 310.475 107.91C310.475 109.583 311.836 110.94 313.516 110.94Z" fill="#633736"/>
<path d="M310.39 119.418C310.615 118.078 309.707 116.81 308.362 116.585C307.017 116.361 305.744 117.265 305.518 118.605L304.861 122.51C304.636 123.85 305.544 125.119 306.889 125.343C308.234 125.568 309.508 124.663 309.733 123.323L310.39 119.418Z" fill="#FFB979"/>
<path d="M317.181 112.64C316.98 113.333 316.707 114.003 316.368 114.64C315.882 115.675 315.116 116.554 314.156 117.178C313.195 117.802 312.079 118.146 310.933 118.172C309.787 118.198 308.656 117.905 307.668 117.325C306.68 116.745 305.875 115.902 305.342 114.89C304.81 113.879 304.572 112.739 304.655 111.6C304.738 110.461 305.138 109.368 305.812 108.443C306.485 107.519 307.405 106.801 308.466 106.369C309.528 105.937 310.689 105.809 311.82 106C315.173 106.58 317.743 109.3 317.181 112.64Z" fill="#633736"/>
<path d="M313.587 114.55C313.79 113.33 313.499 112.08 312.779 111.073C312.058 110.067 310.966 109.386 309.742 109.18C308.448 108.992 307.13 109.289 306.043 110.013C304.956 110.737 304.178 111.837 303.859 113.1C303.859 113.1 301.851 120.01 306.348 121.02C306.348 121.02 311.87 123.02 313.466 115.27H313.406C313.488 115.036 313.549 114.795 313.587 114.55Z" fill="#FFB979"/>
<path d="M312.884 117.61C313.71 117.61 314.38 116.943 314.38 116.12C314.38 115.297 313.71 114.63 312.884 114.63C312.058 114.63 311.388 115.297 311.388 116.12C311.388 116.943 312.058 117.61 312.884 117.61Z" fill="#FFB979"/>
<path d="M305.525 112.28C307.726 112.28 309.511 110.503 309.511 108.31C309.511 106.117 307.726 104.34 305.525 104.34C303.324 104.34 301.54 106.117 301.54 108.31C301.54 110.503 303.324 112.28 305.525 112.28Z" fill="#633736"/>
<path d="M309.34 112.7C311.763 112.7 313.727 110.744 313.727 108.33C313.727 105.917 311.763 103.96 309.34 103.96C306.917 103.96 304.953 105.917 304.953 108.33C304.953 110.744 306.917 112.7 309.34 112.7Z" fill="#633736"/>
<path d="M310.214 120.68C308.892 121.319 307.372 121.42 305.977 120.96C305.711 120.863 305.461 120.728 305.234 120.56V120.63C305.682 121.137 306.228 121.549 306.84 121.84C307.361 122.04 307.919 122.128 308.476 122.096C309.033 122.065 309.578 121.917 310.073 121.66L310.214 120.68Z" fill="#2A2D7E"/>
<path d="M308.828 115.26C308.908 115.01 309.129 114.85 309.32 114.91C309.42 114.962 309.497 115.049 309.534 115.155C309.572 115.261 309.567 115.377 309.521 115.48C309.441 115.74 309.22 115.89 309.029 115.83C308.838 115.77 308.748 115.52 308.828 115.26Z" fill="#2A2D7E"/>
<path d="M305.194 114.53C305.194 114.26 305.365 114.05 305.565 114.05C305.766 114.05 305.927 114.27 305.927 114.54C305.927 114.81 305.756 115.02 305.555 115.02C305.354 115.02 305.194 114.8 305.194 114.53Z" fill="#2A2D7E"/>
<path d="M304.983 112.72C305.116 112.633 305.266 112.575 305.423 112.55C305.58 112.524 305.74 112.531 305.894 112.571C306.048 112.61 306.192 112.681 306.317 112.779C306.442 112.877 306.545 113 306.619 113.14C306.68 113.25 306.509 113.35 306.449 113.24C306.313 113.015 306.094 112.852 305.838 112.786C305.583 112.721 305.312 112.758 305.083 112.89C304.983 113 304.883 112.79 304.983 112.72Z" fill="#2A2D7E"/>
<path d="M309.671 113.29C309.821 113.24 309.979 113.222 310.136 113.236C310.294 113.25 310.446 113.295 310.585 113.37C310.722 113.449 310.843 113.554 310.939 113.679C311.036 113.804 311.106 113.947 311.147 114.1C311.147 114.23 310.987 114.28 310.956 114.16C310.927 114.032 310.871 113.911 310.791 113.806C310.712 113.7 310.611 113.613 310.496 113.549C310.38 113.484 310.253 113.445 310.121 113.433C309.989 113.422 309.857 113.437 309.732 113.48C309.707 113.485 309.681 113.482 309.66 113.469C309.638 113.457 309.622 113.436 309.614 113.412C309.606 113.389 309.608 113.363 309.619 113.34C309.629 113.317 309.648 113.3 309.671 113.29Z" fill="#2A2D7E"/>
<path d="M305.987 118.94C305.897 118.85 306.047 118.72 306.138 118.81C306.38 119.069 306.707 119.233 307.061 119.273C307.414 119.314 307.77 119.227 308.065 119.03C308.166 118.97 308.296 119.11 308.186 119.18C307.851 119.408 307.445 119.51 307.042 119.466C306.638 119.422 306.264 119.235 305.987 118.94Z" fill="#2A2D7E"/>
<path d="M305.194 116.53C305.262 116.37 305.369 116.229 305.505 116.12L305.947 115.67L306.84 114.79C306.941 114.69 307.121 114.79 307.021 114.94L306.268 115.67C306.008 115.907 305.76 116.158 305.525 116.42C305.465 116.466 305.425 116.532 305.412 116.606C305.399 116.68 305.414 116.757 305.455 116.82C305.539 116.925 305.65 117.004 305.776 117.05C306.067 117.19 306.378 117.23 306.66 117.38C306.941 117.53 306.66 117.65 306.569 117.58C306.248 117.41 305.867 117.38 305.565 117.19C305.264 117 305.104 116.82 305.194 116.53Z" fill="#2A2D7E"/>
<path d="M312.442 128.84C312.259 131.256 312.435 133.685 312.964 136.05C313.115 136.72 313.296 137.38 313.496 138.05C313.496 138.17 313.737 138.12 313.697 137.99C312.971 135.689 312.596 133.292 312.583 130.88C312.583 130.2 312.583 129.52 312.653 128.88C312.653 128.75 312.452 128.75 312.442 128.88V128.84Z" fill="#2A2D7E"/>
<path d="M300.556 141.76C304.192 141.104 307.784 140.218 311.308 139.11C312.312 138.79 313.316 138.46 314.32 138.11C314.45 138.11 314.39 137.87 314.269 137.91C310.793 139.134 307.242 140.136 303.638 140.91C302.634 141.13 301.58 141.34 300.546 141.52C300.415 141.52 300.475 141.75 300.596 141.72L300.556 141.76Z" fill="#2A2D7E"/>
<path d="M298.166 129.17C298.006 131.008 297.548 132.808 296.811 134.5C296.069 136.289 295.569 138.169 295.325 140.09C295.237 141.086 295.381 142.089 295.747 143.02C295.797 143.14 295.998 143.09 295.948 142.97C295.36 141.218 295.381 139.319 296.008 137.58C296.53 135.7 297.313 133.91 297.865 132.03C298.16 131.103 298.332 130.141 298.377 129.17C298.37 129.148 298.356 129.128 298.337 129.114C298.318 129.1 298.295 129.093 298.272 129.093C298.248 129.093 298.225 129.1 298.206 129.114C298.187 129.128 298.173 129.148 298.166 129.17Z" fill="#2A2D7E"/>
<path d="M304.11 122.24C304.086 122.961 304.314 123.669 304.755 124.241C305.197 124.814 305.823 125.216 306.529 125.38C307.315 125.541 308.129 125.506 308.898 125.277C309.667 125.049 310.367 124.634 310.936 124.07C311.087 123.94 310.936 123.68 310.746 123.81C310.252 124.304 309.652 124.68 308.991 124.911C308.331 125.141 307.626 125.219 306.931 125.14C306.234 125.054 305.594 124.716 305.131 124.191C304.668 123.665 304.416 122.989 304.421 122.29C304.421 122.09 304.12 122.04 304.11 122.24Z" fill="#2A2D7E"/>
<path d="M298.929 141.45C297.894 141.45 296.9 141.86 296.168 142.589C295.436 143.319 295.024 144.308 295.024 145.34H302.835C302.835 144.308 302.423 143.319 301.691 142.589C300.958 141.86 299.965 141.45 298.929 141.45Z" fill="#FFB979"/>
<path d="M150.88 201.33C149.688 201.41 148.575 201.956 147.785 202.849C146.995 203.743 146.592 204.911 146.664 206.1H155.087C155.158 204.913 154.757 203.746 153.969 202.853C153.181 201.959 152.071 201.412 150.88 201.33Z" fill="#6633FF"/>
<path d="M164.975 201.33C163.778 201.405 162.66 201.948 161.864 202.842C161.068 203.736 160.66 204.907 160.729 206.1H169.222C169.291 204.907 168.883 203.736 168.087 202.842C167.291 201.948 166.172 201.405 164.975 201.33Z" fill="#6633FF"/>
<path d="M215.764 202.48C214.534 202.48 213.354 202.967 212.484 203.833C211.615 204.7 211.126 205.875 211.126 207.1H220.392C220.393 206.494 220.275 205.893 220.043 205.333C219.811 204.772 219.47 204.263 219.04 203.834C218.61 203.405 218.1 203.064 217.537 202.832C216.975 202.6 216.373 202.48 215.764 202.48Z" fill="#2A2D7E"/>
<path d="M229.207 202.09C227.875 202.09 226.599 202.617 225.657 203.554C224.716 204.492 224.187 205.764 224.187 207.09H234.226C234.226 205.764 233.697 204.492 232.756 203.554C231.815 202.617 230.538 202.09 229.207 202.09Z" fill="#2A2D7E"/>
<path d="M283.168 83.75H272.948C271.534 83.75 270.388 84.8917 270.388 86.3V96.48C270.388 97.8883 271.534 99.03 272.948 99.03H283.168C284.582 99.03 285.728 97.8883 285.728 96.48V86.3C285.728 84.8917 284.582 83.75 283.168 83.75Z" fill="#6633FF"/>
<path d="M282.194 80.81C282.231 80.3187 282.166 79.8251 282.002 79.3601C281.839 78.8951 281.581 78.4687 281.244 78.1075C280.908 77.7464 280.5 77.4583 280.047 77.2613C279.594 77.0643 279.104 76.9626 278.61 76.9626C278.115 76.9626 277.626 77.0643 277.173 77.2613C276.719 77.4583 276.312 77.7464 275.975 78.1075C275.639 78.4687 275.381 78.8951 275.218 79.3601C275.054 79.8251 274.989 80.3187 275.026 80.81V88" stroke="#6633FF" stroke-width="2" stroke-linecap="round" stroke-linejoin="round"/>
<path d="M277.977 92.05C278.72 92.05 279.323 91.4501 279.323 90.71C279.323 89.9699 278.72 89.37 277.977 89.37C277.234 89.37 276.632 89.9699 276.632 90.71C276.632 91.4501 277.234 92.05 277.977 92.05Z" fill="#FCFCFC"/>
<path d="M277.566 91.14L276.632 93.82H278.961L278.399 91.14H277.566Z" fill="#FCFCFC"/>
<path d="M304.943 116.31C305.869 116.31 306.619 115.513 306.619 114.53C306.619 113.547 305.869 112.75 304.943 112.75C304.017 112.75 303.266 113.547 303.266 114.53C303.266 115.513 304.017 116.31 304.943 116.31Z" stroke="white" stroke-width="0.25" stroke-miterlimit="10"/>
<path d="M309.35 117.42C310.276 117.42 311.027 116.623 311.027 115.64C311.027 114.657 310.276 113.86 309.35 113.86C308.424 113.86 307.674 114.657 307.674 115.64C307.674 116.623 308.424 117.42 309.35 117.42Z" stroke="white" stroke-width="0.25" stroke-miterlimit="10"/>
<path d="M306.619 114.53L307.824 114.9" stroke="white" stroke-width="0.25" stroke-miterlimit="10"/>
<path d="M311.027 115.64L313.878 114.76" stroke="white" stroke-width="0.25" stroke-miterlimit="10" stroke-linecap="round"/>
<path d="M280.608 157.3C279.596 157.072 278.537 157.184 277.596 157.62C277.148 157.877 276.818 158.296 276.672 158.79C276.582 159.17 276.773 159.59 276.672 159.95C276.572 160.31 276 160.48 275.588 160.56C275.292 160.585 275.003 160.662 274.735 160.79C274.012 161.23 274.735 161.98 275.307 162.08C276.07 162.21 276.843 161.85 277.606 162.08C277.841 162.156 278.049 162.299 278.204 162.491C278.359 162.683 278.455 162.915 278.479 163.16C278.65 164.62 277.224 165.3 276.13 165.84C275.367 166.22 274.373 166.84 274.393 167.84C274.434 168.134 274.536 168.416 274.693 168.668C274.851 168.919 275.06 169.135 275.307 169.3C276.1 170 277.084 170.66 276.953 171.84C276.852 172.267 276.784 172.702 276.753 173.14C276.749 173.272 276.783 173.402 276.85 173.515C276.918 173.628 277.017 173.719 277.135 173.778C277.253 173.837 277.386 173.861 277.518 173.847C277.649 173.833 277.774 173.782 277.877 173.7C278.66 173.17 278.329 171.96 278.469 171.15C278.532 170.841 278.665 170.551 278.858 170.301C279.052 170.051 279.3 169.849 279.584 169.71C279.934 169.446 280.202 169.09 280.358 168.681C280.515 168.273 280.552 167.829 280.467 167.4C280.467 166.4 280.638 164.54 282.114 164.71C282.777 164.893 283.349 165.313 283.72 165.89C284.202 166.42 284.674 166.96 285.155 167.5V167.15C285.154 165.279 284.747 163.43 283.962 161.73C283.177 160.03 282.033 158.519 280.608 157.3Z" fill="#6633FF"/>
<path d="M263.431 171.65C263.627 170.751 263.507 169.811 263.089 168.99C263.083 168.97 263.081 168.948 263.083 168.927C263.086 168.906 263.092 168.886 263.102 168.867C263.113 168.848 263.126 168.832 263.143 168.819C263.16 168.806 263.179 168.796 263.2 168.79L266.643 167.96C267.141 167.866 267.634 167.746 268.119 167.6C268.32 167.53 268.711 167.38 268.781 167.15C268.852 166.92 268.621 166.56 268.46 166.31C267.637 165.03 268.791 163.67 269.665 162.81C270.343 162.283 270.815 161.537 271 160.7C271.041 160.483 271.025 160.259 270.955 160.049C270.884 159.839 270.762 159.651 270.598 159.502C270.434 159.353 270.235 159.248 270.019 159.197C269.803 159.146 269.577 159.15 269.364 159.21C268.561 159.428 267.736 159.552 266.904 159.58C266.023 159.469 265.166 159.219 264.364 158.84C263.812 158.61 263.22 158.36 262.617 158.16C260.697 160.159 259.467 162.715 259.106 165.458C258.745 168.2 259.272 170.986 260.609 173.41L261.051 173.22C261.955 172.89 263.029 172.64 263.431 171.65Z" fill="#6633FF"/>
<path d="M281.652 165C281.39 165.121 281.168 165.313 281.01 165.553C280.852 165.793 280.765 166.073 280.758 166.36C280.814 167.264 280.733 168.171 280.517 169.05C280.136 169.9 279.062 170.05 278.791 170.94C278.52 171.83 278.861 172.67 278.429 173.44C278.312 173.671 278.125 173.861 277.895 173.981C277.664 174.101 277.402 174.146 277.144 174.11C276.903 174.031 276.698 173.871 276.562 173.658C276.427 173.444 276.37 173.191 276.401 172.94C276.401 172.48 276.612 172.04 276.622 171.57C276.624 171.206 276.5 170.853 276.271 170.57C275.608 169.71 274.343 169.22 274.082 168.09C273.721 166.55 275.448 165.77 276.542 165.22C277.335 164.82 278.188 164.22 278.138 163.22C278.088 161.98 276.662 162.22 275.839 162.31C275.518 162.377 275.184 162.343 274.884 162.212C274.583 162.081 274.331 161.86 274.162 161.58C274.068 161.384 274.049 161.16 274.111 160.952C274.172 160.743 274.308 160.564 274.494 160.45C274.951 160.264 275.43 160.136 275.919 160.07C276.472 159.88 276.311 159.51 276.321 159.07C276.327 158.772 276.407 158.48 276.552 158.22C277.265 156.89 278.821 156.8 280.186 156.91C277.676 154.929 274.523 153.936 271.326 154.121C268.129 154.305 265.112 155.654 262.848 157.91C263.641 158.18 264.424 158.54 265.157 158.82C266.199 159.255 267.353 159.346 268.45 159.08C268.818 158.917 269.219 158.842 269.621 158.859C270.024 158.876 270.417 158.986 270.769 159.18C272.004 160.18 271.02 161.87 270.187 162.72C269.354 163.57 268.54 164.2 268.51 165.32C268.51 165.93 268.882 166.16 269.083 166.67C269.128 166.78 269.146 166.9 269.134 167.019C269.121 167.138 269.08 167.251 269.012 167.35C268.581 168.02 267.416 168.09 266.723 168.26L263.441 169.05C263.872 170.27 264.204 171.76 263.029 172.67C262.423 173.048 261.768 173.341 261.081 173.54L260.78 173.67C261.701 175.239 262.939 176.601 264.414 177.67C265.134 176.619 266.199 175.852 267.426 175.5C268.002 175.382 268.599 175.438 269.143 175.66C269.745 175.91 269.976 176.37 270.378 176.83C271.03 177.59 271.803 176.56 272.546 176.47C273.357 176.461 274.158 176.654 274.875 177.03L278.469 178.47C280.375 177.406 281.982 175.883 283.143 174.039C284.304 172.196 284.983 170.092 285.115 167.92C284.463 167.18 283.81 166.42 283.107 165.69C282.746 165.31 282.234 164.85 281.652 165Z" fill="#6633FF"/>
<path d="M275.156 177.48C274.399 177.074 273.564 176.832 272.707 176.77C272.004 176.77 271.502 177.56 270.799 177.46C270.297 177.39 270.066 176.92 269.795 176.57C269.57 176.286 269.276 176.062 268.941 175.921C268.606 175.779 268.24 175.724 267.878 175.76C267.227 175.865 266.605 176.105 266.053 176.465C265.501 176.825 265.032 177.297 264.675 177.85C266.629 179.188 268.912 179.97 271.279 180.113C273.645 180.255 276.006 179.753 278.108 178.66L275.156 177.48Z" fill="#6633FF"/>
<path d="M284.944 164.61C284.945 164.596 284.944 164.582 284.939 164.569C284.935 164.555 284.928 164.543 284.918 164.533C284.909 164.522 284.897 164.514 284.884 164.508C284.871 164.503 284.857 164.5 284.843 164.5H278.217C278.028 162.643 277.589 160.82 276.912 159.08H281.882C281.908 159.08 281.934 159.069 281.953 159.051C281.972 159.032 281.982 159.007 281.982 158.98C281.982 158.953 281.972 158.928 281.953 158.909C281.934 158.891 281.908 158.88 281.882 158.88H276.862C275.698 156.15 273.991 154.43 272.094 154.43C270.196 154.43 268.479 156.15 267.315 158.88H261.984C261.957 158.88 261.932 158.891 261.913 158.909C261.894 158.928 261.884 158.953 261.884 158.98C261.884 159.007 261.894 159.032 261.913 159.051C261.932 159.069 261.957 159.08 261.984 159.08H267.234C266.549 160.818 266.107 162.642 265.919 164.5H259.324C259.296 164.503 259.27 164.515 259.252 164.536C259.233 164.556 259.223 164.582 259.223 164.61C259.225 164.636 259.237 164.66 259.255 164.678C259.273 164.696 259.298 164.708 259.324 164.71H265.889C265.809 165.57 265.759 166.46 265.759 167.38C265.759 168.298 265.806 169.216 265.899 170.13H259.484C259.457 170.13 259.43 170.14 259.409 170.159C259.389 170.177 259.376 170.203 259.374 170.23C259.374 170.259 259.385 170.287 259.406 170.308C259.427 170.328 259.455 170.34 259.484 170.34H265.929C266.121 172.199 266.57 174.024 267.265 175.76H262.526C262.499 175.76 262.474 175.771 262.455 175.789C262.436 175.808 262.426 175.833 262.426 175.86C262.426 175.887 262.436 175.912 262.455 175.931C262.474 175.949 262.499 175.96 262.526 175.96H267.355C268.52 178.64 270.206 180.32 272.094 180.32C273.981 180.32 275.657 178.64 276.822 175.96H281.099C281.125 175.96 281.151 175.949 281.17 175.931C281.189 175.912 281.199 175.887 281.199 175.86C281.199 175.833 281.189 175.808 281.17 175.789C281.151 175.771 281.125 175.76 281.099 175.76H276.912C277.607 174.024 278.056 172.199 278.248 170.34H284.793C284.821 170.337 284.846 170.325 284.865 170.304C284.883 170.284 284.894 170.258 284.894 170.23C284.891 170.204 284.88 170.18 284.862 170.162C284.843 170.144 284.819 170.132 284.793 170.13H278.278C278.371 169.216 278.418 168.298 278.418 167.38C278.421 166.488 278.378 165.597 278.288 164.71H284.884C284.903 164.702 284.919 164.688 284.93 164.67C284.941 164.652 284.945 164.631 284.944 164.61ZM272.053 154.61C273.86 154.61 275.487 156.25 276.601 158.85H267.496C268.61 156.28 270.236 154.64 272.063 154.64L272.053 154.61ZM267.405 159.05H276.691C277.378 160.788 277.824 162.612 278.017 164.47H266.04C266.248 162.62 266.708 160.807 267.405 159.08V159.05ZM272.053 180.05C270.256 180.05 268.65 178.44 267.526 175.89H276.561C275.447 178.51 273.84 180.12 272.063 180.12L272.053 180.05ZM276.651 175.69H267.445C266.746 173.954 266.29 172.13 266.09 170.27H278.007C277.813 172.154 277.357 174.002 276.651 175.76V175.69ZM278.167 167.31C278.167 168.228 278.12 169.146 278.027 170.06H266.04C265.947 169.146 265.9 168.228 265.899 167.31C265.896 166.418 265.94 165.527 266.03 164.64H278.087C278.163 165.551 278.189 166.466 278.167 167.38V167.31Z" fill="#2A2D7E"/>
<path d="M232.951 34.58L228.544 42.86L233.995 43.16L237.098 36.35L232.951 34.58Z" fill="#FF7E00"/>
<path d="M213.856 75.5041L210.362 81.5317L213.84 83.5317L217.334 77.5041L213.856 75.5041Z" fill="#4B3EF9"/>
<path d="M230.741 77.4746L228.53 84.0769L232.339 85.3428L234.551 78.7405L230.741 77.4746Z" fill="#4B3EF9"/>
<path d="M231.616 84.52L228.805 83.11C227.474 84.7487 226.811 86.8265 226.948 88.93L237.589 89.05C237.589 89.05 237.84 84.66 231.616 84.52Z" fill="#FF7E00"/>
<path d="M213.154 82.49L211.146 80.05C209.259 81.0018 207.8 82.626 207.06 84.6L216.718 89.05C216.718 89.05 218.766 85.15 213.154 82.49Z" fill="#FF7E00"/>
<path d="M235.13 66.07H227.078V81.12H235.13V66.07Z" fill="#2A2D7E"/>
<path d="M220.061 52.33C218.959 51.6601 217.718 51.2505 216.433 51.1325C215.147 51.0145 213.852 51.1913 212.646 51.6493C211.44 52.1072 210.355 52.8342 209.475 53.7745C208.594 54.7148 207.942 55.8434 207.567 57.0738C207.193 58.3042 207.106 59.6037 207.314 60.8726C207.522 62.1416 208.019 63.3462 208.766 64.3943C209.514 65.4423 210.493 66.3059 211.627 66.9188C212.762 67.5317 214.023 67.8776 215.312 67.93L210.212 77.5L217.461 81L224.679 66.09H220.061V52.33Z" fill="#2A2D7E"/>
<path d="M159.133 135C158.981 134.989 158.83 135.019 158.694 135.086C158.558 135.152 158.443 135.254 158.36 135.38C158.279 135.49 158.45 135.61 158.52 135.5C158.584 135.405 158.671 135.328 158.773 135.276C158.874 135.223 158.988 135.197 159.102 135.2C159.211 135.208 159.317 135.242 159.409 135.299C159.502 135.357 159.579 135.436 159.634 135.53C159.647 135.554 159.669 135.573 159.695 135.582C159.721 135.591 159.75 135.591 159.775 135.58C159.791 135.562 159.799 135.539 159.799 135.515C159.799 135.491 159.791 135.468 159.775 135.45C159.71 135.331 159.618 135.228 159.507 135.15C159.395 135.072 159.267 135.021 159.133 135Z" fill="#2A2D7E"/>
<path d="M165.005 137C164.842 137.058 164.669 137.082 164.496 137.07C164.323 137.058 164.155 137.01 164.002 136.93C163.881 136.87 163.791 137.06 163.911 137.12C164.092 137.21 164.289 137.263 164.49 137.277C164.692 137.29 164.894 137.264 165.086 137.2C165.216 137.11 165.136 136.92 165.005 137Z" fill="#702D33"/>
<path d="M163.633 134.853C163.807 134.819 163.91 134.595 163.863 134.351C163.817 134.106 163.637 133.935 163.463 133.969C163.289 134.002 163.185 134.227 163.232 134.471C163.279 134.715 163.458 134.886 163.633 134.853Z" fill="#2A2D7E"/>
<path d="M161.191 145.09C162.787 145.09 164.082 143.801 164.082 142.21C164.082 140.619 162.787 139.33 161.191 139.33C159.594 139.33 158.299 140.619 158.299 142.21C158.299 143.801 159.594 145.09 161.191 145.09Z" fill="#B2575C"/>
<path d="M163.72 139.47L161.351 139.19C162.163 139.672 163.001 140.109 163.861 140.5L163.72 139.47Z" fill="#2A2D7E"/>
<path d="M158.42 155.12C159.371 157.052 160.934 158.619 162.867 159.58C163.749 160.055 164.669 160.456 165.618 160.78C166.542 161.068 167.485 161.295 168.439 161.46C168.911 161.55 169.112 160.83 168.64 160.73C166.811 160.411 165.039 159.829 163.379 159C161.502 158.105 159.984 156.604 159.072 154.74C158.872 154.31 158.219 154.69 158.42 155.12Z" fill="#231761"/>
<path d="M164.724 148.37C166.064 150.906 168.124 152.993 170.648 154.37C171.079 154.61 171.461 153.96 171.029 153.73C168.611 152.396 166.642 150.383 165.367 147.94C165.146 147.52 164.493 147.94 164.724 148.32V148.37Z" fill="#231761"/>
<path d="M168.158 147.5C168.237 149.07 168.21 150.644 168.078 152.21C168.078 152.7 168.79 152.69 168.83 152.21C168.963 150.644 168.989 149.07 168.911 147.5C168.911 147.02 168.138 147.02 168.158 147.5Z" fill="#231761"/>
<path d="M214.72 53.49H226.185C228.555 53.49 230.827 54.4277 232.503 56.0967C234.178 57.7658 235.12 60.0296 235.12 62.39V66.73H214.72V53.49Z" fill="#2A2D7E"/>
<path d="M232.73 41.54C231.656 41.95 221.175 38.26 219.448 38.26H211.056C204.912 38.26 203.747 43.14 202.131 45.79C201.528 46.6592 201.145 47.6612 201.016 48.71C200.896 50.35 201.016 52.84 203.185 53.65C208.706 55.71 220.593 53.42 220.593 53.42L221.276 44.64C222.862 44.81 230.12 47.64 231.104 47.2C232.088 46.76 233.483 41.25 232.73 41.54Z" fill="#FF7E00"/>
<path d="M211.136 32.8C211.215 32.6748 211.318 32.5665 211.439 32.4811C211.56 32.3957 211.696 32.335 211.841 32.3025C211.986 32.2699 212.135 32.2662 212.281 32.2915C212.427 32.3169 212.567 32.3707 212.692 32.45C212.809 32.528 212.911 32.6262 212.993 32.74C214.539 32.74 217.531 30.35 218.264 28.58C218.596 28.8776 218.862 29.2415 219.043 29.6482C219.225 30.0548 219.318 30.4949 219.318 30.94V34.71C219.328 35.0981 219.256 35.4841 219.105 35.8423C218.955 36.2006 218.73 36.523 218.445 36.7885C218.161 37.0539 217.823 37.2564 217.454 37.3824C217.086 37.5085 216.694 37.5554 216.306 37.52L215.905 37.45V38.66C215.905 39.1692 215.702 39.6575 215.34 40.0176C214.979 40.3777 214.488 40.58 213.977 40.58C213.466 40.58 212.976 40.3777 212.614 40.0176C212.253 39.6575 212.05 39.1692 212.05 38.66V34.8C212.04 34.7069 212.04 34.613 212.05 34.52C211.847 34.5143 211.65 34.4556 211.477 34.35C211.352 34.2707 211.245 34.1677 211.16 34.0468C211.075 33.9259 211.015 33.7896 210.984 33.6456C210.952 33.5015 210.949 33.3527 210.975 33.2076C211.001 33.0625 211.056 32.924 211.136 32.8Z" fill="#FFB979"/>
<path d="M220.553 47.88C218.179 48.5761 215.727 48.9725 213.254 49.06C211.076 49.14 208.134 49.31 206.397 47.77C206.247 47.63 206.016 47.86 206.167 47.99C207.873 49.5 210.574 49.43 212.722 49.39C215.401 49.347 218.062 48.9433 220.633 48.19C220.674 48.1794 220.71 48.1529 220.731 48.1163C220.753 48.0797 220.759 48.0361 220.749 47.995C220.738 47.9539 220.711 47.9187 220.675 47.8971C220.638 47.8755 220.594 47.8694 220.553 47.88Z" fill="#2A2D7E"/>
<path d="M212.602 35.41C212.602 35.34 212.441 35.41 212.481 35.47C212.658 35.773 212.878 36.0491 213.134 36.29C213.766 37.52 215.955 38.1 215.955 38.1V37.46C216.29 37.4758 216.627 37.4591 216.959 37.41C217.039 37.41 217.009 37.28 216.959 37.3C216.302 37.4076 215.629 37.3634 214.992 37.171C214.355 36.9785 213.771 36.6429 213.284 36.19C213.021 35.9632 212.791 35.7006 212.602 35.41Z" fill="#2A2D7E"/>
<path d="M216.206 32.43C216.206 32.23 216.035 32.09 215.895 32.11C215.754 32.13 215.654 32.31 215.674 32.5C215.694 32.69 215.844 32.84 215.995 32.82C216.074 32.7946 216.14 32.7399 216.179 32.6672C216.218 32.5945 216.228 32.5095 216.206 32.43Z" fill="#2A2D7E"/>
<path d="M218.856 32.33C218.878 32.2505 218.869 32.1655 218.829 32.0928C218.79 32.0201 218.724 31.9654 218.645 31.94C218.505 31.94 218.364 32.06 218.334 32.25C218.304 32.44 218.394 32.62 218.545 32.64C218.696 32.66 218.856 32.53 218.856 32.33Z" fill="#2A2D7E"/>
<path d="M219.037 31.05C218.951 30.9732 218.852 30.9142 218.743 30.8764C218.634 30.8386 218.519 30.8228 218.404 30.83C218.288 30.8405 218.175 30.8753 218.073 30.9322C217.971 30.9891 217.882 31.0667 217.812 31.16C217.752 31.23 217.812 31.32 217.912 31.25C217.972 31.1773 218.045 31.1171 218.128 31.0731C218.211 31.0291 218.302 31.0021 218.395 30.9937C218.489 30.9853 218.583 30.9957 218.673 31.0242C218.762 31.0528 218.845 31.099 218.916 31.16C219.017 31.22 219.107 31.11 219.037 31.05Z" fill="#2A2D7E"/>
<path d="M217.852 35.44C217.922 35.38 217.852 35.27 217.762 35.33C217.553 35.4845 217.296 35.562 217.037 35.5492C216.777 35.5364 216.529 35.4342 216.336 35.26C216.266 35.2 216.156 35.26 216.226 35.35C216.443 35.5534 216.725 35.674 217.023 35.6904C217.32 35.7069 217.614 35.6182 217.852 35.44Z" fill="#2A2D7E"/>
<path d="M212.411 32.82C212.511 32.82 212.481 32.69 212.411 32.67C211.748 32.55 211.347 32.91 211.467 33.53C211.467 33.62 211.648 33.67 211.628 33.53C211.497 33 211.829 32.71 212.411 32.82Z" fill="#2A2D7E"/>
<path d="M218.685 33.79C218.655 33.6652 218.597 33.5489 218.515 33.45L218.244 33.08L217.702 32.33C217.641 32.24 217.501 32.33 217.561 32.41L218.013 33.03C218.163 33.24 218.334 33.45 218.465 33.67C218.501 33.7117 218.52 33.765 218.52 33.82C218.52 33.8751 218.501 33.9283 218.465 33.97C218.386 34.0291 218.298 34.0731 218.204 34.1C217.973 34.16 217.742 34.1 217.521 34.22C217.3 34.34 217.461 34.42 217.521 34.38C217.772 34.3 218.053 34.32 218.304 34.22C218.555 34.12 218.716 34 218.685 33.79Z" fill="#2A2D7E"/>
<path d="M209.379 30.71V33.71C209.381 34.5139 209.639 35.2963 210.118 35.9437C210.596 36.5911 211.269 37.0697 212.039 37.31V34.81C212.035 34.7134 212.035 34.6166 212.039 34.52C211.836 34.5224 211.636 34.4632 211.467 34.35C211.337 34.2737 211.224 34.1722 211.134 34.0515C211.045 33.9308 210.98 33.7933 210.945 33.6473C210.91 33.5012 210.904 33.3496 210.929 33.2015C210.954 33.0533 211.008 32.9116 211.089 32.7848C211.17 32.658 211.275 32.5487 211.399 32.4633C211.524 32.378 211.664 32.3184 211.811 32.2881C211.959 32.2578 212.111 32.2574 212.259 32.287C212.407 32.3165 212.547 32.3753 212.672 32.46C212.791 32.5343 212.897 32.6291 212.983 32.74C214.529 32.74 217.521 30.36 218.254 28.59C218.499 28.8144 218.708 29.0739 218.876 29.36C219.158 29.8467 219.307 30.3983 219.308 30.96V33.55C219.513 33.3492 219.676 33.1094 219.786 32.8449C219.896 32.5804 219.952 32.2964 219.95 32.01V30C220.894 28.84 220.673 23.95 216.105 26.54L215.965 26.62H215.523H213.124C212.919 26.6213 212.714 26.638 212.511 26.67C212.39 26.3038 212.199 25.9642 211.949 25.67C211.622 25.3133 211.213 25.0406 210.757 24.8751C210.302 24.7095 209.813 24.6561 209.332 24.7193C208.851 24.7825 208.392 24.9605 207.995 25.2381C207.598 25.5157 207.274 25.8847 207.051 26.3137C206.828 26.7427 206.712 27.2191 206.714 27.7022C206.715 28.1854 206.834 28.6611 207.059 29.0888C207.285 29.5165 207.611 29.8836 208.01 30.1589C208.408 30.4342 208.868 30.6096 209.349 30.67L209.379 30.71Z" fill="#D37552"/>
<path d="M220.432 53.07C221.94 53.07 223.163 51.8522 223.163 50.35C223.163 48.8478 221.94 47.63 220.432 47.63C218.924 47.63 217.702 48.8478 217.702 50.35C217.702 51.8522 218.924 53.07 220.432 53.07Z" fill="#FFB979"/>
<path d="M221.527 42.52H237.83C238.195 42.52 238.545 42.6643 238.803 42.9212C239.061 43.1782 239.206 43.5266 239.206 43.89V55.27H220.131V43.89C220.131 43.7084 220.167 43.5286 220.238 43.361C220.308 43.1935 220.411 43.0416 220.541 42.9141C220.671 42.7866 220.825 42.6861 220.994 42.6185C221.163 42.5508 221.344 42.5173 221.527 42.52Z" fill="#C6CBE0"/>
<path d="M239.196 55.1H220.151V56.57H239.196V55.1Z" fill="#A1A4AD"/>
<path d="M229.679 49.99C230.283 49.99 230.773 49.502 230.773 48.9C230.773 48.298 230.283 47.81 229.679 47.81C229.074 47.81 228.584 48.298 228.584 48.9C228.584 49.502 229.074 49.99 229.679 49.99Z" fill="#FCFCFC"/>
<path d="M235.17 37.55C236.678 37.55 237.901 36.3322 237.901 34.83C237.901 33.3278 236.678 32.11 235.17 32.11C233.662 32.11 232.439 33.3278 232.439 34.83C232.439 36.3322 233.662 37.55 235.17 37.55Z" fill="#FFB979"/>
<path d="M182.594 162.23C184.102 162.23 185.325 161.012 185.325 159.51C185.325 158.008 184.102 156.79 182.594 156.79C181.086 156.79 179.864 158.008 179.864 159.51C179.864 161.012 181.086 162.23 182.594 162.23Z" fill="#FFB979"/>
<path d="M189.662 141.32C190.124 141.95 188.457 143.47 187.654 144.62C188.758 145.3 189.662 146.1 189.662 146.87C189.633 147.255 189.516 147.629 189.319 147.962C189.123 148.295 188.852 148.578 188.528 148.79C187.879 149.213 187.152 149.503 186.389 149.64C186.06 149.727 185.714 149.727 185.385 149.64C184.522 149.33 183.578 147.17 183.578 147.17C184.809 145.522 186.151 143.958 187.594 142.49C188.146 141.93 189.04 140.81 189.662 141.32Z" fill="#FFB979"/>
<path d="M186.168 151.46L185.064 145.46L184.06 145.71C170.868 149.04 166.25 139.97 161.923 140.89C156 140.84 153.581 144.33 152.587 150.14C151.583 155.74 149.846 160.65 149.073 165.37C150.991 168.24 163.901 170.68 166.672 169.17C169.443 167.66 168.891 164.71 168.579 161.07C172.163 161.64 177.615 162.42 181.239 162.99C181.932 161.53 182.032 157.52 182.725 156.07C178.338 156.07 171.401 155.34 168.439 152.37C174.804 152.39 176.691 154.83 186.168 151.46Z" fill="#FF7E00"/>
<path d="M165.819 127.11C165.545 126.597 165.138 126.166 164.64 125.863C164.143 125.56 163.572 125.395 162.989 125.386C162.406 125.376 161.831 125.523 161.324 125.811C160.817 126.098 160.396 126.516 160.106 127.02C159.88 126.99 159.65 126.99 159.424 127.02C158.811 127.092 158.246 127.386 157.838 127.848C157.43 128.31 157.208 128.905 157.215 129.52C156.918 129.439 156.607 129.419 156.301 129.46C155.975 129.498 155.659 129.601 155.373 129.761C155.086 129.921 154.834 130.136 154.63 130.393C154.427 130.65 154.277 130.945 154.188 131.26C154.099 131.575 154.074 131.905 154.113 132.23C154.143 132.52 154.228 132.802 154.364 133.06C154.239 133.213 154.146 133.389 154.091 133.578C154.036 133.766 154.019 133.965 154.043 134.16C154.082 134.455 154.209 134.732 154.407 134.955C154.606 135.178 154.867 135.336 155.157 135.41C156.022 136.71 157.089 137.865 158.319 138.83C158.56 138.94 158.691 139.18 159.383 138.67C159.715 138.43 159.634 137.52 159.584 136.78C159.458 136.844 159.323 136.888 159.183 136.91C158.859 136.948 158.534 136.857 158.278 136.657C158.022 136.456 157.856 136.162 157.817 135.84C157.779 135.518 157.87 135.193 158.072 134.938C158.273 134.683 158.568 134.518 158.892 134.48C159.206 134.446 159.521 134.532 159.775 134.72C160.002 134.25 160.348 133.846 160.779 133.55C161.371 133.13 162.044 132.82 162.596 132.34C162.749 132.201 162.887 132.047 163.008 131.88C163.498 131.861 163.978 131.735 164.413 131.51C164.796 131.313 165.136 131.044 165.414 130.716C165.692 130.388 165.902 130.009 166.033 129.601C166.163 129.192 166.212 128.761 166.175 128.334C166.138 127.907 166.017 127.491 165.819 127.11Z" fill="#D37552"/>
<path d="M165.959 133.46L165.096 133.26C164.855 132.674 164.515 132.133 164.092 131.66C163.751 131.788 163.392 131.859 163.028 131.87C162.907 132.037 162.769 132.191 162.616 132.33C162.064 132.81 161.391 133.12 160.799 133.54C160.368 133.836 160.022 134.24 159.795 134.71C159.541 134.522 159.226 134.436 158.912 134.47C158.588 134.508 158.293 134.673 158.092 134.928C157.89 135.183 157.799 135.508 157.837 135.83C157.876 136.152 158.042 136.446 158.298 136.647C158.554 136.847 158.879 136.938 159.203 136.9C159.343 136.878 159.478 136.834 159.604 136.77C159.604 137.51 159.735 138.42 159.404 138.66C159.215 138.839 158.97 138.948 158.711 138.97C158.816 139.041 158.927 139.105 159.042 139.16L158.49 141.23C158.279 141.836 158.279 142.494 158.49 143.1C158.718 143.774 159.189 144.34 159.811 144.689C160.434 145.038 161.164 145.145 161.861 144.99C162.558 144.835 163.172 144.428 163.586 143.848C164 143.268 164.184 142.557 164.102 141.85L163.771 139.48C164.775 139.53 165.628 139.71 166.2 139.05C166.456 138.767 166.632 138.422 166.712 138.05C166.809 137.659 166.784 137.247 166.642 136.87L166.1 135.45C167.425 134.54 166.993 133.63 165.959 133.46Z" fill="#FFB979"/>
<path d="M163.861 140.5L163.72 139.5L161.351 139.22C162.164 139.691 163.002 140.119 163.861 140.5Z" fill="#1B1464"/>
<path d="M158.52 135.45C158.584 135.355 158.671 135.278 158.773 135.226C158.875 135.173 158.988 135.147 159.102 135.15C159.211 135.158 159.317 135.192 159.409 135.249C159.502 135.307 159.579 135.386 159.634 135.48C159.647 135.504 159.669 135.523 159.695 135.532C159.721 135.541 159.75 135.541 159.775 135.53C159.791 135.512 159.799 135.489 159.799 135.465C159.799 135.441 159.791 135.418 159.775 135.4C159.705 135.274 159.606 135.168 159.485 135.089C159.364 135.011 159.226 134.963 159.082 134.95C158.931 134.939 158.78 134.969 158.644 135.036C158.508 135.102 158.393 135.204 158.309 135.33C158.279 135.44 158.45 135.56 158.52 135.45Z" fill="#1B1464"/>
<path d="M165.086 137.16C165.216 137.16 165.136 136.92 165.005 136.96C164.842 137.018 164.669 137.042 164.496 137.03C164.323 137.018 164.155 136.97 164.002 136.89C163.881 136.83 163.791 137.02 163.911 137.08C164.092 137.17 164.289 137.223 164.49 137.237C164.692 137.25 164.894 137.224 165.086 137.16Z" fill="#1B1464"/>
<path d="M163.64 134.85C163.811 134.85 163.911 134.59 163.871 134.35C163.831 134.11 163.64 133.93 163.469 133.96C163.299 133.99 163.198 134.22 163.249 134.47C163.299 134.72 163.459 134.89 163.64 134.85Z" fill="#1B1464"/>
<path d="M168.569 160.94C167.71 160.788 166.858 160.591 166.019 160.35C165.168 160.081 164.339 159.747 163.54 159.35C161.524 158.441 159.884 156.87 158.892 154.9C158.811 154.72 158.51 154.82 158.6 155C159.562 156.966 161.161 158.551 163.138 159.5C163.985 159.939 164.865 160.313 165.768 160.62C166.666 160.886 167.578 161.103 168.499 161.27C168.521 161.275 168.543 161.275 168.565 161.271C168.587 161.267 168.608 161.258 168.627 161.246C168.645 161.234 168.661 161.219 168.674 161.2C168.687 161.182 168.695 161.162 168.7 161.14C168.705 161.118 168.705 161.096 168.701 161.074C168.697 161.052 168.688 161.032 168.676 161.013C168.664 160.995 168.648 160.978 168.63 160.966C168.612 160.953 168.591 160.945 168.569 160.94Z" fill="#1B1464"/>
<path d="M170.909 154C170.072 153.533 169.285 152.984 168.559 152.36C168.567 152.343 168.571 152.324 168.571 152.305C168.571 152.286 168.567 152.267 168.559 152.25C168.691 150.684 168.718 149.11 168.64 147.54C168.631 147.506 168.611 147.475 168.583 147.453C168.554 147.431 168.52 147.42 168.484 147.42C168.448 147.42 168.414 147.431 168.386 147.453C168.357 147.475 168.337 147.506 168.328 147.54C168.4 149.073 168.377 150.61 168.258 152.14C166.981 151.005 165.92 149.65 165.126 148.14C165.036 147.96 164.775 148.14 164.865 148.31C166.18 150.841 168.216 152.928 170.718 154.31C170.949 154.34 171.089 154.06 170.909 154Z" fill="#1B1464"/>
</g>
</g>
<defs>
<clipPath id="clip0">
<rect width="362" height="216" fill="white"/>
</clipPath>
<clipPath id="clip1">
<rect width="363" height="216" fill="white"/>
</clipPath>
</defs>
</svg>
