<?xml version="1.0" encoding="utf-8"?>
<!-- Generator: Adobe Illustrator 24.2.0, SVG Export Plug-In . SVG Version: 6.00 Build 0)  -->
<svg version="1.1" id="Layer_1" xmlns="http://www.w3.org/2000/svg" xmlns:xlink="http://www.w3.org/1999/xlink" x="0px" y="0px"
	 viewBox="0 0 200 200" enable-background="new 0 0 200 200" xml:space="preserve">
<path fill="#101010" d="M63.4,180.8v9.2h-18v-19.9c4.5,3.3,9.4,6.3,14.7,9.1C61.2,179.7,62.3,180.3,63.4,180.8z"/>
<path fill="#101010" d="M90.2,75.4c-2.8,1-5.3,2.5-7.6,4.4c-3.1,2.6-5.8,6-8.1,10.3c-0.2,0.3-0.4,0.6-0.5,1
	c-4.7,8.9-7.8,21.1-9.3,36.3c-0.3,3.2-0.6,6.4-0.8,9.9c-0.1,1.9-0.2,3.9-0.2,5.9c-3.1-2.4-5.9-5-8.2-7.7c-1.3-1.5-2.4-3.1-3.5-4.6
	c-1.9-3-3.6-6.2-4.8-9.6c2.7-22.1,8.7-38.5,18.1-49.5c2.1,0.1,4.2,0.3,6.2,0.5C78.4,73,84.6,74,90.2,75.4z"/>
<path fill="#101010" d="M29.5,46c-3.4,4.6-6.4,9.5-9.1,14.7c-0.5,1.1-1.1,2.2-1.6,3.3H9.4V46H29.5z"/>
<path fill="#101010" d="M127.7,65.8c-0.2,2.1-0.3,4.2-0.5,6.2c-0.1,1.3-0.3,2.6-0.4,3.9c-0.4,3.1-0.9,6-1.4,8.7
	c-0.4,2.2-0.9,4.2-1.3,6.2c-0.2-0.6-0.5-1.3-0.8-1.9c-0.3-0.7-0.6-1.3-1-1.9v0c-0.4-0.6-0.8-1.3-1.2-1.9c-0.3-0.4-0.6-0.9-1-1.3
	c-0.1-0.2-0.3-0.4-0.5-0.6c-2.8-3.3-6.6-6.2-11.3-8.7c-8.8-4.6-21-7.7-36.1-9.3c-1.6-0.2-3.2-0.3-4.9-0.4c-0.7-0.1-1.4-0.1-2.1-0.1
	c-0.7,0-1.4-0.1-2.1-0.1c-0.3,0-0.6-0.1-0.9-0.1c-0.5,0-1-0.1-1.5-0.1c-1-0.1-1.9-0.1-3-0.1c-0.4,0-0.9,0-1.4,0
	c2.3-3.1,4.9-5.8,7.7-8.2c1.6-1.3,3.1-2.4,4.6-3.4l0,0l0.2,0c2.9-1.9,6.1-3.6,9.5-4.8c2.7,0.3,5.4,0.7,8,1.2
	c0.6,0.1,1.3,0.2,1.9,0.4c0.7,0.1,1.4,0.3,2.1,0.4c1.3,0.3,2.5,0.5,3.7,0.8c0.7,0.2,1.4,0.3,2.1,0.5c0.9,0.2,1.9,0.5,2.8,0.7
	c0.7,0.2,1.4,0.4,2.1,0.6c1.1,0.3,2.1,0.6,3.2,1c0.9,0.3,1.7,0.6,2.5,0.9c0.3,0.1,0.6,0.2,0.9,0.3c0.9,0.3,1.8,0.7,2.6,1
	c1,0.4,1.9,0.8,2.9,1.3c0.5,0.2,0.9,0.4,1.4,0.6c0.5,0.2,0.9,0.4,1.4,0.7l2.6,1.4c1.7,0.9,3.3,2,4.9,3.1c0.8,0.5,1.5,1.1,2.3,1.7
	C126.3,64.7,127.1,65.2,127.7,65.8z"/>
<path fill="#101010" d="M151.8,78.9c-0.4,3.2-0.8,6.3-1.4,9.3c0,0.2,0,0.4-0.1,0.5v0c0,0,0,0,0,0.1c0,0,0,0.1,0,0.1
	c-0.2,1.1-0.4,2.1-0.6,3.2c-0.6,3.1-1.4,6-2.2,8.8c-0.1,0.6-0.3,1.2-0.5,1.8c-0.2,0.6-0.4,1.2-0.6,1.8c0,0,0,0.1,0,0.1
	c-0.2,0.6-0.4,1.3-0.6,1.9c-0.1,0.5-0.3,1-0.5,1.5c-0.2,0.5-0.4,1-0.6,1.5c-0.1,0.3-0.3,0.6-0.4,1c-0.1,0.1-0.1,0.3-0.2,0.4
	c-0.2,0.5-0.4,0.9-0.6,1.4c-0.3,0.6-0.5,1.2-0.8,1.8c-0.1,0.2-0.1,0.4-0.3,0.5c0,0,0,0,0,0.1c-0.3,0.6-0.6,1.3-0.9,1.9
	c-0.3,0.6-0.7,1.3-1,1.9c-0.4,0.6-0.7,1.3-1.1,1.9c-0.1,0.2-0.2,0.4-0.3,0.6c-0.1,0.1-0.2,0.3-0.3,0.4c-0.3,0.5-0.5,0.9-0.9,1.4
	c-0.3,0.5-0.6,0.9-0.9,1.3c-0.2,0.3-0.4,0.5-0.6,0.8c0,0,0,0-0.1,0.1c-0.4,0.5-0.8,1-1.1,1.5c-0.5,0.6-1,1.2-1.5,1.8
	c-2.1-0.1-4.1-0.3-6.1-0.5h-0.1c-7-0.7-13.2-1.8-18.8-3.1c0.1,0,0.3-0.1,0.4-0.2c0.3-0.1,0.5-0.2,0.8-0.3c0.3-0.1,0.5-0.2,0.8-0.4
	c0.6-0.3,1.2-0.6,1.8-0.9c0.7-0.4,1.3-0.8,2-1.3c0.6-0.4,1.3-0.9,1.9-1.4c0.8-0.7,1.7-1.4,2.4-2.3c0.5-0.5,0.9-1,1.4-1.6
	c0.4-0.4,0.7-0.9,1.1-1.4c0.3-0.4,0.6-0.8,0.8-1.2c0.4-0.6,0.9-1.3,1.3-1.9c0.4-0.6,0.8-1.3,1.2-2c0,0,0,0,0-0.1
	c0.2-0.3,0.3-0.6,0.5-0.9c0,0,0,0,0-0.1c0.4-0.8,0.8-1.5,1.2-2.4c0.4-0.8,0.7-1.5,1-2.4c0.2-0.4,0.3-0.8,0.5-1.2
	c0.1-0.4,0.3-0.8,0.5-1.3c0.2-0.6,0.4-1.2,0.6-1.8c0.5-1.4,0.9-2.8,1.3-4.3c0.2-0.5,0.3-1,0.4-1.5c0.1-0.5,0.3-1,0.4-1.5
	c0.3-1,0.5-2.1,0.8-3.2c0.3-1.1,0.5-2.2,0.7-3.3c0.2-1,0.4-2.1,0.6-3.2c0-0.2,0.1-0.5,0.1-0.7c0.1-0.7,0.3-1.4,0.3-2.1
	c0-0.2,0-0.3,0.1-0.5c0.1-0.6,0.2-1.3,0.3-1.9c0.2-1.5,0.4-3.1,0.5-4.8c0.3-3.2,0.6-6.5,0.8-9.9v-0.4c0-0.8,0.1-1.7,0.1-2.5
	c0-1,0.1-2,0.1-3c3.1,2.4,5.8,5,8.1,7.7c1.3,1.5,2.4,3,3.5,4.7C148.9,72.3,150.5,75.5,151.8,78.9z"/>
<path fill="#101010" d="M153.4,10v19.9c-4.6-3.4-9.5-6.4-14.8-9.1c-1.1-0.5-2.2-1.1-3.2-1.6V10H153.4z"/>
<path fill="#101010" d="M142.4,136c-2.3,3.1-4.9,5.8-7.7,8.2c-1.5,1.3-3.1,2.4-4.6,3.4c-3,2-6.2,3.6-9.6,4.9h0
	c-22-2.7-38.3-8.7-49.2-18.2c0.1-2.1,0.3-4.2,0.5-6.2c0.7-7,1.7-13.3,3.1-18.8c1,2.8,2.5,5.4,4.5,7.7c2.7,3.1,6.2,5.9,10.5,8.2
	c0.3,0.2,0.6,0.3,1,0.5c0,0,0,0,0,0c8.8,4.6,20.9,7.7,35.9,9.2h0c3.2,0.3,6.4,0.6,9.8,0.8C138.4,135.9,140.4,135.9,142.4,136z"/>
<path fill="#101010" d="M189.4,136.1v18h-20.1c3.3-4.5,6.4-9.4,9.1-14.7c0.5-1.1,1.1-2.2,1.6-3.3H189.4z"/>
<path fill="#101010" d="M85.3,38.2c0,0-0.1,0-0.1,0c-1.5,0.3-3,0.6-4.4,1c-0.7,0.2-1.4,0.4-2.2,0.6c-0.4,0.1-0.8,0.3-1.2,0.4
	c-1.1,0.4-2.2,0.8-3.3,1.3C73,42,72,42.5,70.9,43c-0.1,0.1-0.3,0.1-0.4,0.2c-0.8,0.4-1.7,0.9-2.4,1.3c-1.1,0.6-2.2,1.3-3.2,2h0
	c-1.9,1.2-3.6,2.5-5.4,4c-4.4,3.7-8.4,8.2-11.8,13.5c-0.6,1-1.3,2-1.9,3.1c-0.8,1.3-1.6,2.7-2.3,4.1c-1.3,2.4-2.4,4.9-3.6,7.6
	c-0.4,0.9-0.8,1.8-1.1,2.8c-0.3,0.7-0.6,1.5-0.9,2.2c-0.1,0.2-0.1,0.4-0.2,0.6v0c-5.5,15.1-8.7,33.6-9.8,55.2
	c-0.1,2.3-0.2,4.6-0.3,7c0,1.9-0.1,3.8-0.1,5.7c0,1,0,2,0,3v9.5h-18v-9.5c0-3.1,0-6.2,0.1-9.1c0-1.7,0.1-3.2,0.1-4.9
	c0-1.7,0.1-3.4,0.3-5c0.1-1.9,0.2-3.7,0.4-5.5c0.1-1.7,0.3-3.4,0.4-5.1l0.1-1.4c0.1-1.5,0.3-3.1,0.5-4.6c0.2-1.4,0.4-2.8,0.5-4.2
	c0.3-2,0.5-3.9,0.9-5.8c0.3-1.9,0.6-3.9,1-5.7c1-5.3,2.2-10.3,3.5-15.2c0.4-1.5,0.9-3.1,1.4-4.6c0.5-1.5,0.9-3,1.5-4.4
	c0.5-1.5,1-2.9,1.6-4.3c0.5-1.4,1.1-2.8,1.7-4.1c1-2.5,2.2-4.9,3.3-7.2c3.4-6.7,7.4-12.7,11.8-18c1-1.2,2-2.3,3.1-3.4
	c0.2-0.2,0.4-0.4,0.6-0.6c1-1.1,2.1-2.1,3.1-3.1l0.1-0.1c0.8-0.7,1.5-1.4,2.3-2.1c0.6-0.5,1.2-1,1.8-1.5h0c3.2,0,6.5,0.2,9.9,0.3
	C68.7,36,77.4,36.9,85.3,38.2z"/>
<path fill="#101010" d="M164.2,50.2c0,3.5-0.1,6.8-0.3,9.9c-0.5,9.1-1.3,17.7-2.6,25.7c0-0.2-0.1-0.4-0.1-0.6
	c-0.3-1.2-0.5-2.3-0.8-3.4c0-0.2-0.1-0.4-0.1-0.5c-0.1-0.6-0.3-1.1-0.5-1.7c-0.2-0.5-0.4-1-0.5-1.6V78c-0.4-1-0.7-2-1.1-3
	c0-0.1-0.1-0.2-0.1-0.3c-0.4-1.1-0.9-2.2-1.4-3.2c-0.4-0.8-0.8-1.6-1.2-2.4c-0.7-1.3-1.4-2.5-2.2-3.7c-1.2-1.9-2.6-3.7-4-5.4
	c-3.7-4.4-8.2-8.4-13.5-11.8c-1.1-0.7-2.2-1.4-3.3-2.1c-1.2-0.7-2.5-1.4-3.8-2.1c-1.1-0.6-2.3-1.2-3.4-1.7c-0.5-0.3-1-0.5-1.6-0.7
	c-1.1-0.5-2.2-1-3.3-1.4c-1.4-0.6-3-1.2-4.5-1.7v0c-0.2-0.1-0.4-0.1-0.6-0.2c-15-5.4-33.5-8.7-55-9.8c-2.4-0.1-4.8-0.2-7.2-0.3
	c-0.5,0-1.1,0-1.6,0C50.1,28,49,28,48,28h-0.8c-1,0-2,0-3.1,0h-9.5V10h9.5c1.8,0,3.6,0,5.4,0.1c1.3,0,2.5,0,3.7,0.1h0.5
	c1.5,0,3,0.1,4.4,0.1c1.9,0.1,3.7,0.2,5.6,0.3c0.9,0.1,1.8,0.1,2.7,0.2c1.3,0.1,2.7,0.2,4,0.3c2.6,0.2,5.2,0.4,7.7,0.7
	c2,0.2,4,0.5,5.9,0.7c2,0.3,4,0.6,6,0.9c1.7,0.3,3.4,0.6,5,0.9c0.3,0,0.5,0.1,0.7,0.1c1.3,0.3,2.6,0.5,3.9,0.8
	c0.9,0.2,1.9,0.4,2.8,0.6c2.9,0.6,5.7,1.3,8.4,2.1c1.4,0.4,2.8,0.8,4.1,1.2c0.4,0.1,0.7,0.2,1.1,0.4c1.1,0.3,2.2,0.6,3.2,1
	c1.1,0.4,2.1,0.8,3.1,1.2c0.6,0.2,1.2,0.4,1.8,0.6c1.4,0.5,2.8,1.1,4.1,1.7c2.5,1,4.9,2.2,7.2,3.3c6.7,3.4,12.7,7.4,18,11.8
	c0.8,0.7,1.7,1.4,2.5,2.2c1.2,1.1,2.4,2.3,3.5,3.4c0.6,0.6,1.1,1.2,1.7,1.8c0.5,0.6,1,1.2,1.6,1.8C163.2,49,163.7,49.6,164.2,50.2z"
	/>
<path fill="#101010" d="M189.4,35.2v9.6c0,1.8,0,3.6-0.1,5.4c0,1.2,0,2.5-0.1,3.7v0.5c0,1.2-0.1,2.5-0.1,3.7c0,0.1,0,0.3,0,0.4v0.2
	c0,0,0,0,0,0.1c0,1.8-0.1,3.5-0.3,5.2c-0.1,1.5-0.1,2.9-0.3,4.4c0,0,0,0,0,0.1c-0.1,1.2-0.2,2.5-0.3,3.7c-0.1,2.1-0.4,4.1-0.6,6.2
	c0,0.1,0,0.1,0,0.2c0,0.1,0,0.3,0,0.4c-0.2,1.9-0.4,3.7-0.6,5.6c0,0.1,0,0.1,0,0.2c-0.5,4-1.2,8-1.9,11.8c-0.3,1.5-0.6,3-0.9,4.5
	c-0.2,1-0.4,2-0.7,3c0,0.1,0,0.1,0,0.2c-0.3,1.4-0.6,2.8-1,4.1c0,0.1-0.1,0.3-0.1,0.4c-0.3,1.2-0.6,2.4-1,3.6
	c-0.4,1.3-0.8,2.6-1.2,3.8c-0.4,1.5-0.9,3-1.5,4.4c0,0,0,0.1,0,0.1c-0.4,1.2-0.9,2.4-1.3,3.6c0,0,0,0.1,0,0.1c0,0.1-0.1,0.2-0.1,0.3
	c0,0.1-0.1,0.2-0.1,0.3c0,0.1-0.1,0.2-0.1,0.3c-0.5,1.3-1,2.5-1.5,3.7c-1,2.5-2.2,4.9-3.3,7.2c-3.4,6.7-7.4,12.7-11.8,18
	c-0.7,0.9-1.4,1.7-2.2,2.5c-0.9,1-1.8,1.9-2.7,2.8c-0.4,0.4-0.8,0.8-1.2,1.2c-1,0.9-2,1.9-3.1,2.7c-0.6,0.5-1.2,1-1.8,1.5h0
	c-3.3,0-6.6-0.2-10-0.3h-0.1c-9.1-0.5-17.6-1.3-25.6-2.6c0,0,0.1,0,0.1,0c1.5-0.3,3-0.6,4.4-1c1-0.3,2.1-0.6,3.1-1
	c0.1,0,0.1,0,0.2-0.1c0.3-0.1,0.6-0.2,0.9-0.3c1.4-0.5,2.7-1,4.1-1.6c0.6-0.3,1.3-0.6,1.9-0.9c1.3-0.6,2.6-1.4,3.8-2.1
	c0.6-0.4,1.2-0.8,1.8-1.2c1.9-1.2,3.7-2.6,5.4-4c4.4-3.7,8.3-8.2,11.8-13.5c0.7-1.1,1.4-2.2,2.1-3.3c0.6-0.9,1.1-1.9,1.6-2.8
	c0.5-1,1-1.9,1.5-3c0.5-1,1-2,1.4-3c0,0,0-0.1,0-0.1c0.5-1.1,1-2.1,1.4-3.2c0.7-1.6,1.3-3.3,1.9-5c5.4-15.1,8.7-33.6,9.8-55.2
	c0.1-2.3,0.2-4.6,0.3-7c0-1.9,0.1-3.8,0.1-5.7c0-1,0-2,0-3v-9.6H189.4z"/>
<path fill="#101010" d="M164.2,172v18h-9.5c-1.8,0-3.6,0-5.4-0.1c-1.2,0-2.5,0-3.7-0.1h-0.5c-1.5,0-2.9-0.1-4.4-0.1
	c-1.9-0.1-3.8-0.2-5.7-0.3c-0.9,0-1.7-0.1-2.6-0.1c-1.3-0.1-2.7-0.2-4-0.3c-0.8-0.1-1.5-0.1-2.3-0.2c-1.6-0.1-3.2-0.3-4.8-0.5
	c-0.2,0-0.4,0-0.6-0.1c-2-0.2-4-0.5-5.9-0.7c-2-0.3-4-0.6-6-0.9c-1.7-0.3-3.4-0.6-5-0.9c-0.3,0-0.5-0.1-0.7-0.1c0,0,0,0-0.1,0
	c-2.2-0.4-4.2-0.9-6.3-1.3c-0.3-0.1-0.6-0.1-0.9-0.2c-1.8-0.4-3.6-0.8-5.3-1.3c-0.3,0-0.6-0.1-0.9-0.2c-1.9-0.5-3.7-1-5.5-1.6
	c0,0-0.1,0-0.1,0c-2-0.6-3.9-1.3-5.8-1.9c-1.2-0.4-2.4-0.8-3.5-1.3c-1.4-0.5-2.8-1.1-4.1-1.7c-2.5-1-4.9-2.2-7.2-3.3
	c-6.7-3.5-12.7-7.4-18-11.8c-1.2-1-2.3-2-3.4-3.1c-0.2-0.2-0.4-0.4-0.6-0.6c-1.1-1-2.1-2.1-3.1-3.1c0,0-0.1-0.1-0.1-0.1
	c-0.7-0.8-1.4-1.5-2.1-2.3c-0.5-0.6-1-1.2-1.5-1.9c0-3.5,0.1-6.7,0.3-9.9c0.4-9.2,1.3-17.8,2.6-25.8c0.3,1.4,0.6,2.7,0.9,4
	c0.1,0.5,0.3,1,0.4,1.6c0.2,0.6,0.4,1.3,0.6,1.9c0,0.1,0.1,0.3,0.1,0.4v0c0.1,0.3,0.3,0.7,0.4,1c0.3,0.8,0.6,1.6,0.9,2.3
	c0.4,1.1,0.9,2.2,1.4,3.2c0.3,0.6,0.5,1.1,0.8,1.7c0.3,0.5,0.5,1,0.8,1.5c0.6,1,1.2,2,1.8,3c1.2,1.9,2.6,3.6,4,5.4
	c3.7,4.4,8.2,8.3,13.5,11.8c1.1,0.7,2.2,1.4,3.3,2.1c1.3,0.8,2.6,1.5,3.9,2.2c1.9,1,3.9,2,6,2.9c0.8,0.4,1.7,0.7,2.5,1.1
	c1.3,0.5,2.6,1,4,1.5c0.2,0.1,0.4,0.1,0.5,0.2c0,0,0,0,0,0c0,0,0,0,0.1,0c15,5.4,33.5,8.7,55,9.8h0c2.4,0.1,4.8,0.2,7.3,0.3
	c1.4,0.1,2.9,0.1,4.4,0.1c0.3,0,0.6,0,1,0c1,0,2.1,0,3.2,0H164.2z"/>
<path fill="#FA634E" d="M27.4,10h-18v18h18V10z"/>
<path fill="#101010" d="M9.4,10L9.4,10l18,0v18h0V10H9.4z"/>
<path fill="#F7CF46" d="M189.4,10h-18v18h18V10z"/>
<path fill="#101010" d="M171.4,10L171.4,10l18,0v18h0V10H171.4z"/>
<path fill="#72DC8A" d="M27.4,171.9h-18v18h18V171.9z"/>
<path fill="#101010" d="M9.4,171.9L9.4,171.9l18,0v18h0v-18H9.4z"/>
<path fill="#7A31F5" d="M189.4,172h-18v18h18V172z"/>
<path fill="#101010" d="M171.4,172L171.4,172l18,0v18h0v-18H171.4z"/>
</svg>
