<svg width="174" height="28" viewBox="0 0 174 28" fill="none" xmlns="http://www.w3.org/2000/svg">
<path d="M116.099 18.6368C115.802 19.0792 115.444 19.4488 115.03 19.7456C114.61 20.048 114.145 20.272 113.635 20.4232C113.131 20.5744 112.599 20.6528 112.05 20.6528C111.042 20.6528 110.135 20.4008 109.318 19.8912C108.506 19.3816 107.862 18.6312 107.38 17.6456C106.904 16.6544 106.663 15.4392 106.663 14.0056C106.663 12.5664 106.904 11.3512 107.38 10.36C107.862 9.37439 108.506 8.62399 109.318 8.11439C110.135 7.61039 111.042 7.35279 112.05 7.35279C112.599 7.35279 113.131 7.43119 113.635 7.58239C114.145 7.73359 114.61 7.95759 115.03 8.25999C115.444 8.55679 115.802 8.92639 116.099 9.36319C116.39 9.80559 116.598 10.3096 116.715 10.892H118.731C118.58 10.0352 118.3 9.27359 117.902 8.60719C117.505 7.94079 117.006 7.36959 116.413 6.90479C115.814 6.43999 115.147 6.08159 114.414 5.83519C113.674 5.59439 112.885 5.47119 112.05 5.47119C110.634 5.47119 109.374 5.81839 108.27 6.51279C107.167 7.20159 106.299 8.18719 105.666 9.46399C105.034 10.7408 104.72 12.2528 104.72 14.0056C104.72 15.7528 105.034 17.2704 105.666 18.5416C106.299 19.8184 107.167 20.804 108.27 21.4928C109.374 22.1872 110.634 22.5344 112.05 22.5344C112.885 22.5344 113.674 22.4112 114.414 22.1704C115.147 21.924 115.814 21.5712 116.413 21.1008C117.006 20.636 117.505 20.0648 117.902 19.3984C118.3 18.7264 118.58 17.9648 118.731 17.1136H116.715C116.598 17.6904 116.39 18.1888 116.099 18.6368Z" fill="white"/>
<path d="M131.179 15.9096C131.179 14.7504 131.022 13.7704 130.714 12.9752C130.406 12.18 129.992 11.5416 129.477 11.06C128.956 10.5728 128.379 10.2256 127.746 10.0072C127.114 9.79437 126.475 9.68237 125.826 9.68237C124.7 9.68237 123.72 9.95677 122.88 10.5056C122.04 11.0544 121.385 11.816 120.914 12.796C120.45 13.7704 120.214 14.896 120.214 16.1728C120.214 17.4496 120.45 18.564 120.914 19.5216C121.385 20.4848 122.051 21.2296 122.919 21.7616C123.787 22.2936 124.818 22.5624 126.022 22.5624C126.862 22.5624 127.623 22.428 128.301 22.1648C128.973 21.9072 129.544 21.5376 130.003 21.0616C130.462 20.5912 130.787 20.0424 130.983 19.4152L129.135 18.8944C128.973 19.3256 128.743 19.6896 128.446 19.9752C128.15 20.2664 127.797 20.4848 127.388 20.6248C126.979 20.7704 126.52 20.8432 126.022 20.8432C125.249 20.8432 124.571 20.6696 123.983 20.3336C123.401 19.9976 122.947 19.5048 122.617 18.8496C122.32 18.2616 122.163 17.5504 122.135 16.7216H131.179V15.9096ZM122.141 15.0696C122.174 14.4928 122.32 13.944 122.572 13.4288C122.869 12.8296 123.3 12.3424 123.849 11.9672C124.403 11.592 125.064 11.4016 125.826 11.4016C126.52 11.4016 127.119 11.564 127.629 11.8832C128.138 12.2024 128.536 12.6336 128.816 13.188C129.09 13.7368 129.23 14.364 129.23 15.0696H122.141Z" fill="white"/>
<path d="M142.973 11.7544C142.621 11.06 142.128 10.5392 141.495 10.1976C140.862 9.85597 140.129 9.68237 139.283 9.68237C138.342 9.68237 137.575 9.87837 136.981 10.2648C136.388 10.6512 135.945 11.1608 135.649 11.7936H135.486V9.84477H133.638V22.2992H135.553V14.812C135.553 14.0896 135.693 13.4736 135.968 12.964C136.242 12.46 136.617 12.068 137.099 11.8048C137.575 11.5416 138.124 11.4072 138.734 11.4072C139.619 11.4072 140.313 11.6816 140.823 12.2304C141.333 12.7792 141.585 13.5408 141.585 14.5208V22.3048H143.5V14.392C143.5 13.328 143.326 12.4488 142.973 11.7544Z" fill="white"/>
<path d="M151.799 20.524C151.721 20.5408 151.609 20.5576 151.474 20.5856C151.34 20.608 151.166 20.6192 150.959 20.6192C150.673 20.6192 150.41 20.5744 150.158 20.4848C149.906 20.3952 149.699 20.216 149.542 19.9528C149.38 19.684 149.301 19.2808 149.301 18.7376V6.8656H147.392V19.2584C147.392 19.9808 147.56 20.58 147.896 21.056C148.232 21.532 148.663 21.8848 149.178 22.12C149.693 22.3496 150.22 22.4672 150.763 22.4672C151.121 22.4672 151.413 22.4448 151.648 22.3944C151.877 22.3384 152.057 22.288 152.191 22.2432L151.799 20.524ZM145.51 9.8504V11.4744H151.961V9.8504H145.51Z" fill="white"/>
<path d="M164.175 15.9096C164.175 14.7504 164.023 13.7704 163.715 12.9752C163.407 12.18 162.993 11.5416 162.472 11.06C161.957 10.5728 161.38 10.2256 160.747 10.0072C160.115 9.79437 159.471 9.68237 158.827 9.68237C157.701 9.68237 156.715 9.95677 155.875 10.5056C155.035 11.0544 154.38 11.816 153.915 12.796C153.445 13.7704 153.215 14.896 153.215 16.1728C153.215 17.4496 153.445 18.564 153.915 19.5216C154.38 20.4848 155.052 21.2296 155.92 21.7616C156.783 22.2936 157.819 22.5624 159.017 22.5624C159.863 22.5624 160.624 22.428 161.296 22.1648C161.974 21.9072 162.539 21.5376 162.999 21.0616C163.458 20.5912 163.788 20.0424 163.984 19.4152L162.131 18.8944C161.968 19.3256 161.739 19.6896 161.442 19.9752C161.145 20.2664 160.792 20.4848 160.383 20.6248C159.98 20.7704 159.521 20.8432 159.017 20.8432C158.244 20.8432 157.567 20.6696 156.984 20.3336C156.402 19.9976 155.943 19.5048 155.618 18.8496C155.321 18.2616 155.159 17.5504 155.131 16.7216H164.175V15.9096ZM155.136 15.0696C155.17 14.4928 155.321 13.944 155.573 13.4288C155.87 12.8296 156.295 12.3424 156.85 11.9672C157.404 11.592 158.065 11.4016 158.827 11.4016C159.515 11.4016 160.12 11.564 160.63 11.8832C161.139 12.2024 161.531 12.6336 161.811 13.188C162.091 13.7368 162.231 14.364 162.231 15.0696H155.136Z" fill="white"/>
<path d="M172.844 9.66562C172.631 9.66002 172.457 9.65442 172.317 9.65442C171.573 9.65442 170.901 9.85042 170.307 10.2312C169.713 10.6176 169.299 11.116 169.075 11.732H168.946V9.85042H167.098V22.3048H169.008V14.4256C169.008 13.86 169.148 13.3616 169.417 12.9192C169.691 12.4824 170.066 12.1352 170.537 11.8832C171.013 11.6312 171.55 11.508 172.155 11.508C172.407 11.508 172.653 11.5248 172.883 11.5584C173.113 11.592 173.258 11.62 173.32 11.6368V9.68802C173.213 9.67682 173.056 9.67122 172.844 9.66562Z" fill="white"/>
<path d="M81.1817 6.31677H77.2505V6.33917H81.4561C81.4841 6.33917 81.5065 6.33917 81.5345 6.32797C81.4225 6.31677 81.3105 6.31677 81.1817 6.31677ZM82.5369 12.9472C82.1337 13.3336 81.5793 13.5296 80.8569 13.5296H77.2505V13.552H80.8569C81.5905 13.552 82.1505 13.3504 82.5481 12.964C82.6993 12.824 82.8169 12.6616 82.9121 12.4768C82.8113 12.656 82.6881 12.8128 82.5369 12.9472Z" fill="white"/>
<path d="M80.0785 16.2792H77.2505V16.2904H80.0897L80.0785 16.2792ZM82.5481 9.64319C82.1505 9.25679 81.5905 9.06079 80.8569 9.06079H77.2505V9.07199H80.8569C81.5793 9.07199 82.1337 9.26799 82.5369 9.65439C82.6881 9.80559 82.8113 9.96239 82.9121 10.136C82.8169 9.95679 82.6993 9.78879 82.5481 9.64319Z" fill="white"/>
<path d="M84.7502 15.1704C85.0638 14.9128 85.327 14.6216 85.5454 14.2856C85.9486 13.6416 86.1558 12.8856 86.1558 12.0232V10.5952C86.1558 9.72717 85.9486 8.96557 85.5454 8.33277C85.327 7.98557 85.0526 7.69437 84.739 7.44237C84.459 7.20717 84.1566 7.00557 83.8038 6.84877C83.1542 6.53517 82.3926 6.36157 81.5358 6.32797C81.5078 6.33917 81.4854 6.33917 81.4574 6.33917H77.2518V6.31677H74.239V22.3048H77.2518V16.2792H80.0798L80.091 16.2904L83.143 22.3048H86.1558L82.9862 16.0608C83.2774 15.988 83.5518 15.8816 83.8038 15.764C84.1566 15.596 84.4702 15.3944 84.7502 15.1704ZM83.143 11.4296C83.143 11.7432 83.0926 12.0344 82.9974 12.292C82.975 12.3592 82.9414 12.4208 82.9134 12.4824C82.8182 12.6672 82.7006 12.8296 82.5494 12.9696C82.1518 13.356 81.5918 13.5576 80.8582 13.5576H77.2518V9.06077H80.8582C81.5918 9.06077 82.1518 9.25677 82.5494 9.64317C82.7006 9.79437 82.8182 9.95677 82.9134 10.136C82.9414 10.192 82.975 10.2592 82.9974 10.3208C83.0926 10.584 83.143 10.8752 83.143 11.2V11.4296Z" fill="white"/>
<path d="M51.1552 6.32239L48.3944 20.2496H47.98L45.2192 6.32239H39.6248V22.3048H42.548V8.53439H42.9568L45.7008 22.2992H50.6736L53.4176 8.53439H53.8264V22.2992H56.7495V6.32239H51.1552Z" fill="white"/>
<path d="M63.6881 19.5608V15.6128H70.3129V12.8688H63.6881V9.05517H70.9513V6.31677H60.6753V22.2992H71.0913V19.5608H63.6881Z" fill="white"/>
<path d="M92.5948 19.5608V6.32239H89.582V22.3048H99.9028V19.5664H92.5948V19.5608Z" fill="white"/>
<path d="M8.4001 26.572V28H5.6001V24.9088C6.2945 25.424 7.0617 25.8944 7.8849 26.32C8.0529 26.404 8.2265 26.488 8.4001 26.572Z" fill="white"/>
<path d="M12.5555 10.1752C12.1243 10.332 11.7267 10.5616 11.3683 10.864C10.8867 11.2728 10.4611 11.8048 10.1027 12.4712C10.0747 12.5216 10.0467 12.572 10.0187 12.6224C9.2907 14 8.8035 15.8984 8.5683 18.2616C8.5179 18.7544 8.4787 19.264 8.4507 19.796C8.4395 20.0984 8.4227 20.4008 8.4171 20.7144C7.9299 20.3392 7.5043 19.936 7.1459 19.516C6.9387 19.2752 6.7651 19.04 6.6027 18.7936C6.3003 18.3288 6.04829 17.836 5.85229 17.304C6.2667 13.8656 7.2075 11.3176 8.6747 9.604C9.0051 9.6264 9.3299 9.6544 9.6379 9.688C10.7243 9.8 11.6931 9.9568 12.5555 10.1752Z" fill="white"/>
<path d="M3.1136 5.59998C2.5872 6.31678 2.1112 7.07838 1.6968 7.89038C1.6128 8.05838 1.5288 8.22638 1.4504 8.39998H0V5.59998H3.1136Z" fill="white"/>
<path d="M18.4019 8.68554C18.3739 9.01594 18.3515 9.34074 18.3179 9.65434C18.2955 9.85594 18.2731 10.0575 18.2507 10.2535C18.1891 10.7295 18.1163 11.1887 18.0323 11.6143C17.9707 11.9503 17.8979 12.2695 17.8251 12.5719C17.7915 12.4711 17.7523 12.3759 17.7075 12.2807C17.6627 12.1743 17.6067 12.0735 17.5507 11.9783V11.9727C17.4947 11.8719 17.4275 11.7711 17.3603 11.6703C17.3099 11.6031 17.2595 11.5359 17.2091 11.4687C17.1867 11.4351 17.1587 11.4015 17.1307 11.3679C16.6995 10.8471 16.1115 10.3991 15.3723 10.0127C14.0003 9.29594 12.1075 8.80874 9.75553 8.57354C9.50913 8.54554 9.25713 8.52314 8.99953 8.50634C8.89313 8.49514 8.78673 8.48954 8.68033 8.48394C8.57393 8.47834 8.46193 8.47274 8.34993 8.46714C8.30513 8.46154 8.26033 8.45594 8.21553 8.45594C8.13713 8.45034 8.05313 8.44474 7.97473 8.44474C7.82353 8.43354 7.67233 8.42794 7.51553 8.42794C7.44833 8.42794 7.37553 8.42234 7.30273 8.42234C7.66673 7.94634 8.06993 7.51514 8.50673 7.14554C8.75313 6.93834 8.98273 6.76474 9.21793 6.61914L9.21233 6.61354L9.24033 6.60794C9.69393 6.30554 10.1867 6.05354 10.7131 5.85754C11.1387 5.90794 11.5587 5.96954 11.9563 6.03674C12.0571 6.05354 12.1579 6.07034 12.2587 6.09274C12.3707 6.10954 12.4771 6.13194 12.5835 6.15434C12.7851 6.19354 12.9755 6.23274 13.1659 6.27754C13.2723 6.30554 13.3787 6.32794 13.4851 6.35594C13.6307 6.38954 13.7763 6.42874 13.9163 6.46794C14.0283 6.49594 14.1347 6.52954 14.2411 6.56314C14.4091 6.60794 14.5715 6.65834 14.7339 6.71434C14.8683 6.75914 14.9971 6.80394 15.1259 6.84874C15.1707 6.86554 15.2211 6.88234 15.2659 6.89914C15.4059 6.94954 15.5403 7.00554 15.6747 7.06154C15.8315 7.12314 15.9771 7.19034 16.1227 7.25754C16.2011 7.29114 16.2683 7.32474 16.3411 7.35834C16.4139 7.39194 16.4867 7.42554 16.5595 7.46474L16.9627 7.68314C17.2259 7.82874 17.4779 7.99114 17.7187 8.15914C17.8419 8.24314 17.9595 8.32714 18.0715 8.41674C18.1835 8.50634 18.2955 8.59594 18.4019 8.68554Z" fill="white"/>
<path d="M22.1429 10.724C22.0869 11.228 22.0141 11.7096 21.9245 12.1744C21.9245 12.2024 21.9189 12.2304 21.9133 12.2584V12.264C21.9133 12.2696 21.9077 12.2696 21.9077 12.2752C21.9077 12.2808 21.9077 12.2864 21.9021 12.292C21.8685 12.46 21.8405 12.6224 21.8069 12.7848C21.7061 13.2608 21.5941 13.72 21.4653 14.1568C21.4429 14.252 21.4149 14.3472 21.3813 14.4424C21.3533 14.5376 21.3197 14.6328 21.2917 14.7224C21.2917 14.728 21.2861 14.7392 21.2861 14.7448C21.2524 14.8456 21.2245 14.9408 21.1853 15.036C21.1629 15.1144 21.1349 15.1984 21.1013 15.2768C21.0733 15.3552 21.0397 15.428 21.0117 15.5064C20.9949 15.5568 20.9725 15.6072 20.9556 15.6576C20.9444 15.68 20.9389 15.7024 20.9277 15.7248C20.8997 15.7976 20.8661 15.8704 20.8325 15.9432C20.7933 16.0384 20.7485 16.128 20.7093 16.2176C20.6981 16.2456 20.6869 16.2736 20.6701 16.3016C20.6701 16.3072 20.6645 16.3072 20.6645 16.3128C20.6197 16.408 20.5693 16.5088 20.5189 16.604C20.4685 16.7048 20.4125 16.8 20.3621 16.8952C20.3061 16.996 20.2501 17.0968 20.1885 17.192C20.1773 17.2256 20.1549 17.2536 20.1381 17.2816C20.1269 17.304 20.1101 17.3264 20.0933 17.3488C20.0541 17.4216 20.0093 17.4944 19.9589 17.5616C19.9141 17.6344 19.8637 17.7016 19.8133 17.7688C19.7853 17.8136 19.7573 17.8528 19.7237 17.8976C19.7181 17.9032 19.7181 17.9032 19.7125 17.9088C19.6565 17.9872 19.5949 18.0656 19.5389 18.1384C19.4661 18.2336 19.3877 18.3288 19.3093 18.4184C18.9789 18.396 18.6653 18.368 18.3573 18.3344H18.3405C17.2485 18.2224 16.2797 18.0544 15.4229 17.8472C15.4453 17.8416 15.4677 17.8304 15.4901 17.8192C15.5293 17.8024 15.5741 17.7912 15.6189 17.7688C15.6581 17.752 15.7029 17.7352 15.7421 17.7128C15.8373 17.668 15.9325 17.6232 16.0221 17.5728C16.1285 17.5112 16.2293 17.4496 16.3301 17.3768C16.4309 17.3096 16.5317 17.2312 16.6269 17.1528C16.7557 17.0408 16.8845 16.9288 17.0021 16.8C17.0749 16.7216 17.1477 16.6376 17.2205 16.5536C17.2765 16.4864 17.3325 16.4136 17.3885 16.3408C17.4333 16.2848 17.4781 16.2232 17.5173 16.1616C17.5845 16.0664 17.6517 15.9656 17.7133 15.8648C17.7749 15.764 17.8365 15.6576 17.8981 15.5512C17.8981 15.5456 17.9037 15.5456 17.9037 15.54C17.9317 15.4952 17.9541 15.4448 17.9821 15.3944C17.9821 15.3944 17.9877 15.3888 17.9821 15.3832C18.0437 15.2656 18.1053 15.1424 18.1613 15.0136C18.2173 14.896 18.2733 14.7728 18.3237 14.644C18.3517 14.5824 18.3741 14.5208 18.4021 14.4536C18.4245 14.392 18.4525 14.3248 18.4749 14.2576C18.5085 14.168 18.5421 14.0728 18.5756 13.9832C18.6485 13.7704 18.7213 13.5464 18.7829 13.3168C18.8109 13.2384 18.8333 13.16 18.8501 13.076C18.8725 12.9976 18.8893 12.9136 18.9117 12.8352C18.9565 12.6728 18.9957 12.5048 19.0293 12.3312C19.0685 12.1632 19.1021 11.9896 19.1357 11.8104C19.1693 11.648 19.2029 11.48 19.2253 11.312C19.2309 11.2784 19.2365 11.2392 19.2421 11.2056C19.2645 11.0992 19.2813 10.9928 19.2925 10.8808C19.2981 10.8528 19.2981 10.8304 19.3037 10.8024C19.3205 10.7072 19.3317 10.6064 19.3485 10.5056C19.3765 10.2648 19.4045 10.0184 19.4325 9.76637C19.4829 9.27357 19.5221 8.75837 19.5501 8.22077V8.15357C19.5557 8.02477 19.5613 7.89597 19.5669 7.76717C19.5725 7.61597 19.5837 7.45917 19.5837 7.30237C20.0653 7.67757 20.4909 8.07517 20.8493 8.50637C21.0453 8.73597 21.2245 8.97117 21.3925 9.23437C21.6949 9.69917 21.9469 10.192 22.1429 10.724Z" fill="white"/>
<path d="M22.4001 0V3.0968C21.6889 2.5704 20.9217 2.1 20.1041 1.6856C19.9361 1.6016 19.7681 1.5176 19.6001 1.4392V0H22.4001Z" fill="white"/>
<path d="M20.6815 19.6C20.3231 20.076 19.9199 20.5016 19.4887 20.8712C19.2535 21.0728 19.0127 21.252 18.7663 21.4032C18.3015 21.7112 17.8031 21.9688 17.2711 22.1648H17.2655C13.8439 21.7504 11.3127 20.8096 9.60474 19.3368C9.62154 19.0064 9.64954 18.6872 9.68314 18.3736C9.79514 17.2816 9.95194 16.3072 10.1703 15.4448C10.3271 15.8816 10.5567 16.2848 10.8647 16.6488C11.2791 17.136 11.8223 17.5672 12.4999 17.9312C12.5503 17.9592 12.6007 17.9816 12.6511 18.0096C12.6511 18.0096 12.6567 18.0096 12.6567 18.0152C14.0231 18.732 15.9047 19.2136 18.2343 19.4488H18.2399C18.7327 19.4992 19.2367 19.5384 19.7687 19.5664C20.0655 19.5832 20.3735 19.5944 20.6815 19.6Z" fill="white"/>
<path d="M28.0001 19.6224V22.4224H24.8809C25.4017 21.7224 25.8721 20.9552 26.2921 20.132C26.3761 19.964 26.4601 19.796 26.5385 19.6224H28.0001Z" fill="white"/>
<path d="M11.8048 4.38475C11.7992 4.38475 11.7936 4.38475 11.788 4.39035C11.5528 4.42955 11.3232 4.48555 11.0992 4.55275C10.9872 4.58075 10.8752 4.61435 10.7632 4.65355C10.7016 4.67035 10.6344 4.69275 10.5728 4.71515C10.3992 4.77675 10.2256 4.83835 10.0576 4.91115C9.8896 4.97835 9.7272 5.05675 9.5648 5.13515C9.5424 5.14635 9.5256 5.15195 9.5032 5.16315C9.3744 5.23035 9.2456 5.29755 9.1224 5.36475C8.9544 5.46555 8.7864 5.56635 8.624 5.67275H8.6184C8.3272 5.85755 8.0528 6.06475 7.784 6.29435C7.1064 6.87115 6.4848 7.57115 5.9416 8.39995C5.8408 8.55115 5.74 8.71355 5.6448 8.87595C5.516 9.08315 5.3984 9.29595 5.2808 9.51995C5.0848 9.88955 4.9 10.2816 4.7264 10.696C4.6648 10.836 4.6088 10.9816 4.5528 11.1272C4.5024 11.2392 4.4632 11.3568 4.4184 11.4744C4.4072 11.5024 4.396 11.536 4.3848 11.5696V11.5752C3.5336 13.9216 3.024 16.8 2.856 20.16C2.8392 20.5184 2.8224 20.8768 2.8168 21.2464C2.8112 21.5376 2.8056 21.8344 2.8056 22.1368C2.8 22.288 2.8 22.4448 2.8 22.6016V24.08H0V22.6016C0 22.12 0.0056 21.644 0.0224 21.1792C0.0224 20.9216 0.0336 20.6752 0.0448 20.4232C0.0504 20.16 0.0672 19.8968 0.084 19.6392C0.0952 19.348 0.1176 19.0624 0.14 18.7768C0.1568 18.508 0.1792 18.2448 0.2072 17.9816L0.224 17.7632C0.2464 17.5224 0.2744 17.2816 0.3024 17.0408C0.3304 16.8168 0.3584 16.5984 0.3864 16.3856C0.4256 16.0776 0.4704 15.7752 0.5208 15.4784C0.5712 15.176 0.6216 14.8792 0.6776 14.588C0.8344 13.7648 1.0136 12.9808 1.2264 12.2304C1.2936 11.9896 1.3608 11.7544 1.4392 11.5192C1.512 11.284 1.5848 11.0544 1.6688 10.8304C1.7472 10.6008 1.8312 10.3824 1.9152 10.164C1.9992 9.94555 2.0888 9.73275 2.1784 9.51995C2.3408 9.13355 2.5144 8.75835 2.6992 8.39995C3.2312 7.35275 3.8472 6.42315 4.536 5.59995C4.6928 5.42075 4.8496 5.24155 5.012 5.07355C5.04 5.03995 5.068 5.00635 5.1016 4.97835C5.2584 4.81035 5.4208 4.64795 5.5888 4.49675L5.6056 4.47995C5.7232 4.37355 5.8464 4.26715 5.9696 4.16075C6.0648 4.08235 6.1544 4.00955 6.2496 3.93115H6.2552C6.7592 3.93675 7.2688 3.95915 7.7952 3.98155C9.2232 4.04875 10.5672 4.18875 11.8048 4.38475Z" fill="white"/>
<path d="M24.0694 6.2552C24.0638 6.7984 24.047 7.308 24.0246 7.8008C23.9518 9.2232 23.8174 10.5616 23.6214 11.7992C23.6158 11.7712 23.6102 11.7376 23.599 11.7096C23.5598 11.5304 23.5206 11.3512 23.4702 11.1832C23.4646 11.1552 23.459 11.1272 23.4478 11.0992C23.4254 11.0096 23.403 10.9256 23.375 10.836C23.347 10.752 23.319 10.6736 23.291 10.5896V10.5784C23.235 10.4216 23.179 10.2704 23.1174 10.1192C23.1118 10.1024 23.1006 10.0856 23.095 10.0688C23.0278 9.9008 22.9494 9.7328 22.871 9.5704C22.8094 9.4416 22.7478 9.324 22.6806 9.2008C22.5742 9.0048 22.4566 8.8088 22.3334 8.624C22.143 8.3328 21.9358 8.0528 21.7062 7.784C21.1294 7.1008 20.4238 6.4848 19.6006 5.9416C19.4326 5.8296 19.259 5.7232 19.0798 5.6168C18.8894 5.5048 18.6878 5.3928 18.4862 5.2864C18.3126 5.1968 18.1334 5.1072 17.9542 5.0176C17.8702 4.9784 17.7918 4.9448 17.7078 4.9056C17.5398 4.8272 17.3718 4.7544 17.1982 4.6872C16.9742 4.592 16.739 4.5024 16.5038 4.4184V4.4128C16.4702 4.4016 16.4422 4.3904 16.4086 4.3792C14.0678 3.5336 11.2006 3.024 7.85184 2.8616C7.48224 2.8448 7.10704 2.828 6.72624 2.8224C6.64224 2.8168 6.55824 2.8168 6.47424 2.8168C6.31744 2.8056 6.16064 2.8056 5.99824 2.8056H5.86944C5.71264 2.8 5.55584 2.8 5.39344 2.8H3.91504V0H5.39344C5.67904 0 5.95904 0 6.23344 0.0112C6.42944 0.0112 6.62544 0.0168 6.81584 0.0224H6.88864C7.11824 0.028 7.34784 0.0336 7.57184 0.0448C7.86304 0.056 8.15424 0.0728 8.43984 0.084C8.57984 0.0952 8.71984 0.1008 8.85424 0.112C9.06144 0.1232 9.26864 0.14 9.47024 0.1568C9.87904 0.1904 10.2766 0.224 10.6742 0.2688C10.9822 0.3024 11.2902 0.3416 11.587 0.3808C11.9006 0.42 12.2142 0.4704 12.5166 0.5208C12.7854 0.56 13.0486 0.6104 13.3006 0.6552C13.3398 0.6608 13.3734 0.672 13.4126 0.6776C13.6198 0.7168 13.8214 0.756 14.023 0.8008C14.1686 0.8288 14.3142 0.8624 14.4598 0.896C14.9078 0.9968 15.3446 1.1032 15.7646 1.2264C15.983 1.288 16.1958 1.3496 16.4086 1.4168C16.4646 1.4336 16.5206 1.4504 16.5766 1.4728C16.7446 1.5232 16.9126 1.5736 17.075 1.6352C17.243 1.6912 17.3998 1.7528 17.5622 1.8144C17.6574 1.848 17.747 1.8816 17.8366 1.9152C18.055 1.9992 18.2678 2.0888 18.4806 2.1784C18.867 2.3408 19.2422 2.5144 19.6006 2.6992C20.6478 3.2312 21.5774 3.8472 22.4006 4.536C22.5294 4.648 22.6638 4.76 22.787 4.8776C22.9774 5.0512 23.1566 5.2304 23.3302 5.4096C23.4198 5.4992 23.5038 5.5888 23.5934 5.684C23.6718 5.7792 23.7558 5.8744 23.8398 5.9696C23.9182 6.0648 23.9966 6.16 24.0694 6.2552Z" fill="white"/>
<path d="M27.9991 3.92004V5.41524C27.9991 5.70084 27.9991 5.97524 27.9879 6.25524C27.9879 6.44564 27.9823 6.64164 27.9767 6.83204V6.91604C27.9767 7.10644 27.9655 7.30244 27.9599 7.48724C27.9543 7.50964 27.9543 7.52644 27.9543 7.54884V7.57684C27.9543 7.58244 27.9543 7.58244 27.9543 7.58804C27.9487 7.86244 27.9319 8.12564 27.9151 8.39444C27.9039 8.62404 27.8927 8.84804 27.8703 9.07204C27.8703 9.07764 27.8703 9.07764 27.8703 9.08324C27.8591 9.27364 27.8423 9.46964 27.8255 9.65444C27.8031 9.97924 27.7695 10.2984 27.7359 10.612C27.7303 10.6232 27.7303 10.6288 27.7303 10.64C27.7303 10.6624 27.7247 10.6848 27.7247 10.7072C27.6967 11.004 27.6575 11.2896 27.6239 11.5752C27.6183 11.5864 27.6183 11.5976 27.6183 11.6088C27.5343 12.236 27.4335 12.8464 27.3215 13.44C27.2767 13.6752 27.2263 13.9104 27.1759 14.1456C27.1423 14.3024 27.1087 14.4592 27.0695 14.6104C27.0695 14.6216 27.0639 14.6328 27.0639 14.644C27.0135 14.8624 26.9631 15.0752 26.9071 15.288C26.9015 15.3104 26.8959 15.3272 26.8903 15.3496C26.8399 15.54 26.7895 15.7248 26.7391 15.904C26.6775 16.1056 26.6215 16.3072 26.5543 16.4976C26.4871 16.7328 26.4087 16.9624 26.3247 17.1864C26.3247 17.192 26.3247 17.1976 26.3191 17.2032C26.2519 17.3936 26.1847 17.5784 26.1119 17.7632C26.1119 17.7688 26.1119 17.78 26.1063 17.7856C26.1007 17.8024 26.0951 17.8136 26.0895 17.8304C26.0839 17.8472 26.0783 17.8584 26.0727 17.8752C26.0671 17.892 26.0615 17.9088 26.0503 17.9256C25.9775 18.1216 25.8991 18.312 25.8151 18.5024C25.6527 18.8888 25.4791 19.264 25.2943 19.6224C24.7623 20.6696 24.1463 21.6048 23.4519 22.4224C23.3399 22.5568 23.2279 22.6856 23.1103 22.8144C22.9703 22.9656 22.8303 23.1056 22.6903 23.2456C22.6287 23.3128 22.5615 23.3744 22.4999 23.4304C22.3431 23.576 22.1863 23.7216 22.0239 23.856C21.9287 23.9344 21.8335 24.0128 21.7383 24.0912H21.7327C21.2175 24.0856 20.7023 24.0632 20.1815 24.0408H20.1703C18.7591 23.968 17.4319 23.8336 16.1943 23.6376C16.1999 23.6376 16.2055 23.6376 16.2111 23.632C16.4407 23.5816 16.6703 23.5312 16.8943 23.4696C17.0567 23.4248 17.2191 23.3744 17.3759 23.3184C17.3871 23.3128 17.3983 23.3128 17.4095 23.3072C17.4599 23.2904 17.5047 23.2736 17.5551 23.2568C17.7679 23.184 17.9807 23.0944 18.1879 23.0048C18.2887 22.9544 18.3895 22.9096 18.4903 22.8592C18.6975 22.7584 18.8935 22.6464 19.0839 22.5288C19.1791 22.4728 19.2743 22.4112 19.3695 22.3496C19.6607 22.1648 19.9463 21.952 20.2151 21.7224C20.8927 21.1456 21.5087 20.4456 22.0463 19.6224C22.1583 19.4544 22.2647 19.2864 22.3711 19.1072C22.4607 18.9616 22.5447 18.816 22.6231 18.6648C22.7071 18.5136 22.7855 18.3624 22.8639 18.2056C22.9423 18.0544 23.0151 17.8976 23.0879 17.7408C23.0879 17.7352 23.0935 17.7296 23.0935 17.724C23.1719 17.556 23.2447 17.3936 23.3119 17.22C23.4183 16.968 23.5191 16.7104 23.6143 16.4472C24.4599 14.1008 24.9751 11.2168 25.1431 7.85684C25.1599 7.49844 25.1767 7.14004 25.1823 6.77044C25.1879 6.47924 25.1935 6.18244 25.1935 5.88564C25.1991 5.72884 25.1991 5.57204 25.1991 5.41524V3.92004H27.9991Z" fill="white"/>
<path d="M24.0736 25.2001V28.0001H22.6008C22.3152 28.0001 22.0408 28.0001 21.7608 27.9889C21.5704 27.9889 21.3744 27.9833 21.184 27.9777H21.1056C20.876 27.9721 20.652 27.9665 20.428 27.9553C20.1312 27.9441 19.8344 27.9273 19.5432 27.9105C19.4088 27.9049 19.28 27.8993 19.1456 27.8881C18.9384 27.8769 18.7312 27.8601 18.5296 27.8433C18.412 27.8321 18.2888 27.8209 18.1712 27.8153C17.9192 27.7929 17.6728 27.7705 17.4264 27.7425C17.3928 27.7369 17.3592 27.7369 17.3256 27.7313C17.0176 27.6977 16.7096 27.6585 16.4128 27.6193C16.0992 27.5801 15.7856 27.5297 15.4832 27.4793C15.2144 27.4401 14.9512 27.3897 14.6992 27.3449C14.66 27.3393 14.6264 27.3281 14.5872 27.3225C14.5816 27.3225 14.5816 27.3225 14.576 27.3225C14.24 27.2553 13.9152 27.1881 13.5904 27.1153C13.54 27.1041 13.4896 27.0929 13.4448 27.0817C13.1648 27.0201 12.8904 26.9529 12.6216 26.8745C12.5768 26.8689 12.5264 26.8577 12.4816 26.8409C12.1904 26.7625 11.9104 26.6785 11.6304 26.5945C11.6248 26.5945 11.6192 26.5889 11.6136 26.5889C11.3056 26.4937 11.0032 26.3929 10.712 26.2865C10.5272 26.2249 10.3424 26.1577 10.1632 26.0849C9.9448 26.0009 9.732 25.9113 9.5192 25.8217C9.1328 25.6593 8.7576 25.4857 8.3992 25.3009C7.352 24.7633 6.4224 24.1529 5.5992 23.4585C5.42 23.3017 5.2408 23.1449 5.0728 22.9825C5.0392 22.9545 5.0056 22.9265 4.9776 22.8929C4.8096 22.7361 4.6472 22.5737 4.496 22.4057C4.4904 22.4001 4.4848 22.3945 4.4792 22.3889C4.3728 22.2713 4.2664 22.1481 4.16 22.0249C4.0816 21.9297 3.9976 21.8345 3.9248 21.7337C3.9304 21.1905 3.9472 20.6865 3.9696 20.1937C4.0368 18.7657 4.1768 17.4273 4.3784 16.1841C4.4176 16.3969 4.468 16.5985 4.524 16.8057C4.5464 16.8897 4.5688 16.9681 4.5912 17.0521C4.6192 17.1473 4.6528 17.2481 4.6808 17.3433C4.6864 17.3657 4.692 17.3825 4.7032 17.4049V17.4105C4.72 17.4609 4.7424 17.5169 4.7592 17.5673C4.804 17.6905 4.8488 17.8137 4.8992 17.9313C4.9664 18.0993 5.0448 18.2673 5.1232 18.4297C5.1624 18.5193 5.2072 18.6033 5.252 18.6873C5.2968 18.7657 5.336 18.8385 5.3808 18.9169C5.4704 19.0737 5.5656 19.2305 5.6664 19.3817C5.8568 19.6729 6.064 19.9473 6.2936 20.2161C6.8704 20.8993 7.576 21.5097 8.3992 22.0529C8.5672 22.1649 8.7352 22.2713 8.9088 22.3721C9.1048 22.4897 9.3064 22.6073 9.5192 22.7193C9.816 22.8761 10.1296 23.0273 10.4544 23.1673C10.5832 23.2233 10.712 23.2793 10.8464 23.3353C11.048 23.4193 11.2496 23.4977 11.4624 23.5761C11.4904 23.5873 11.5184 23.5985 11.5464 23.6097C11.5464 23.6097 11.5464 23.6097 11.552 23.6097C11.552 23.6097 11.5576 23.6097 11.5632 23.6097C13.904 24.4553 16.7768 24.9705 20.1256 25.1385H20.1312C20.5008 25.1553 20.8816 25.1721 21.268 25.1777C21.492 25.1889 21.7216 25.1945 21.9568 25.1889C22.0072 25.1945 22.0576 25.1945 22.108 25.1945C22.2704 25.2001 22.4328 25.2001 22.6008 25.2001H24.0736Z" fill="white"/>
<path d="M2.8 0H0V2.8H2.8V0Z" fill="#FA634E"/>
<path d="M0 0V0.0056H2.7944V2.8H2.8V0H0Z" fill="white"/>
<path d="M28 0H25.2V2.8H28V0Z" fill="#F7CF46"/>
<path d="M25.2 0V0.0056H27.9944V2.8H28V0H25.2Z" fill="white"/>
<path d="M2.8 25.1945H0V27.9945H2.8V25.1945Z" fill="#72DC8A"/>
<path d="M0 25.1945V25.2001H2.7944V28.0001H2.8V25.1945H0Z" fill="white"/>
<path d="M28 25.2H25.2V28H28V25.2Z" fill="#7A31F5"/>
<path d="M25.2 25.2V25.2056H27.9944V28H28V25.2H25.2Z" fill="white"/>
</svg>
