<svg fill="none" height="160" viewBox="0 0 685 160" width="685" xmlns="http://www.w3.org/2000/svg"><g fill="#fff"><path clip-rule="evenodd" d="m80.0397 32.8c-26.565 0-48.0397 21.6343-48.0397 48.3966 0 21.3934 13.7597 39.5024 32.8483 45.9124 2.3861.481 3.261-1.041 3.261-2.323 0-1.122-.0796-4.968-.0796-8.975-13.362 2.885-16.1457-5.769-16.1457-5.769-2.1475-5.609-5.3289-7.051-5.3289-7.051-4.3745-2.965.3181-2.965.3181-2.965 4.8517.321 7.3968 4.968 7.3968 4.968 4.295 7.372 11.2146 5.289 13.9984 4.007.3976-3.125 1.6702-5.289 3.0223-6.491-10.6578-1.121-21.8723-5.2881-21.8723-23.8775 0-5.2883 1.9088-9.6152 4.9312-12.9805-.4772-1.2019-2.1475-6.1698.4772-12.8203 0 0 4.0563-1.282 13.2029 4.9679 3.8178-1.0417 7.9536-1.6026 12.01-1.6026 4.0563 0 8.1922.5609 12.0099 1.6026 9.1464-6.2499 13.2034-4.9679 13.2034-4.9679 2.624 6.6505.954 11.6184.477 12.8203 3.102 3.3653 4.931 7.6922 4.931 12.9805 0 18.5894-11.2146 22.6755-21.9519 23.8775 1.7498 1.523 3.2609 4.407 3.2609 8.974 0 6.491-.0795 11.699-.0795 13.302 0 1.282.8749 2.804 3.261 2.323 19.0885-6.41 32.8485-24.519 32.8485-45.9124.079-26.7623-21.475-48.3966-47.9603-48.3966z" fill-rule="evenodd"/><path d="m50.2138 102.27c-.0796.24-.4773.32-.7954.16s-.5567-.481-.3977-.721c.0796-.24.4772-.321.7954-.16.3181.16.4772.48.3977.721z"/><path d="m52.1226 104.433c-.2386.241-.7158.08-.9544-.24-.3182-.321-.3977-.801-.1591-1.042.2386-.24.6363-.08.9544.241.3182.4.3977.881.1591 1.041z"/><path d="m54.0315 107.238c-.3182.24-.7954 0-1.034-.401-.3181-.401-.3181-.961 0-1.122.3182-.24.7954 0 1.034.401.3181.401.3181.881 0 1.122z"/><path d="m56.6561 109.962c-.2386.321-.7953.24-1.2725-.16-.3977-.401-.5568-.962-.2386-1.202.2386-.321.7953-.241 1.2725.16.3977.321.4772.882.2386 1.202z"/><path d="m60.2352 111.484c-.0795.401-.6363.561-1.193.401-.5568-.16-.8749-.641-.7954-.961.0796-.401.6363-.561 1.1931-.401.5567.16.8749.561.7953.961z"/><path d="m64.1325 111.805c0 .401-.4772.721-1.034.721-.5567 0-1.0339-.32-1.0339-.721s.4772-.721 1.0339-.721c.5568 0 1.034.32 1.034.721z"/><path d="m67.7911 111.164c.0796.401-.3181.801-.8749.881-.5567.081-1.0339-.16-1.1135-.56-.0795-.401.3182-.802.8749-.882.5568-.08 1.034.16 1.1135.561z"/><path d="m190.125 70.1023h8.466c-.256-9.3182-8.494-16.0796-20.313-16.0796-11.676 0-20.625 6.6762-20.625 16.7046 0 8.0966 5.796 12.8409 15.142 15.3693l6.875 1.875c6.222 1.6477 11.023 3.6932 11.023 8.8636 0 5.6818-5.426 9.4318-12.898 9.4318-6.761 0-12.386-3.011-12.897-9.3465h-8.807c.568 10.5395 8.722 17.0455 21.761 17.0455 13.665 0 21.534-7.188 21.534-17.0455 0-10.483-9.346-14.5455-16.733-16.3637l-5.681-1.4772c-4.546-1.1648-10.597-3.2955-10.569-8.8637 0-4.9432 4.517-8.6079 11.677-8.6079 6.676 0 11.42 3.125 12.045 8.4943z"/><path d="m226.775 113.881c12.301 0 20.341-9.006 20.341-22.5003 0-13.5796-8.04-22.5852-20.341-22.5852s-20.341 9.0056-20.341 22.5852c0 13.4943 8.04 22.5003 20.341 22.5003zm.029-7.131c-8.04 0-11.79-7.017-11.79-15.3977 0-8.3523 3.75-15.4546 11.79-15.4546 7.983 0 11.733 7.1023 11.733 15.4546 0 8.3807-3.75 15.3977-11.733 15.3977z"/><path d="m274.178 113.881c10.313 0 16.989-6.193 17.927-14.6878h-8.267c-1.08 4.7158-4.745 7.4998-9.603 7.4998-7.187 0-11.818-5.994-11.818-15.5112 0-9.3466 4.716-15.2272 11.818-15.2272 5.398 0 8.693 3.409 9.603 7.5h8.267c-.91-8.8069-8.097-14.6591-18.012-14.6591-12.301 0-20.255 9.2613-20.255 22.5852 0 13.1533 7.67 22.5003 20.34 22.5003z"/><path d="m300.388 113h8.495v-43.6364h-8.495zm4.29-50.3693c2.926 0 5.369-2.2727 5.369-5.0568s-2.443-5.0853-5.369-5.0853c-2.954 0-5.369 2.3012-5.369 5.0853s2.415 5.0568 5.369 5.0568z"/><path d="m332.209 113.966c7.216 0 11.279-3.665 12.898-6.932h.341v5.966h8.295v-28.9773c0-12.6988-10-15.2272-16.932-15.2272-7.897 0-15.17 3.1818-18.011 11.1363l7.983 1.8182c1.25-3.0966 4.432-6.0795 10.142-6.0795 5.483 0 8.295 2.8693 8.295 7.8125v.1988c0 3.0966-3.181 3.0398-11.022 3.9489-8.267.9659-16.733 3.125-16.733 13.0393 0 8.58 6.449 13.296 14.744 13.296zm1.847-6.818c-4.801 0-8.267-2.159-8.267-6.364 0-4.5454 4.034-6.1647 8.949-6.8181 2.755-.3693 9.289-1.1079 10.511-2.3295v5.625c0 5.1706-4.119 9.8866-11.193 9.8866z"/><path d="m372.751 54.8182h-8.494v58.1818h8.494z"/><path d="m413.211 54.8182h-8.778v58.1818h8.778z"/><path d="m424.513 113h8.495v-26.9034c0-5.8807 4.119-9.9716 8.949-9.9716 4.715 0 7.983 3.125 7.983 7.8693v29.0057h8.465v-27.8125c0-5.2557 3.211-9.0625 8.75-9.0625 4.489 0 8.182 2.5 8.182 8.4091v28.4659h8.495v-29.2614c0-9.9715-5.569-14.9431-13.466-14.9431-6.279 0-10.995 3.0113-13.097 7.6704h-.454c-1.904-4.7727-5.91-7.6704-11.733-7.6704-5.767 0-10.057 2.8693-11.875 7.6704h-.54v-7.1023h-8.154z"/><path d="m494.417 129.364h8.494v-23.154h.511c1.534 2.784 4.659 7.642 12.614 7.642 10.568 0 18.238-8.466 18.238-22.5849 0-14.1478-7.784-22.4716-18.323-22.4716-8.097 0-11.023 4.9431-12.529 7.642h-.71v-7.0739h-8.295zm8.323-38.1822c0-9.1193 3.978-15.1704 11.392-15.1704 7.699 0 11.563 6.5057 11.563 15.1704 0 8.75-3.977 15.4262-11.563 15.4262-7.301 0-11.392-6.25-11.392-15.4262z"/><path d="m555.69 113.966c7.216 0 11.279-3.665 12.898-6.932h.341v5.966h8.295v-28.9773c0-12.6988-10-15.2272-16.931-15.2272-7.898 0-15.171 3.1818-18.012 11.1363l7.983 1.8182c1.25-3.0966 4.432-6.0795 10.142-6.0795 5.483 0 8.296 2.8693 8.296 7.8125v.1988c0 3.0966-3.182 3.0398-11.023 3.9489-8.267.9659-16.733 3.125-16.733 13.0393 0 8.58 6.449 13.296 14.744 13.296zm1.847-6.818c-4.801 0-8.267-2.159-8.267-6.364 0-4.5454 4.034-6.1647 8.949-6.8181 2.755-.3693 9.29-1.1079 10.511-2.3295v5.625c0 5.1706-4.119 9.8866-11.193 9.8866z"/><path d="m606.119 113.881c10.313 0 16.989-6.193 17.926-14.6878h-8.267c-1.079 4.7158-4.744 7.4998-9.602 7.4998-7.188 0-11.818-5.994-11.818-15.5112 0-9.3466 4.716-15.2272 11.818-15.2272 5.398 0 8.693 3.409 9.602 7.5h8.267c-.909-8.8069-8.096-14.6591-18.011-14.6591-12.301 0-20.256 9.2613-20.256 22.5852 0 13.1533 7.671 22.5003 20.341 22.5003z"/><path d="m652.698 69.3636h-8.949v-10.4545h-8.494v10.4545h-6.392v6.8182h6.392v25.7672c-.028 7.926 6.023 11.761 12.727 11.619 2.699-.028 4.517-.54 5.512-.909l-1.534-7.017c-.568.114-1.62.369-2.983.369-2.756 0-5.228-.909-5.228-5.823v-24.0062h8.949z"/></g></svg>