<?xml version="1.0" encoding="UTF-8"?>
<svg width="41px" height="40px" viewBox="0 0 41 40" version="1.1" xmlns="http://www.w3.org/2000/svg" xmlns:xlink="http://www.w3.org/1999/xlink">
    <!-- Generator: Sketch 59.1 (86144) - https://sketch.com -->
    <title>path-1</title>
    <desc>Created with Sketch.</desc>
    <g id="Page-1" stroke="none" stroke-width="1" fill="none" fill-rule="evenodd">
        <g id="Seed-Bank-v3" transform="translate(-819.000000, -9710.000000)" fill="#24292E">
            <g id="Email-Sign-Up" transform="translate(471.000000, 9710.000000)">
                <path d="M348,20.5081393 C348,29.5665933 353.873248,37.2520346 362.020521,39.9646468 L362.020521,39.9646468 C363.046113,40.1523754 363.419853,39.519286 363.419853,38.975005 L363.419853,38.975005 C363.419853,38.4891968 363.402307,37.1988375 363.392217,35.4886169 L363.392217,35.4886169 C357.690486,36.727098 356.486797,32.7390745 356.486797,32.7390745 L356.486797,32.7390745 C355.55464,30.3698254 354.210579,29.7402532 354.210579,29.7402532 L354.210579,29.7402532 C352.349336,28.4674798 354.35139,28.4929792 354.35139,28.4929792 L354.35139,28.4929792 C356.409154,28.6389415 357.491334,30.6063547 357.491334,30.6063547 L357.491334,30.6063547 C359.319678,33.7397075 362.288543,32.8344776 363.457578,32.3108599 L363.457578,32.3108599 C363.64401,30.9857686 364.172598,30.081418 364.75865,29.5692311 L364.75865,29.5692311 C360.207091,29.0517685 355.421287,27.2918679 355.421287,19.4340856 L355.421287,19.4340856 C355.421287,17.1958508 356.220091,15.3651673 357.531691,13.9319233 L357.531691,13.9319233 C357.319817,13.4131417 356.616641,11.3283432 357.731721,8.50450075 L357.731721,8.50450075 C357.731721,8.50450075 359.453031,7.95318541 363.369407,10.6068851 L363.369407,10.6068851 C365.004301,10.1509728 366.758511,9.92455542 368.501316,9.91620216 L368.501316,9.91620216 C370.241489,9.92455542 371.996138,10.1509728 373.633225,10.6068851 L373.633225,10.6068851 C377.547408,7.95318541 379.26477,8.50450075 379.26477,8.50450075 L379.26477,8.50450075 C380.383797,11.3283432 379.680183,13.4131417 379.468748,13.9319233 L379.468748,13.9319233 C380.782541,15.3651673 381.57652,17.1958508 381.57652,19.4340856 L381.57652,19.4340856 C381.57652,27.3120916 376.783258,29.0456135 372.216346,29.5529643 L372.216346,29.5529643 C372.95286,30.1860537 373.608221,31.4377241 373.608221,33.3506213 L373.608221,33.3506213 C373.608221,36.0909311 373.582779,38.3027872 373.582779,38.975005 L373.582779,38.975005 C373.582779,39.5241221 373.952132,40.1624872 374.992639,39.9624486 L374.992639,39.9624486 C383.1307,37.2445607 389,29.5639554 389,20.5081393 L389,20.5081393 C389,9.18067539 379.820994,0 368.499123,0 L368.499123,0 C357.179006,0 348,9.18067539 348,20.5081393 L348,20.5081393 Z" id="path-1"></path>
            </g>
        </g>
    </g>
</svg>