<svg width="729" height="510" viewBox="0 0 729 510" fill="none" xmlns="http://www.w3.org/2000/svg">
<path d="M0 318H40V358H0V318Z" fill="#72DC8A"/>
<path d="M254 0H294V40H254V0Z" fill="#FA634E"/>
<path d="M536 144H576V184H536V144Z" fill="#F7CF46"/>
<path d="M164 68H204V108H164V68Z" fill="#7A31F5"/>
<path fill-rule="evenodd" clip-rule="evenodd" d="M164 201.653V124H204V201.653C204 276.912 264.889 337.921 340 337.921H729V378H340C242.798 378 164 299.047 164 201.653Z" fill="#101010"/>
<path fill-rule="evenodd" clip-rule="evenodd" d="M560.585 308.056L541 307.894L541.595 236L561.181 236.162C622.532 236.671 672 286.592 672 347.997V434H600.164V347.997C600.164 326.067 582.497 308.238 560.585 308.056Z" fill="#F5F4ED"/>
<path fill-rule="evenodd" clip-rule="evenodd" d="M254 194.627V56H294V194.627C294 225.374 318.79 250.37 349.536 250.625L560.796 252.376C613.503 252.813 656 295.664 656 348.373V510H616V348.373C616 317.626 591.21 292.63 560.464 292.375L349.204 290.624C296.497 290.187 254 247.336 254 194.627Z" fill="#101010"/>
<path fill-rule="evenodd" clip-rule="evenodd" d="M116.5 358H56V318H116.5C165.101 318 204.5 357.399 204.5 406V510H164.5V406C164.5 379.49 143.01 358 116.5 358Z" fill="#101010"/>
<path fill-rule="evenodd" clip-rule="evenodd" d="M499 409H729V481H499V409Z" fill="#F5F4ED"/>
<path fill-rule="evenodd" clip-rule="evenodd" d="M249 505C249 460.817 284.817 425 329 425H729V465H329C306.909 465 289 482.909 289 505V510H249V505Z" fill="#101010"/>
<path fill-rule="evenodd" clip-rule="evenodd" d="M366 224C366 170.981 408.981 128 462 128H520V200H462C448.745 200 438 210.745 438 224V510H366V224Z" fill="#F5F4ED"/>
<path fill-rule="evenodd" clip-rule="evenodd" d="M382 224C382 179.817 417.817 144 462 144H520V184H462C439.909 184 422 201.909 422 224V510H382V224Z" fill="#101010"/>
<path fill-rule="evenodd" clip-rule="evenodd" d="M450 394H354V322H450V394Z" fill="#F5F4ED"/>
<path fill-rule="evenodd" clip-rule="evenodd" d="M450 378H354V338H450V378Z" fill="#101010"/>
</svg>
