<svg xmlns="http://www.w3.org/2000/svg" width="375" height="121" fill="none"><g fill="#E36F1E"><path d="M121.627 57.9v-.7c0-.3.1-.6.1-1 .1-.5 0-1 0-1.4v-.9c-.1-.4-.1-.7-.1-1.1 0-.3 0-.6.1-.9 0-.4-.2-.6-.4-.9.1-.3 0-.7.1-1.1-.5-.2-.1-.6-.2-1-.1-.2 0-.4-.3-.3 0-.4 0-.7-.3-.9l.1-.1c.1-.4-.2-.7-.3-1-.2-.2-.4-.4-.7-.3 0 .1 0 .1-.1.2-.1 0-.2.1-.2-.1.2-.2.3-.7.7-.6-.1-.4.2-1-.2-1.2.3-.8-.5-1-.3-1.8-.5-.1-.2-.6-.2-.9-.5 0-.1-.6-.3-.7-.4-.3.1-.9-.4-1.2.3-.6-.5-.6-.2-1.2-.3-.1-.3-.4-.2-.7-.2-.1-.3-.3-.2-.5-.4-.2.1-.8-.4-.9 0-.1 0-.1.1-.2l-.3-.4c.1-.2-.2-.3-.2-.5l.1-.1c0-.2-.1-.2-.2-.3.1-.4-.4-.3-.2-.7-.4-.1-.1-.6-.5-.7 0-.4-.6-.5-.5-.9-.4-.1-.1-.6-.5-.7 0-.4-.4-.6-.3-1-.5 0 0-.7-.5-.7 0-.4-.4-.7-.3-1.1-.4 0 0-.5-.4-.6-.2-.3-.1-.9-.5-1.1.1-.2-.2-.3-.3-.5l.1-.1c-.1-.2-.1-.2-.2-.3.1-.4-.3-.5-.5-.7.2-.4-.3-.4-.4-.7.1-.5-.6-.6-.8-1-.1-.6-.9-.9-1-1.5l-2.2-2.3c-.6-.1-1-.8-1.5-1.2h-.3l-1.1-1.2h-.2c-1.1-.9-1.9-2-2.9-2.8-.2-.1-.6-.1-.7.1-.1.1-.2 0-.3.1-.2.5-.8.1-1.1.3-.5-.2-.7.1-1.1.4-.2-.1-.3.1-.5.2h-.1c-.2-.1.3-.3.2-.6.5-.2 0-.9.5-1l-.5-.1c-.1-.4.5-.2.2-.6.2-.3.2.2.4.1-.1-.3-.3-.4-.6-.7-.1 0-.3 0-.4-.1 0-.3-.1-.7.3-.7l-.3-.3c-.2-.5.3-.3.5-.5l-.1-.1c-.3-.2-.2.3-.4.3s-.2-.2-.2-.4c0-.1.2-.2.2-.3.2-.4-.3-.3-.3-.6l-.3.2c-.2-.2-.3-.2-.4-.4-.5.2-.5-.6-1.1-.3-.2-.7-.9-.3-1.2-1-.2 0-.4-.1-.5-.2-.5.2-.4-.4-.7-.5-.2.1-.3-.1-.5-.2-.1 0-.3-.1-.4.1-.5-.2-.6-1-1.2-.7-.1-.1-.2-.1-.2-.3h-.3c-.1-.1-.2-.1-.2-.2-.4-.1-.9.2-1.2-.2-.6-.1-1.4.2-1.7-.2-.2 0-.3 0-.4.2-.3.1-.1-.3-.2-.4-.6.3-.7-.5-1.2-.2-.1-.1-.2-.1-.2-.2h-.3c-.1-.1-.2-.1-.2-.3h-.3c-.1-.1-.2-.1-.2-.2-.1 0-.3 0-.4-.1 0-.4-.4 0-.6-.3-.1-.2-.5 0-.6-.4-.3-.1-.2.3-.5.2-.2-.1-.1-.2-.1-.4-.2-.2-.5-.6-.7-.6-.2-.1-.3-.4-.5-.2-.2-.4-.8-.2-.9-.7-.4.1-.4-.4-.8-.3-.1-.4-.7 0-.7-.4-.3.1-.3-.4-.7-.3-.1-.4-.6-.1-.7-.5-.4.2-.4-.4-.7-.2-.1-.1-.2-.1-.2-.2h-.5c-.2-.5-1 0-1.2-.5h-6.1c-.1-.2-.2-.3-.4-.2-.3.2-.3-.4-.7-.3-.4-.1-.2.3-.4.5-.1 0-.4.1-.4-.1.1-.4-.4-.5-.5-.8l-7.7-.1c-.2.5-.6.2-1 .2-.3.3.1.8-.3 1.1-.3-.1-.4-.3-.6-.6l-.1.1v.3c-.2.1-.2.4-.4.4-.1-.5-.6-.1-.7-.5l-.4.5c-.3.1-.1-.3-.4-.2v.1c.3 0 .2.4.5.4 0 .1-.1.1-.1.2-.2.1-.1-.2-.2-.2s-.1.1-.2.1h-.2c0-.1-.1-.1-.1-.2-.1 0-.1 0-.2.1-.1-.1-.3-.1-.2-.2.1 0 .1-.1.2-.1 0-.3-.7-.1-.4-.6-.3-.2-.6 0-.9.2-.4-.1-1-.2-1.2.2l-.1-.1c-.3.1-.8-.2-.9.2-.1.1-.2.1-.3.1-.1 0-.3-.1-.4.1-.1.3-.6.1-.9.2-.2.5-1 0-1.1.5-.6-.3-.8.5-1.3.3-.2.3-.7.1-1 .2.1.3-.2.7.1.9.2-.6.4.2.7 0 .3.6.9.3 1.2.9.1.1.3.1.4 0l.3.2c.1.3-.2.3-.3.6.2.1.4 0 .6.1.2.1.2.3.3.4.6-.1-.1.8.6.6.2-.4-.6-.4-.4-.9.3-.4.5.4.8.3.5 0 .1.5.3.7h.1c.1-.1 0-.3.3-.3.1 0 0 .2.1.3-.1.1-.2.1-.2.1 0 .1 0 .3.1.4.5-.1.7.2.9.4.2.1.5.1.7 0 0 .2.2.3.3.4 0 .1-.1.2-.2.2-.2.3.3 1.2-.5 1-.2.3.1.6.2.9l-.9.1c0 .2 0 .4.2.4 0 .3-.5.5-.6.7-.2-.1-.1-.3-.3-.2 0 .1-.2.2-.2.3.2.8-.7.9-1 1.4.1 0 .2.4.4.3v-.1c.1-.3.5-.1.7-.2-.3-.8.8-.8.8-1.5.2-.1.2-.4.4-.4.1.2.5.4.3.7-.1.1-.2.3-.4.3.1.3-.2.4-.2.6.5.3-.2.5-.2.7.3 0 .3.2.5.4-.1.1-.1.2-.2.1-.3-.3-.5-.6-.8-.7-.1.1-.4-.1-.4.1.1.1.2.1.2.2l-.2.3.3.3c.4-.1.6.6.8 0 .2.2.3.6.7.5.5.2.1-.4.5-.5.3.2.4.6.4 1-.1.1-.1.3-.3.3v.2c.1 0 .3 0 .4.1 0 .2-.2.3-.4.5-.1-.1-.2-.1-.2-.2-.4-.2-.3.3-.5.4-.1 0-.3.1-.4-.1-.1-.2.2-.1.2-.3-.2-.3-.5-.7-1.1-.6-.1-.3-.2-.5-.4-.7-.4-.2-.4.2-.6.4.2.2.4-.1.6-.2.2.3.1.9.1 1.2-.1.1-.4.1-.5-.1 0-.1.2-.2.3-.3 0-.1 0-.2-.1-.3-.3 0-.7-.1-.8.3l.1.1c.1.1.1.3-.1.4l.4.5h.2v-.1c-.1 0-.2 0-.2-.1.2-.3.3 0 .6-.1.2 0 .1-.3.4-.2.2.1.1.4.1.6h.1l.1-.9c.3.1.4.5.7.6l-.6.6c-.6-.1-.3.7-.8.8-.4.1-.1-.4-.3-.4 0-.5-.7-.1-.7-.6-.1 0-.1.1-.1.2l.1.1c.2.2-.2.7.3.8-.3.7.6.1.6.6.4.2.3-.4.7-.2.1.1.2.1.2.2h.1c0-.5.6 0 .7-.5.2.1.2.3.1.4.3.1.4-.2.6-.4.3-.2.3.3.6.2.2-.3.4-.6.7-.8.2-.4-.4-.4-.2-.7.1-.1.1-.2.2-.2v-.5c.1-.1.1-.2.2-.2l.1-.9c.2 0 .2-.2.2-.4 0-.1-.1 0-.1-.1 0 .1-.2.3-.3.2l-.1-.1.7-.7v-.1c.1-.1.2-.1.3-.2-.5-1 .9-1.1.7-1.9.3-.2.5-.7.9-.7 0-.4.3-.6.6-.9 0 .1-.1.3-.3.2 0 .2 0 .4.2.4.3 0 .2-.3.3-.5.4 0 .2.6.6.7l.2-.3c.5.2.3-.3.5-.5.1 0 .1-.2.1-.4.8-.4.3-1.5.4-2.2h-.1c0 .1-.1.2-.2.3-.2-.1-.2-.2-.1-.3.2-.2.3-.4.7-.4 0-.3-.4 0-.5-.2 0-.1.1-.1.1-.2.4.1.5-.4.9-.3l-.2-.3c.6-.3.3-.9.9-1.1.1.1.2.1.2.3.3 0 .6.1.8-.3l.5.5.2-.2.1.2c.7-.2.2.6.7.7-.1.1-.1.2-.2.2v.3c.2.1.3.3.5.4 0 .1-.1.2-.1.2-.2.1-.2-.2-.3-.2-.7-.3-.1.6-.6.6l.2.2-.2.3c.1.1.2 0 .4.1.1.2.5.3.4.6.1.2-.1.4-.2.4l.2.3c-.1.2-.3.3-.2.5-.9.2-.3 1.3-.5 1.9-.1 0-.1.1-.2.1.1.2-.2.1-.2.3.2.1.3.3.2.6.4.1 0 .6.4.6 0 .2-.3.3-.4.4-.1-.3-.4-.2-.4-.5-.6-.2-.1.5-.6.6-.1.3.3.3.2.6-.5.1-.1.6-.5.7-.1.4-.3.6-.3 1.1-.1.1-.4.2-.4.4.2.4-.7.7 0 .9-.1 0-.1.1-.1.2-.3.1-.1.6-.4.7-.1.4.5.6.2 1.1-.5.3-.2-.5-.6-.6-.7.1-.1.9-.6 1.1.2.1.3.2.3.4-.1.2-.3.2-.5.2-.2.4.4.4.2.7-.2.2-.4.4-.7.4 0 .2.2.1.2.2.1.2-.2.1-.2.3.1.3-.4.4-.2.8-.7.2.2.4.2.7-.1.2-.4.1-.6.1-.1-.1-.2-.1-.2-.3-.4 0 0 .7-.4.7.2.5-.6.7-.1 1-.4.1 0 .9-.7.6v.2c.1 0 .1.1.2.1-.1.5.3.3.5.5 0 .1.1.4-.1.4-.4-.2-.4.4-.7.3-.3.2-.3.5-.3.9.3.1.1.5.4.6 0 .5.2.8.3 1.2-.2-.2-.3-.3-.3-.5-.3-.3-.4-.7-.7-.9.2-.5-.3-.7-.4-1 .1 0 .1-.1.2-.1-.1-.6-1-.5-.7-1.3-.7.2-.4-.6-.6-1-.2-.2-.3-.4-.6-.4 0-.1.2-.2.2-.2-.3-.2-.6-.8-1.1-.9-.1-.2-.6-.2-.4-.6.3-.4.4.3.7.3.1-.3 0-.6.1-.9h-.2c0 .1-.1.1-.1.2-.1.1-.3 0-.4-.1.3-.2.2-.5.3-.7-.4-.1-.1-.6-.5-.7.2-.7-.7-.9-.9-1.4 0-.2-.1-.5-.4-.4-.2-.6-.8-.5-1.2-.8 0-.3.3-.2.4-.3-.3-.1-.4-.2-.7-.4.1-.3-.2-.3-.3-.6l.3-.3c-.1-.1-.2-.1-.3-.2.2-.4-.4-.3-.2-.7-.5-.3-.1-1.1-.3-1.5h-.3c-.2-.1-.1-.3-.1-.4-.3-.2-.5-.4-.8-.3-.1-.1-.2-.2-.2-.4.1-.1.1-.2.2-.2v-.6c-.2 0-.3.1-.4-.1-.2-.3.3-.2.2-.4h-.6c-.2-.1-.1-.2-.1-.4-.4-.3-1-.8-.7-1.4-.1-.2-.4-.1-.6-.1-.2-.1-.1-.2-.1-.4-.2-.1-.3-.5-.6-.4-.3-.4.1-.7.1-1.1.6-.3.4-.9.9-1.2l-.4-.1c0-.5.6-.1.4-.6.1-.2.3-.1.4-.1v-.2h-.3c-.1-.3-.3-.5-.3-.9-.1-.1-.2-.1-.3-.1-.2-.2-.6-.5-.7-.7.4 0 .1-.6.4-.6 0 .1.2.1.1.2h.2V4c.2-.2.5-.4.9-.3v-.2h-.3c-.2-.1-.1-.2-.1-.4-.1-.5-.8-.4-1-.1-.4-.1-.5.3-.7.5-.4-.1-.5.3-.7.5-.3 0-.7-.1-.7.2-.3 0-.7.1-.9-.1-.1.4-.7.1-.7.6-.1 0-.1 0-.2-.1l-1.5 1.5c-.4-.1-.5.4-.8.3-.2.4-.6 0-.8.3-.5-.1-.7.6-1.3.4-.2.3-.7.1-1 .2 0 .2-.3.3-.5.3-.1.4-.5.2-.7.2-.1.2-.3.3-.5.3-.1.4-.7.4-.9.7-.3 0-.5.3-.7.5-.3-.2-.4.3-.6.4-.4-.1-.5.3-.7.5-.4-.1-.6.5-1 .7-.4-.1-.5.3-.7.5-.5 0-.7.7-1.2.7.1 0-.5.4-.6.4-.2.2-.2.4-.3.6-.1.2.1.8-.1 1-.1.1-.2.2-.3.2-.2.1-.1.4-.3.6-.1.1-.1.2-.2.3-.1 0-.2.1-.3.1-.1.1-.1.2-.2.2-.1.1-.2.1-.3.2-.1.1-.1.3-.2.4-.2.3-.5.4-.7.6-.1.1-.1.2-.3.3-.1.1-.2 0-.2.1-.1.1-.1.1-.1.2-.1.2-.1.2-.3.3-.2.1-.4.1-.5.2-.2.1-.2.5-.4.6-.2.1-.3 0-.5.2-.1.1-.2.2-.2.4-.1.1-.2.2-.3.4-.2.2-.6.2-.7.4-.1.4-.7.3-1 .6-.1.1.9.3.9.4-.1.2-.5.1-.7.1-.1.2.1.2.2.2 0 .1-.1.2-.1.2-.1 0-.2-.1-.2-.1v.3c.5-.1.5.5 1 .2.4.4-.3.4-.4.7.1 0 .1.1.1.1-.3 0-.6.1-.6-.2h-.2c0 .1 0 .1-.1.2-.2.2-.5 0-.6-.2-.2-.1-.4.2-.6-.1.1-.2-.2-.2-.3-.2l-1.5 1.5c0 .6-.5.7-.8 1.1.1.2-.1.4-.2.4-.3.1-.2.5-.4.7-.3.2-.3.5-.6.7.1.5-.5.6-.5 1-.4.1-.1.6-.5.7.2.4-.4.4-.3.7-.1.1-.1.2-.2.2v.3c-.4.1-.1.6-.5.7.2.4-.4.4-.2.7-.4.1-.1.6-.5.7.2.4-.4.4-.3.7-.1.1-.1.2-.2.2v.3c-.1 0-.1.1-.2.1.2.4-.4.4-.2.8-.3.1-.2.4-.4.6-.1 0-.1.2-.1.4-.3.1-.1.5-.4.6.1.4-.3.5-.5.7 0 .2 0 .4-.3.5.1.4-.4.3-.2.7-.4.1-.1.5-.5.7.2.4-.4.4-.2.7-.4.1-.1.6-.5.7.2.6-.5.1-.6.6-.4-.2-.3.3-.6.4 0 .4.5.5.4 1-.1.2-.2.1-.4.1-.3.2-.4.6-.8.7.6.2-.2.5 0 .8-.1 0-.1.1-.2.1-.1.2-.1.4-.3.6.1.1.2.3.4.2.2-.1-.1-.2 0-.3.1 0 .1-.1.2-.1.1.3.4.1.6-.1l.1.1c.3 0 .1-.3.2-.4.1 0 .2-.2.3-.1.3 0 .7.1.8-.2.9-.1 1.3.9 1.9 1.4l-.3.4c-.3.1-.2-.4-.6-.2-.3.2-.5-.5-.9-.2-.2.3-.9.5-.6 1.1-.3.2-.3.8-.9.7-.1-.5-.7-.2-1-.2-.2-.2-.3-.5-.4-.7-.1 0-.2-.1-.3.1.1.4-.4.3-.3.7-.4.1-.1.6-.5.7 0 .3-.4.5-.2.9-.4.1-.1.6-.5.7 0 .4-.4.6-.2 1-.3.1-.2.4-.4.6.2.6-.5.7-.4 1.4-.3.1-.1.6-.2.9-.5.2 0 1-.5 1.2.3 1-.5 1.5-.2 2.4-.4.2-.2.9-.2 1.3h.1c.1.1 0 .2.1.4-.1 0-.1.1-.2.1v.2l.3-.1c.1.1.2.1.1.3-.3.1-.1.5-.4.6l-.1.8c.2.1.2.4.4.4v-.1c.1-.3.5-.1.7-.2.1.2.2.5.4.7.3-.6 1 .2 1.2-.4.2.5.8-.1 1 .4.3.1.3-.1.4-.3.1 0 .2.1.2.1 0 .2-.2.1-.2.2-.1.2.1.2.2.3.1.2.3.2.4.1.1.1.2.1.1.2-.1 0-.1.1-.2.1.1.2.2.3.2.6-.2.3-.3-.1-.5-.1l-.1.1c.5.1.1.6.5.7 0 .1 0 .2-.1.3-.3.6-.5-.2-.7-.3l-1.8.6c0 .2.2.4.3.6.3 0 .7-.1.7.2.3.1.4-.2.6-.2.1-.4-.4 0-.5-.3.4-.4.7-.7 1.2-.9.1-.2-.2-.1-.2-.3 0-.2-.1-.5.1-.6.2-.1.1.2.3.2.3.1.2-.4.6-.2.1.2 0 .4.1.6 0 .1.3.1.3.3-.2.1-.3.3-.5.4.1.2.3.1.2.3-.1 0-.2.2-.3.1-.2 0-.2-.3-.4-.3l-.1.1c.2.4-.4.4-.3.8.4 0 .1.5.4.6.2-.4.6-.2.8-.6-.1-.1-.3-.1-.2-.3 0-.1.1-.1.2-.1.1.1.2.1.1.2h.6l.4-.5.2.1c.2.3-.3.4-.3.6h.3c.2.1.1.3.1.4.4 0 .1.6.6.7l-.2.1c-.1-.1-.2-.1-.2-.2-.4 0 0 .6-.4.7 0 .2-.1.5.1.6.1.3.4.1.6-.1l.1.1c.1 0 .2.1.2-.1 0 .1.1.1.2.1l.1.7h.3c.1.1.2.1.2.2h.1v-.1c.1-.1.2-.3.4-.2.1.1.2.1.2.2.2 0 .2-.1.2-.2.1 0 .1.1.1.2-.1.2-.3.1-.4.1-.2.8-1.1.3-1.4 1 0 .1.1.4-.1.4-.5-.2-.7.2-1 .5-.5-.2-.2.5-.6.6 0 .1 0 .1.1.2l-.2.2-.3-.2c-.1.2-.3.4-.5.5-.1.4-.9.6-.5 1.1-.1.4-.5.1-.7.2.2.6-.7.2-.5.7-.1.1-.1.2-.2.2 0 .1.1.4-.1.4-.4-.1-.6.4-.9.6.1.4-.4.4-.3.9-.6.2-.3 1.3-1.2 1-.1.9-.1 1.9 0 2.8.2-.1.2.1.3.2-.1.3-.1.8.2 1-.2.4.1.7.2 1.1.3.1.2.5.4.6.2.1 0 .5.4.6-.2.4.4.4.4.7-.2.4.5.3.3.8.5 0 0 .7.5.7-.3.5.5.3.2.8.5.2 0 .9.4 1.1.3.6.1 1.5.5 2 0 .2.1.4-.1.6.6.3.1.8.3 1.2.7.2-.2 1.1.6 1.4l-.1.1c.1.4-.2.9.3 1.1-.1.1 0 .2-.1.4.5.2 0 1 .5 1.2-.2.4.4.4.2.7.2.1.3.5.6.4.2.3.7.5.6.9.5.1.1.6.5.7-.2.4.4.4.2.7.4.1.1.5.4.7-.2.4.4.6.5.8-.1.1-.1.2.1.3.2.1 0 .5.4.6-.2.5.5.4.3.8.4.1 0 .6.4.6-.1.4.3.5.5.7 0 .2.1.4.3.5-.1.4.3.5.5.7-.1.5.6.5.5 1.1.3.3.7.4.7.9.6.8 1.5 1.5 2.1 2.2l.2.1c.5.6 1 1.1 1.5 1.6.2.1.1-.3.4-.2 0 .1.2.1.1.2h.1v-.1c.1-.1.2 0 .3-.1.1-.2.7-.3.4-.7-.4.2-.3-.4-.7-.3.4-.4-.4-.6-.4-.9.1-.1.2 0 .4-.1.2.3.5.5.4.9.2 0 .3.1.4.1.1.2.3.3.4.4.1-.3-.2-.2-.3-.4 0-.1 0-.3.1-.4l.6.5c.1-.2.3-.3.5-.2 0 .1.1.1.1.2.2.1.5.1.7 0-.1-.4-.5-.3-.7-.5.1-.2.3-.4.4-.4.1.1.2.1.2.3h.5c.2-.1.1-.2.1-.4-.3-.3-.1.3-.4.2-.1 0 0-.2-.1-.2.3.1.2-.5.6-.3.1.1.2.1.2.3h.1c.1-.1 0-.3.1-.4.1-.2.2-.1.4-.1.1-.5.6-.1.7-.5.1.1.2.1.2.3h.3l.1-1.2c.2-.1.2.2.4.2l.1-.2c.2-.1.2.3.4.2 0-.1.1-.2.2-.3.3 0 .6 0 .7.3.2-.3-.3-.3-.4-.5 0-.5.4 0 .5-.3-.1-.2-.3-.1-.2-.3.2 0 .3-.5.6-.3.2.2.5.3.4.7.1 0 .1 0 .2-.1s.3-.4.4-.6c-.1 0-.3 0-.4-.1 0-.4.5-.1.6-.2 0-.2-.3-.2-.2-.4.3-.1.7 0 1.1-.1.2.1.1.3.1.4-.3.4-.3-.4-.7-.1v.2c.2 0 .3.3.4.3 0 .3-.4.3-.5.6.2.2.3.3.5.4-.2.5.5.3.2.8.2 0 .3-.2.4-.3 0-.1.1-.3-.1-.4l-.4.3c-.1-.2 0-.5-.3-.6 0-.2.2-.2.3-.4.3 0 .4-.2.6-.3.2.1.1.3.1.4.3.1.1-.3.2-.4.1 0 .2.1.3.1-.2.4.4.4.4.7l-.2.1c0 .1 0 .1.1.2l.2-.3c.1 0 .3 0 .4.1.1.2-.2.1-.3.3 0 .1.1.1.2.1.1-.3.4-.2.6-.2.4.3-.3.5-.2.7.1 0 .1.1.2.1.1.2-.2.1-.2.2s0 .1.1.1c.2.1.1-.2.2-.2.4 0 .7-.3 1.1-.3 0-.2 0-.3.2-.4.3-.1.3.3.6.3 0-.2-.1-.4.1-.5.2 0 .2.4.5.2.1 0 .1-.2.1-.3.5.1 0 .8.5.9.1.2-.1.4-.2.6l.2.2-.2.3.2.2c0 .2-.1.4-.2.5-.1.3.3.5.5.7.1.2-.2.1-.3.3l.3.2-.3.2c.3 0 .3.3.5.4l-.2.3c.1.1.2.1.2.2.1.3-.1.4-.2.6.6.2.5.9.5 1.4.5.2 0 .8.5 1 .2.3-.3.3-.3.6.2 0 .3.2.4.3-.2.4.4.4.3.8.5.2.2.7.3 1 .2.1.3.2.2.4.3.4.5.8.7 1.2.1.2-.1.2-.2.2 0 .5.5-.1.7.3.1.2-.2.1-.2.3l.2.1c-.2.6.6.1.6.6l.5-.5.4.4-.2.3.9.1c0 .2.2.2.4.2.1-.1 0-.3.2-.2.2 1 1.3.1 1.7.7.1-.1 0-.2.1-.4.1-.1.1-.2.2-.1v.1c-.1 0-.1 0-.2-.1 0-.2.1-.3.2-.3.1-.4-.2-.3-.2-.6-.2-.1-.1.1-.2.2h.2c.1 0 0 .2.1.2-.3.2-.4-.3-.6-.4.1-.2-.1-.5.2-.6 0-.1 0-.3-.1-.4-.1.4-.5 0-.6-.1-.1-.2.3-.1.2-.4-.1 0-.2-.1-.2-.2l.2-.2c.4.3.5.8 1 1.1.1-.1.3-.1.4.1 0 .1 0 .1-.1.2-.3 0-.2.3-.2.5.2.2.4.5.7.6v-.1c-.5-.2.3-.3 0-.7-.2-.1-.1.3-.4.2-.4-.3.2-.5.3-.7.6-.2.1.6.6.6.1.2-.2.4-.3.5l.1.1c.3.1.3-.2.6-.2.2.1.2.3.4.2.2-.2-.2-.1-.2-.3.2-.6-.5-.2-.7-.4.2-.2.3-.5.3-.9-.3-.2-.1.3-.4.2-.1-.1-.2-.1-.1-.2.3-.1.2-.4.5-.4v-.2c0-.2.1-.3.2-.3l-.5-.6c.2-.3.8-.4.4-.8-.2 0-.1.2-.2.2l-.3-.2c-.2.2-.2.5-.6.5-.1 0 0-.2-.1-.3.3-.2.5-.5.7-.7l-.1-.1c-.3 0-.1-.4-.2-.6 0-.1-.3-.1-.3-.2.5-.1 0-.8.5-.9 0-.3.1-.6-.2-.7-.1-.2.2-.4.2-.5-.5-.2-.2-.7-.2-1-.2 0-.3-.2-.3-.4.1-.1.1-.2.3-.2v-.1c-.5-.1 0-.8-.5-.9-.2-.3.3-.3.2-.6-.5-.1 0-.8-.5-.9.1-.2.3-.1.3-.3-.5-.1 0-.8-.5-.9.1-.4-.3-.3-.2-.7.1-.1.1-.2.2-.2-.1-.2-.2-.6-.4-.7.1-.4-.4-.4-.3-.8.2-.2.2-.3.1-.4.1 0 .2-.1.3-.2.3-.1.3.2.6.2l.1-.1c0-.1 0-.2-.1-.3.1-.1.1-.2.3-.1.1.5.6.1.7.5.1-.1.1-.2.1-.3 0-.3.3-.2.5-.2.1-.2-.2-.3-.4-.4l-.1.3c-.1 0-.2-.1-.2-.1l.4-.4h.6c.1-.2-.2-.2-.2-.4l.4-.4c.1.1.2.1.2.2.4.2.5-.3.8-.5.1 0 .3 0 .4.1 0-.1.1-.1.1-.2-.1 0-.2 0-.3-.1 0-.1.1-.2.1-.2.3 0 .6-.2.8-.4l.1.1v.9c.5.4.2 1.2.2 1.8-.1 0-.1.1-.2.1l-.1.6c-.5.1-.2.7-.3 1.1.3.2.4.7.9.6.2.1.1.3.1.4.5.2.5.8.6 1.2.1.1.2.2.2.4-.1.1-.1.2-.3.2 0 .3.3.2.4.4.2.1.2.4.4.4.1-.1 0-.2.1-.3.2-.1.2-.4.4-.4.2.1.1.2.1.4-.1.1-.2.1-.3.2 0 .1 0 .1.1.2.3 0 .6.1.7-.2.3 0 .3.2.5.4.2.1.4 0 .5-.2.3 0 .4.4.6.4 0-.1.1-.1.1-.2.5.1.2-.4.6-.6.3-.1.3.2.5.3.2 0 .4-.1.6-.1.1.1.2.1.2.2.2 0 .3-.2.4-.3 0-.1.1-.2-.1-.3-.2 0-.2-.3-.2-.4.3-.3.4-.8.7-1l-.2-.2c0-.3-.1-.7.2-.7l-.2-.2c.3-.7-.5-1-.3-1.7-.3-.2-.1-.8-.2-1.2-.5-.1 0-.8-.5-.9 0-.3-.1-.7.2-.8l-.5-.4c-.1-.2.2-.3.2-.5-.4-.1-.2-.5-.2-.7-.4-.2-.1-.7-.2-1-.3-.1-.1-.5-.2-.7-.5-.1-.2-.7-.3-1-.5-.2 0-.9-.5-1.1.1-.1.1-.2.3-.2.1-.2-.2-.1-.3-.3.2-.5-.3-.7-.5-1 .1-.1.1-.2.2-.2 0-.2 0-.4-.2-.5l.2-.3c-.1-.1-.3-.2-.2-.4.1-.1.1-.2.2-.2 0-.4-.6-.3-.5-.7.1-.1.1-.2.2-.2l-.1-.6c-.3-.3-.1-.7-.2-1.1.1-.1.3-.2.2-.4-.1 0-.2-.1-.2-.2.1-.3-.2-.8.2-.9 0-.3-.5-.4-.4-.7.3-.2.2-.3 0-.5.1-.2.2-.5.5-.6.1-.2-.1-.4 0-.5.6-.3-.2-.5-.3-.8.1-.4 0-.9.1-1.4-.4-.2-.2-.4-.3-.7-.1-.1-.2-.3-.4-.3-.2.2-.6.4-.6.7 0 .2-.2.2-.4.2-.3 0-.1-.4-.3-.5-.3 0 0 .4-.2.5h-.3c-.2-.2-.5-.3-.7-.5l-.2.3c-.3.1-.3-.2-.6-.3l-.2.3-.3-.3-.2.3c-.4 0-.6.4-1 .2-.1.2.1.2.2.3 0 .2 0 .3-.2.3v.3c-.2.3-.5 0-.7.4-.2-.1-.1-.3-.1-.5h-.1c-.1.1 0 .2-.1.4s-.2.1-.4.1c-.1-.1-.1-.2-.1-.2-.1 0-.1 0-.2.1 0 .2.2.1.2.2-.1.5-.9.1-1.2.3-.1.1.1.3 0 .5-.4.2-.6.4-1 .6 0-.3-.4-.1-.6-.2-.1-.1-.2-.1-.2-.2h-.2c-.1.2-.3.3-.4.4-.4 0-.6.8-1.2.5-.1-.1-.1-.3-.3-.2-.1.7-1 .3-1.5.5v.3c-.1.2-.4.1-.6.1-.1.4-.6.1-.8.5-.1-.1-.1-.2-.2-.3-.2-.1-.4.2-.5.3l-.2-.3c-.1.5-.8 0-.6.6-.1.1-.1.2-.2.1-.1-.3-.2-.7-.6-.8.1-.4.7-.7.9-.9.1-.2 0-.4-.2-.5 0-.5.5 0 .8-.2l.4-.5c.2-.1.7.2.7-.2.3-.2.5-.5.8-.7.3-.1.3.2.6.3 0-.1.1-.2.2-.3l.3.3c0-.3.2-.5.4-.7.4-.2.4.4.7.2 0-.1.2-.2.1-.2 0-.2 0-.4.2-.5.8.4 1.1-.7 1.6-.9l.6.4c.1-.2.3-.3.5-.2.2-.3.7-.1 1-.2-.1-.5.4-.6.6-.9.3 0 .6 0 .7-.2.4 0 .6-.4 1-.2.1-.2.5-.3.4-.6.2-.1.3-.5.6-.4.2-.5.9-.3.8-.9.1 0 .1-.1.2-.1.3.7.7-.2 1.1 0 .3-.3.8-.6.9-1.1.1 0 .2-.2.2-.1.1 0 .2-.1.3-.1-.1-.2-.3-.1-.3-.3.1-.1.2-.1.3-.2-.1-.5.2-1.2-.3-1.4.1-.4-.2-1.1.3-1.3l-.3-.2.3-.3c-.2-.1-.5 0-.6-.3-.5.1-1.1-.2-1.4.3-.4.2-.3-.3-.7-.3-.3.8-1.3.1-1.5 1-.8-.3-.8.5-1.2.7l-.3-.2c-.1.1-.2.3-.4.2-.1-.1-.2-.1-.2-.2-.3 0-.2.4-.6.2-.3.2-.3-.3-.6-.2 0 .2-.2.2-.3.4 0 .2.2.3.3.4l-.9.9c-.2.2-.6-.1-.7.3-.5-.1-.9.2-1.3.3.2.9-.9.1-1.1.7l-.3-.2c-.3.2-.5.6-1 .4 0 .5-.6 0-.7.5l-.3-.2c-.2.1.1.4-.2.5-.5-.2-.3.3-.5.5-.5-.3-.6.5-1 .3-.1.1 0 .2 0 .3-.1.3-.4.1-.7.2-.1.4-.5.1-.7.4-.5-.1-.2.4-.6.6-.8-.4-1.1.6-1.6.9-.4-.2-.4.6-.9.3-.1.3-.5.1-.7.2-.3.4-.6 1-1.3.8 0 .1.1.4-.1.4-.5-.3-.3.5-.8.2-.4.4-.6 1-1.4 1-.1-.1-.2-.1-.2-.3-.5.1-.5-.4-.9-.5 0 .1-.1.2-.2.2h-1.4c-.3-.1-.1-.6-.4-.7.1-.1.2-.1.3-.2-.1-.4.5-.6.6-.9h.1c0-.1.1-.2.1-.2.8.4.8-.7 1.5-.4.2-.2.7-.4.6-.7l.1-.1c.6.2.3-.5.5-.8.2-.1.1.2.3.3.3-.4.6-1 1.3-.8v-.6c.2-.2.6 0 .6-.4.5.1.6-.4.9-.6v-.3c.1-.2.5-.1.7-.1 0-.1.2-.2 0-.2l.3-.2c-.2-.7.6-.2.7-.6-.1 0-.2-.1-.3-.2.1-.4.4 0 .6-.1.1-.2.4-.3.6-.3-.2-.6.3-.8.6-1.2l.3.2c.3-.4-.3-.3-.2-.7 0-.1.1-.1.2-.1.1.1.2.1.1.2.3-.1.2-.7.6-.6.1-.2 0-.3.2-.4.1.1.2.1.2.2.1 0 .2 0 .2-.1.1-.3-.2-.4-.3-.5-.1-.2.1-.3.2-.4.2.1.2.3.2.5h.2c.2 0 .1-.2.1-.3.3-.2.4-.6.7-.6.2 0 .2-.2.2-.4.1-.1.1-.2.3-.2-.1-.3.1-.4.2-.6l-.2-.2c0-.1 0-.1.1-.2.2-.1.2.1.3.2.3 0 .6-.3.9-.4-.1 0-.3-.2-.2-.3.3-.1.5.3.7.4.1-.4.5-.2.7-.2v-.2h-.6c-.4-.3.2-.3.2-.6.2-.1.1.2.3.2.2-.5.7-.2 1-.2 0-.2-.1-.6.1-.7l.3.2c.3-.2.2-.5.5-.7.5.1.4-.6.9-.5.1.1.2.1.2.2h.1c.2-.2.4-.3.3-.6.6-.2-.2-1 .5-1.2-.1-.2-.3-.2-.3-.4s.3-.2.3-.4c-.1 0-.3-.2-.3-.4.1-.4-.4-.1-.5-.2-.1-.2.2-.2.3-.4l-.4-.3c-.3.1-.5-.2-.7-.4-.2.1-.3-.1-.5-.2-.4 0-.6.5-.9.7-.7-.3-.8.9-1.5.6 0 .4-.5 0-.6.3-.1.2-.5 0-.7.2 0 .1.1.4-.1.4-.5-.3-.3.5-.8.2-.1.8-1.2.1-1.3.9-.3.2-.4-.2-.6-.2l-.9.9c-.7-.5-.8 1.1-1.3.3-.1.2 0 .4-.2.6-.1.3-.3 0-.5-.1-.2.1.2.3-.1.4-.2 0-.1-.2-.2-.2l-.3.2c-.3.1.1.3-.1.4-.4-.1-.4.3-.6.6-.1 0-.2-.2-.3-.2-.4-.2-.3.5-.7.2-.4.3-.5.8-1.1.8 0 .1.1.4-.1.4l-.3-.2-.4.3c.1.5-.4.6-.6.9v.1c.1 0 .1.1.2.1 0 .1-.1.2-.1.2-.3-.2-.5.1-.8.3 0 .2.1.5-.1.6-.1 0-.2-.2-.3-.2 0 .1-.1.1-.1.2-.5-.1-.8.3-1.1.6-.1.1-.1.3-.2.2-.1-.1-.2-.1-.1-.2-.3.1-.4-.2-.6-.2l-.4.5c-.3-.1-.4.4-.7.2v.2h.1c.1.1.2.2.2.4-.1.1-.2.2-.4.2-.1.2-.4.3-.3.6-.2.5-.9.3-1.1.9-.2.1-.2-.2-.4-.2-.2.5-.7.4-1 .6.3.7-.6.8-.8 1.3-.2-.1-.3.1-.5.3-.3-.1-.8.2-.9-.3-.4 0-.5 0-.8.3-.1-.1-.1-.2-.2-.3-.7.2-.2-.7-.7-.7-.4 0-.7.5-1 .7-.1-.1-.1-.2-.2-.2-.2.1-.1.3-.3.2-.3-.1 0-.2-.1-.4-.3-.2-.2.4-.6.2-.2-.2-.6-.3-.4-.7-.2 0-.3-.2-.5-.4.1-.2-.2-.6.2-.7.2 0 0 .3.3.3.1 0 .1-.1.1-.2-.7-.3.4-.6 0-1.2.1-.1.1-.2.3-.2-.1-.5.5-.7.7-.9.1-.2.1-.5 0-.7.2-.3.5-.8.9-.7.1-.1-.1-.3 0-.5.1-.1.1-.2.3-.2-.1-.4.3-.5.5-.7 0-.1-.1-.4.1-.4.2-.1 0-.5.4-.6l-.3-.3c.3-.1.2-.4.3-.6.2-.4.9-.5.7-1.1.1.1.2.1.2.3-.1 0-.1.1-.2.1 0 .1 0 .2.1.2.3 0 .6.1.7-.2.1 0 .2.1.2.1-.3.4.2.6.2.9.1.1.1.3.3.2.2-.2.5 0 .6.2.7-.4.1.7.7.5.2.2.5.4.4.7l.6-.5c.4.2-.2.3-.1.5.1 0 .2.1.2 0 .6.2.6-.5 1.1-.7h.3c.1.1.2.1.1.2-.1.2-.3.1-.4.1v.4c.4.2.5-.3.8-.5l.6.6.3-.3c.2.1.3.4.6.2-.1-.4.3-.5.5-.7.1.1.2.1.1.2 0 .1-.2 0-.2.1v.2c.3.1.2-.5.6-.3.1.1.2.1.2.3.1 0 .1 0 .2-.1-.1-.5.6-.5.5-1-.1-.1-.2-.1-.2-.2.2-.6-.3-.7-.5-1 .1-.1.2-.1.3-.2l-.3-.2c.1-.1.1-.2.3-.2v-.3c-.5-.1-.2-.6-.3-.9-.3-.1-.2-.5-.6-.4 0-.1-.1-.1-.1-.2l-.4-.1c-.3-.1-.2.3-.5.3-.1-.1-.1-.2-.2-.3-.2 0-.4-.1-.6.1-.2-.6-1-.3-1.4-.2-.2 0-.3-.2-.3-.4-.1-.1-.2-.1-.3-.1-.1-.5-.8-.1-.9-.6-.1.1-.2 0-.4.1l.1-.1v-.1c-.6-.3.2-.5.2-.7-.2 0-.5 0-.6-.3-.5.2-.4-.3-.7-.5-.2-.1-.6.1-.7-.2-.3-.2-.8.1-.9-.2h-.2v.1s0 .1-.1.1l-.1-.1c-.1-.5-.7-.1-.7-.6-.4.1-.5-.3-.7-.4-.3.1-.3-.4-.7-.3-.2-.2-.5-.3-.4-.7-.3-.2-.3.1-.6.2-.1-.2-.5-.2-.4-.6-.4.1-.5-.4-.8-.6-.1 0-.4.1-.4-.1.1-.2-.2-.6.2-.6.1-.3.1-.7-.2-.9.2-.1.2-.3.4-.4-.2-.6.6-.5.9-.5.1.1.2.1.2.3h.2c.3-.1.5.2.7.2 0-.1.1-.2.2-.2.2.1.1.3.3.3.2 0 .2-.2.2-.4.1-.2.3-.2.4-.2.3.2.3-.3.6-.2.1 0 .1.1.1.2h.2c0-.1.1-.2.2-.2s.3 0 .4.1c-.3.2-.2.4 0 .6.2.1.1-.2.3-.2.3 0 .2.3.2.5h1.3c.1.1.2.1.2.2.1 0 .3 0 .4.1.3 0 .5.4.8.6.3.1.3-.2.6-.2.1.2.3.2.4.4-.1.1-.1.2-.2.1.1.6.2-.3.6-.1.2.5.8-.1 1 .4.1-.1.3-.3.5-.3.4-.2.4.3.4.5.3 0 0-.4.2-.5.4.1 0 .7.5.5.1.3.5.2.6.4 0 .1.2.1.4.1.1.3.4.2.6.4.2.3.6-.1.7.3.2.1.1-.3.4-.2 0 .1.2.1.1.2.1 0 .2.1.2 0 .2.1.3.3.6.3 0 .4.5 0 .6.4.4-.1.5.4.8.6.6-.1.6.8 1.3.5.1.2.2.3.4.2.1-.1.1-.2.2-.2s.1 0 .2.1c-.2.6.5.4.9.4.1.3.4.2.7.2.1.1.2.1.2.3.5-.3.6.5 1 .4.2.1.4-.1.4-.2.3.1.4.3.6.5.3-.1.8.2.9-.2.4 0 .4-.2.6-.5.1 0 .2.1.3.2.1-.2.3-.2.5-.2l1.2-1.2c.5.1.6-.4.9-.6 0-.2 0-.4.2-.5-.1-.1-.2-.1-.2-.2-.1-.2.2-.1.2-.3-.2-.5-.8-.2-.9-.6-.1.1-.3 0-.4.1-.1-.4-.6-.1-.7-.5-.4 0-.6-.4-1-.2 0 .1.1.2.1.2.1.3-.2.3-.3.5-.1-.1-.2-.1-.2-.2h-.1c0 .1-.1.2-.2.2l-.2-.2c.1-.4-.4-.5-.6-.8-.4-.3-.7-.9-1.3-.7-.1-.4-.6 0-.6-.4l-.3.2-.1-.1c.2-.6-.5-.4-.9-.4-.1-.2-.3-.3-.5-.3 0-.5-.7 0-.7-.5-.3 0-.5 0-.7.2-.4.1 0-.4-.3-.5-.1 0-.3-.1-.4.1-.2-.1-.3-.3-.3-.5-.2-.1-.2.1-.2.2-.3.1-.2-.3-.4-.2l-.1.1-.5-.5c-.2 0-.3 0-.4-.2 0-.2.3 0 .3-.2-.2-.2-.2.1-.4.2-.4.1-.5-.3-.7-.5-.9.2-1-1-1.9-.7-.2-.1-.2-.6-.6-.4-.2-.3-.6-.4-.4-.9.1-.1.3-.2.4-.2.2-.1.4.1.4.2.2.1.4-.1.6-.3l-.2-.3.2-.2-.2-.3c.3-.3.7.2 1-.2-.1-.1-.2-.1-.2-.2s.1-.2.1-.3c.4.4.9.8 1.2 1.2.3.2.3-.1.6-.2.2.1 0 .4.2.5.3-.1 0-.5.2-.7.3.1.4.3.6.5.3-.1.5 0 .7-.3.4-.1.4.3.7.5.5 0 .8.8 1.4.5.2.3.4.2.6 0 .1.1.1.2.1.2.4.1.5-.1.8-.2.2.2-.2.3-.2.4.2 0 .2.3.4.3.1-.1.3-.3.5-.3.1.1.1.2.2.3l.3-.3c.1.3.2.5.5.7l.2-.3c.3-.1.3.2.6.3.1-.1 0-.3.2-.3 0 .4.6 0 .6.4.2 0 .4 0 .4-.2.2-.1.2.1.2.2.3.1.8-.2.9.2.2.1.5.1.6-.2.4-.1.5.3.7.5.7-.2 1.1.3 1.5.7.3-.1.3.1.4.2.1 0 .1 0 .2-.1l.3.3c.6-.4.6.5 1.2.2.2.2.3-.2.6-.2 0 .1.1.1.1.2h.2c.1-.2.3-.3.3-.6.7-.1.2-1.2 1.2-.8.1-.3-.4-.2-.2-.6.1 0 .1-.1.2-.1-.2-.1-.4-.4-.6-.6.1-.7-.7-.3-1-.5-.3-.1-.2-.5-.6-.4-.2-.1-.4.1-.4.2-.1 0-.2-.1-.3-.1-.3 0-.4-.4-.8-.4-.4.2-.5-.3-.7-.5-.3-.2-.3.3-.6.3-.1-.1-.1-.2-.2-.3-.4.1-.5-.3-.8-.5l-.1.1c-.1-.1-.3-.1-.3-.2-.4.1-.3-.4-.7-.3-.1-.1-.2-.1-.2-.2-.2 0-.3.3-.6.2-.1-.1-.2-.1-.2-.2-.2-.1-.1.2-.3.2-.2-.1-.2-.3-.4-.2-.1-.1-.2-.1-.2-.3h-.3c-.1-.1-.2-.1-.2-.2-.6.2-1-.4-1.2-.7-.5.2-.4-.5-.9-.3-.2-.6-.9-.4-1.4-.4 0-.1-.2-.2-.1-.2 0-.1-.1-.2-.1-.3l-.2.2c-.2.1-.2.1-.4.1-.1-.5-.8 0-.9-.5-.1.1-.1.2-.2.2-.6.2-.3-.5-.7-.7-.3-.1-.2.3-.4.2-.2-.1-.6-.1-.8 0-.3-.2-.5-.2-.7-.5-.2-.1-.1.3-.4.2 0-.1-.1-.1-.1-.2-.4-.2-.9.2-1.1-.3-.3-.1-.2.4-.6.2-.1-.1 0-.3-.1-.4h.5c-.2.6-.5-.1-.9 0-.2-.4-.6-.1-.8-.5-.3 0-.4 0-.6.2-.3-.7-1-.4-1.6-.6-.2-.3-.8-.1-1.2-.2l-.6-.6c.1-.1.2-.1.3-.2-.3-.2-.4-.7-.9-.7-.1-.5-.6-.9-1-1.3.2-.2.3-.5.7-.4.2 0 .3.2.4.2.1-.1.2-.3.4-.2.3 0 .2.3.2.5h.2v-.1c.1-.1.2-.2.4-.2.2.4.7.2.9.6.5-.1 1.1-.1 1.6 0 .1-.1.3-.4.6-.3v-.2c-.1-.3.1-.6.4-.6-.1-.6.7-.5.6-1.1.2 0 .3.1.3.2.5-.1.5-.7 1.1-.7.1.1.2.1.1.2h.1l.4-.5.3.2c.1-.2.4-.3.3-.6.1-.1.1-.2.3-.1.2.1.1.2.1.4-.1.1-.1.2-.2.2v.2c.3-.1.4.2.6.2 0-.1 0-.1.1-.1-.1-.1 0-.3-.1-.4.1-.1.2-.2.4-.2 0 .3.5.1.4.5 0 .1-.1.1-.2.1-.1-.1-.2-.1-.1-.2h-.1c0 .1 0 .1-.1.1.2.4.7.3 1.1.3l.6.4.1-.2c.3-.1.7-.1.9.2l.1-.2c.4-.2.7.2 1.1.2.4-.7.6.4 1.2 0 .2.5.7.1 1.1.3 0 .2.3.2.4.2.2.6.8-.1.9.5.5-.2.6.2.9.4.2-.1.4-.3.7-.2.1.1.2.1.2.2h.2c0-.1.1-.1.1-.2.2-.1.1.2.3.2.3.1.3-.2.5-.3.2.1.6 0 .7.3.2-.2-.3-.2-.2-.4.1 0 .2-.2.3-.1.4 0 .1.6.4.6.3-.3.5.3.8.2.2.4.5.1.9.4.3 0 .5.4.8.6.6-.1.5.7 1.1.6.2.7.9.4 1.4.4.2-.2-.1-.7.3-.7l.1-1.2c-.3-.1-.2-.5-.2-.8.5-.3-.2-.3 0-.7-.3-.1-.1-.5-.4-.6 0 .1-.1.1-.1.2-.6.3-1-.4-1.2-.7-.2 0-.4.1-.4-.1-.1-.2-.5 0-.7-.2-.1-.4-.6 0-.6-.4-.3-.1-.2.3-.5.2-.1-.5-.8 0-.9-.5l-.2.3c-.2.1-.1-.2-.3-.3-.4-.2-.3.5-.7.3-.1-.3-.4-.4-.6-.4h-.1c-.1 0-.2-.1-.3-.2.1-.1.1-.2.2-.2 0-.3 0-.4-.3-.6.1-.1.1-.2.3-.2.2-.4-.3-.4-.4-.7-.1-.2.1-.2.2-.2.3.3.3-.3.6-.2.2-.2.5-.4.4-.7.1-.4-.4-.3-.6-.5l.3-.3c-.6-.2.1-.6 0-.9 0-.1-.1 0-.1-.1l-.1.1c-.2.1-.2-.1-.3-.2.1-.1.1-.2.2-.2v-.1c-.2-.2-.3.1-.6 0-.1-.1-.2-.1-.1-.3.5-.2-.2-.4-.1-.7-.2 0-.3.2-.4.4.1.1.3.1.3.2-.1.1-.1.2-.2.1-.1 0 0-.2-.1-.2h-.8c-.4-.3.2-.3.3-.6.1-.2-.2-.6.2-.6v-.4c-.4-.1-.1-.5-.3-.7l-.2.2c-.1 0-.1 0-.2-.1-.1-.2.1-.2.3-.3.1-.3-.2-.4-.3-.6-.7.2-.3-.6-.4-.9-.4-.1 0-.6-.5-.7-.2-.7.4-1.9-.5-2.2l.3-.3c-.1-.1-.3 0-.4-.1-.2-.1-.1-.4-.1-.6.1-.1.1-.2.2-.2-.1-.2-.3-.4-.5-.6-.1-.2.2-.4.3-.5-.1-.1-.2-.1-.3-.2.1-.7 1-.4 1.5-.4.1.3.5.1.7.2.3.2.2.6.5.8-.3.7.5.9.3 1.6.1 0 .4-.1.4.1.2.5-.4.7-.3 1.2.5.2.2.7.3 1 .1 0 .3.2.2.3-.1.1-.2.1-.2.2.2.3.5-.2.7.2.1.2-.1.4-.2.6-.2.4.5.3.2.7.5.1.1.7.3 1.1.4-.2.4.3.7.4-.3.8.4.9.7 1.4-.2.4.3.6.3 1 .4.1 0 .7.5.6.1.1.2.2.2.4.4.3.7 1 1.3 1 .2.1.1.4.1.6.6.3.4.9 1 1.2-.2.5.4.6.3 1.1.3 0 .7.1.7-.2.3.1.8-.2.9.2.2.1.1-.2.3-.2.2.1.2.3.2.5h.8c.7-.4 0-1.4.6-1.8-.2-.1-.2-.4-.6-.3-.1-.1-.2-.2-.2-.4-.4-.2-.1-.7-.2-.9-.1-.1-.3-.1-.2-.3.1 0 .1-.1.2-.1v-.2c-.1 0-.1-.1-.2-.1v-2l.2-.2c0-.1 0-.1-.1-.2-.5.3-.6-.2-.9-.4-.7.2-.1-.7-.6-.8 0-.6 0-1.2-.1-1.8-.1-.1-.3-.1-.2-.3.1-.1.2-.1.3-.2 0-.5.1-1.2-.5-1.4.2-.4-.3-.4-.4-.6-.1.1-.3 0-.4-.1.1-.1.2-.1.2-.2.2-.4-.4-.3-.2-.7-.1-.6-.8-.2-1-.7.1-.1.1-.2.2-.2v-.1c-.1-.1-.2 0-.4-.1-.2-.4-.1-.9-.1-1.4-.3-.2-.2-.5-.3-.7-.1-.1-.6.1-.4-.3-.1-.1-.1-.2-.2-.2s-.3 0-.3-.2c.1-.1.2-.1.3-.2-.5-.2-.3-.8-.6-1.2.2-.4-.5-.3-.3-.8-.5-.3-.5-.8-.6-1.3-.6.2-.2-.5-.7-.6l.3-.3-.7-.6c-.2-.2.2-.7-.3-.8.1-.6-.2-1.5.5-1.7-.1-.1-.2-.1-.2-.2l.2-.3c-.1-.1-.3-.1-.2-.3.4-.1 0-.6.3-.7.2-.6.8-.2 1.2-.3.4.1.1.5.4.7 0 .4.4.6.3 1 .4-.1.5.5.9.2.1.1.3.1.2.2-.1.2-.3.1-.4.1-.1.1-.1.4.1.4.2-.1.1-.3.3-.3 0 .1.2.2.1.3.2.1.3.6.6.4.2 0 .2.2.2.4.1.2-.2.2-.2.2-.1.4.2.3.3.6.4.1.3-.2.6-.2.2.2-.1.3-.2.4.1 0 .2.2.3.1.2 0 .4-.1.5.1l-.5.6c.2.1.3.3.6.2.6-.6.3.5.6.6 0 .5.6.8.9 1.2 0-.1.1-.1.2-.1.1.1.2.1.1.2-.1 0-.1.1-.2.1-.1.5.5.7.7 1-.1.4.3.5.5.7-.1.3.2.4.2.6.2 0 .4 0 .5.1-.1.4.5.7.7 1 0 .6 1.1.8.8 1.5 1 .1.3 1.2.9 1.7-.2.5.7 0 .4.6.4.1.1.6.5.7-.2.5.4.4.3.9.7-.3.1.8.8.5.6.5.9 1.1 1.6 1.3.1.3.6.1.6.4l.3-.2.1.1c0 .2.3.2.4.2.3.6.7-.4.9.2.1-.1.3-.2.4-.2.1-.2.5-.2.4-.6.9-.4.3-1.5.5-2.2l-.3-.2c0-.2 0-.3-.1-.4.6-.2.7.4 1.1.6.1.4.6.3.7.7.7.2.2-.6.5-.7l.3.2c.4-.5-.4-.5-.4-.9l.1-.1c.1 0 .2-.1.2.1l.1-.1-.5-.5c.2-.2.6-.1.7-.4-.1-.2.2-.2.3-.2.1-.4-.3-.5-.5-.7l.3-.3c-.1-.2-.6.1-.5-.3.1-.1.2 0 .3-.1.1 0 .3 0 .4.1-.1-.2.3-.4.2-.7-.4-.3-.5.3-.7.4-.1 0-.2.1-.2 0 0-.2-.1-.4.1-.5.5.3.3-.5.8-.2.1.1.2.1.1.2h.3c.4 0 .1-.5.2-.7.9.2-.1-1.2 1-.8.2 0 .1.3.4.2v-.2c0-.3 0-.8.4-.7 0-.2-.4-.3-.4-.6 0-.1.2 0 .3-.1.1 0 .1.1.1.2h.1c.1-.4-.2-1 .3-1.2-.1-.5.2-1.2-.4-1.5-.1-.3.3-.4.2-.7.2-.2.5 0 .7 0-.1.1-.1.2-.2.2v.1c.1.1.3 0 .2.2h.2c0-.4.5 0 .5-.3-.1-.1-.2-.1-.3-.1-.1-.1-.2-.1-.2-.2-.2-.1-.4-.3-.4-.5.1 0 .2-.2.3-.1.2.1.3.3.2.5.1 0 .2-.1.2.1.1-.2.4-.2.7-.3l-.3-.3.3-.3-.3-.2c-.1-.4.4 0 .5-.3-.2-.5.3-.6.5-1 0-.2-.1-.5.1-.6.1 0 .1-.2.1-.4.1-.2.3-.1.4-.1-.1-.5.5-.6.5-.9 0-.1.2-.2.3-.3-.2-.4.3-.5.2-.9.4 0 0-.4.3-.6.1 0 .1-.2.1-.4-.1-.1-.3 0-.2-.2.1 0 .1-.1.2-.1.1.1.2.1.1.3.2-.1.3-.4.6-.5.1.1.2.1.1.2-.3.1-.2.4-.5.4v1.8c-.1.1-.3.2-.2.4-.5.2 0 .9-.5 1 .1.1.2.1.3.2.1.3-.3.1-.4.2-.1.2.2.1.2.3l-.2.2c.2.4-.3.4-.2.7-.9.2 0 1.5-1 1.7-.1.2.2.6-.2.6-.1.2.1.2.2.2.2.4-.3.5-.4.7v.7c-.7.4.3.7 0 1.2-.1.2-.3.2-.5.2 0 .3.1.3.2.6-.1 0-.1.1-.2.1-.1.2.2.1.3.3 0 .2-.1.4-.3.4.3.6-.5.6-.2 1.2-.4.2-.1.6-.5.8.3.1.2.4.3.7-.5.2 0 .8-.5.9-.1.2.1.3.2.5.1.4-.4.4-.3.8-.4.1 0 .6-.4.6l.2.3c-.1.1-.2.1-.2.2v1.2c-.5.2 0 .8-.5.9.1.1.2.1.2.2l-.2.3c.2.3.6.4.6.8.5-.2.4.4.9.3 0 .4.4 0 .6.3-.2.4.3.4.3.7-.3.4.3.3.3.6.2 0 .4.1.5.2.3-.3.8-.6.9-1.1.4 0 0-.4.3-.6 0-.6.6-.6.8-1.1-.1-.5.1-1 .5-1.2-.1 0-.2-.1-.2-.2-.2-.4.3-.6.2-1 .2-.2.5-.4.7-.4.5-.2.2-.7.4-.9 1 0-.3-.6.1-1.1.7-.2.4-1.1.5-1.7.2 0 .2-.2.2-.4.4-.1.1-.6.5-.7-.1-.4.3-.5.5-.7.1-.3-.1-.3-.3-.5.4-.2.2-.6.3-.9.2-.1.2-.3.2-.5.1-.1.1-.2.3-.2-.1-.3.1-.4.2-.6-.1-.1-.3-.3-.2-.5.1 0 .1-.1.2-.1-.2-.6.6-.8.3-1.4-.6-.4.4-.6.1-1.1.5-.2 0-.9.5-1l-.3-.2c-.1-.4.4-.1.5-.2 0-.2-.2-.1-.3-.3 0-.1-.1-.3.1-.4.4-.2-.1-1 .4-1.1-.1-.1-.2-.1-.2-.2s0-.1.1-.2c.2 0 .2-.3.2-.4.5-.1.2-.6.3-.9.5-.3.2-1 .2-1.5.3-.1.1-.5.4-.6.1-.2-.1-.2-.2-.2.2-.3.2-.5.4-.7.4-.1.9.3 1.1-.1-.1 0-.2-.1-.2-.2l.2-.2c.1 0 .1 0 .2.1.3-.4.6-.6.9-.9.3 0 .7 0 .9.3 0 .2 0 .4-.2.5 0 .3-.1.6.3.7l-.3.2c0 .4.5.7.7 1-.5.4-.9.8-1.2 1.2.1.2.4-.1.5.2 0 .3-.4.1-.5.2-.1.2.1.3.2.5-.1.2-.3.1-.4.1-.2.2.1.2.2.4-.1.4.2 1-.3 1.2.5.3 0 1.2.5 1.5-.5.1 0 .8-.5.9 0 .1 0 .1.1.2.2 0 .1-.2.2-.3.3.2.4.4.5.8-.1.1-.1.2-.3.2 0 .2.1.4.3.6 0 .2.1.4-.1.6-.3.1-.1.5-.2.7.1 0 .3.1.3.3h.1c.1.4.5.2.7.2 0 .3.5.5.2.8-.1 0-.2 0-.3-.1-.2.2.1.2.2.4l-.2.2c-.1 0-.2-.1-.3-.1-.2.2.2.1.2.3-.1.1-.1.2-.2.2v.1c.1 0 .2.1.2.2-.1.1-.1.2-.2.2v.5c-.4.1-.1.6-.5.7l.5.6c-.3.2-.4.4-.7.6-.1.2.2.1.3.3 0 .3.1.6-.3.7 0 .3.1.5.3.7l-.5.4c-.1.2.1.4.2.6.1.4-.4.4-.3.8-.3 0-.2.5-.1.7.7.4-.6.7.2 1-.3.1-.2.4-.3.6-.5.2 0 .8-.5.9l.2.3c-.1.1-.1.2-.2.2-.3.6.5.6.2 1.2 0 .7.9.2 1 .6.5 0 1.3.3 1.6-.2-.2-.7.7-.2.5-.7.4-.1.1-.6.3-.9 0 .2 0 .3.1.4.1 0 .4-.1.4.1 0 .5.7.2.9.5.4-.1.5.6 1.1.4.1.2.3.4.5.4 0-.1.1-.2.2-.2h1.7l.1-.2c.5.1 1-.1 1.2-.5.2 0 .4-.1.5-.3.4 0 .5-.2.7-.5.2 0 .4-.1.5-.2.3-.1.3.2.6.2.1-.2.2-.3.4-.2.2-.6.9-.4 1.2-1 .1.1.2.1.2.2h.1c0-.1.1-.2.2-.2.5.2.7-.3 1-.5.1.1.2.1.2.3.2 0 .4-.1.5-.3.4.3.5-.6.7 0 .1 0 .4.1.4-.1.4 0 .6-.3 1-.3.3-.2.3.3.6.2.1-.2.3-.3.4-.5.2-.1.6.2.6-.2.2 0 .3.1.3.2.2 0 .4 0 .4-.2.4.1.4-.4.8-.3.1.2.3.3.3.5-.4 0-.5.4-.8.6l-.2-.2c-.1.2-.4.5-.7.4-.2.3-.7.4-.6.9-.3 0-.1.4-.4.4-.1.6-.9.3-1.2.7-.7-.3-1 .5-1.7.3-.3.5-1.1 0-1.4.4-.4-.1-.3.2-.6.2 0-.1-.1-.1-.1-.2-.3-.1-.1.3-.4.2-.2.1-.2.1-.2.3-.1.4-.7.5-1.1.4l-.1.6c-.2.1-.6.1-.4.4-.1.2-.2.1-.4.1-.1 0-.2-.2-.2-.2-.4-.1-.5.3-.7.5-.5-.2-.3.3-.5.5-.4-.2-.6.3-1 .2-.1-.1-.1-.2-.2-.2l-1.1 1v.1c-.4.2-.8.8-1.2 1.1v.2c.1 0 .1.1.2.1 0 .1 0 .1-.1.2-.3-.1-.4-.3-.6-.5l-.6.6c.2.4-.6.4-.4.9-.1.1-.1.2-.2.2-.1.3.3.1.2.4-.1.1-.2 0-.3.1-.3 0-.1-.4-.2-.5l-.3.2c-.1.2.2.1.3.3.3.6-.5.7-.3 1.2-.1.1-.1.2-.3.2l.1.9h.2c.1.1.2.1.2.3l.3-.3c.1.1.1.2.2.3.3.1.3-.1.5-.3.1.1.2.1.2.3.2-.1.4-.3.6-.5.4 0 .6-.4 1-.2l.4-.4c.2-.1.2.3.4.2.1-.2.3-.5.6-.4.7-.6 2 .2 2.5-.7l.3.3c.1-.1.1-.2.2-.3.4.1.5-.3.7-.5.3 0 .6 0 .7-.2l.2.2c.1-.5.6-.2.9-.2.1.1.3.3.5.2.1-.1.1-.2.2-.2.4.1.5-.3.7-.5l.3.2c.2-.3.4-.5.6-.7.2 0 .4 0 .5-.2.5.1.5-.7 1.1-.6l.9-.9c.3 0 .2.3.5.3.1-.4.6-.1.7-.5.4.2.3-.3.5-.5.4.1.5-.4.8-.5.1.1.1.2.2.2.2-.2.4-.6.7-.6 0-.4.5 0 .6-.4.1-.5.7-.1.7-.6l.3.2c.1-.1.1-.2.2-.2.5.3.3-.5.8-.2.4-.2.4-.7.9-.7.1 0 .1.1.1.2h.1l.1-.1c-.1 0-.1-.1-.2-.1 0-.1 0-.1.1-.2.7.2.9-.6 1.7-.3.2 0 .2.4.5.2.1.1.2.1.2.2h.1c.2-.5 1 0 1.2-.5.3 0 .2.3.2.5h.3c.2.3.1.7.1 1-.4 0-.8.2-1 .5-.7-.3-.8.4-1.2.7-.6.1-.9.8-1.4.9-.5.5-.9 1.1-1.5 1.6-.2 0-.4.1-.5.2-.7 0-.8.7-1.4 1 .2.4-.3.4-.4.7-.1-.1-.2-.1-.2-.3-.3.1-.5.6-.9.6-.5.2-.1.7-.6.9-.5-.1-.5.5-.9.5-.2.1-.2.1-.2.3-.2.2-.3.5-.6.4-.3-.1-.1.3-.2.4-.4.2-.6.8-1.1.8-.2.4-.8.3-.7.7-.2.3-.7.6-.7.9-.2.3-.5.6-.8.7-.3-.1-.1.3-.2.4-.5 0-.8.6-1.2.9-.1.7-1.1.7-.7 1.7.2.2.4.3.5.6-.1.1-.2.1-.2.2s-.1.2.1.3c.4-.1.6.1.9.2v-.1c.2-.3.5-.4.9-.4.2-.5.8-.2 1.2-.3.2-.5 1 0 1.2-.5.2-.1.2.1.3.2.4.1.7-.1 1-.4.2-.1.2.1.2.2.4.2.9.3 1.3.2.1-.1.1-.2.2-.1 0 .1.1.1.1.2h.2c.1-.3-.1-.5.1-.7.1-.1.3 0 .4.1-.1.1-.1.2-.3.2 0 .5.3-.1.4.2-.1.1-.3.5-.5.6 0 .1.1.1.2.1.1-.3.4-.3.7-.3.3.2-.1.3-.1.5h.3c.1.3.8.4.4.8 0 .1.2.2.2.2 0 .1.1.2-.1.2-.3-.1-.1.3-.2.5.2.2.6.1.9.1.1.3.4.2.6.4-.1.1-.2.2-.2.3.1.1.2 0 .3.1.1-.3.3-.6.5-.7l.4.4c-.3.6.4.7.4 1.2-.1.1-.2.1-.2.2s0 .1.1.2c.2-.1.3-.1.5-.3.1.1.2.1.2.2.3-.1.7.2.8-.2.2 0 .5-.1.6.1.2.4-.3.6-.5.7l.6.6c.3 0 .7.1.8-.3.1.1.1.2.2.3.6-.3.7.5 1.2.6 0 .3-.3.3-.5.5-.2.3.2.3.3.6.4-.2.3.5.7.2.1.2.5.2.4.6.1.3.6.2.5.6-.2.2-.5.6-.9.6v.1l.6.6c0-.1.1-.2.2-.3.4.2.6-.3 1-.2 0 .3.5.1.4.5 0 .1-.1.1-.2.1-.1-.1-.1-.2-.2-.2l-.2.2c-.6-.2-.2.6-.6.6.3.1.8-.1.9.3l.2-.3c.1 0 .4-.1.4.1l-.2.2c.1.2.4-.1.5.2 0 .1 0 .1-.1.1-.3 0-.1.4-.2.6.3.2.5.8 1.1.6.1.2.5.3.4.7h.6c.3.2-.1.3-.1.5.3.1.9-.2 1 .2.5-.2.4.5.9.3 0 .4.4 0 .6.3 0 .3.1.7-.1.9-.1 0-.2-.1-.3-.2-.2-.1-.2.1-.2.2h-2.2c-.1.2-.2.3-.4.3-.2.1-.4-.1-.4-.3-.5.1-.7-.4-.9-.6-.8.2-.2-1-1.1-.6 0-.4-.6 0-.6-.4-.6 0-.6-.5-1-.8-.3 0-.6.1-.7-.3-.4.1-.5-.3-.7-.5-.3.2-.3-.4-.7-.2-.1-.2-.6-.4-.4-.6l-.1-.1c-.2-.1-.1.2-.3.3-.2-.2-.5-.4-.5-.7-.4.2-.5-.4-.9-.2-.1-.1-.2-.1-.2-.2h-.2c-.2 0-.3-.1-.3-.3l-.3.3-.1-.1c.1-.4-.3-.5-.5-.8-.2-.2-.7.2-.8-.3-.4 0-.7-.3-1.1-.3 0-.2.1-.4-.1-.4-.1.1-.1.2-.2.2-.4.2-.6-.3-1-.2-.2-.5-.8 0-1-.5-.3.1-.5-.3-.6-.4-.2-.1-.2.1-.3.2-.2 0-.4-.3-.5-.4-.3 0-.7.1-.7-.3-.1 0-.4.1-.4-.1-.2-.4.4-.5.5-.7 0-.1-.1-.1-.2-.1-.1.1 0 .3-.2.3l-.3-.3c-.4.1-1-.2-1.2.3-.1-.1-.2-.1-.2-.3-.7.3-.7-.5-1.4-.3.1-.5-.4-.6-.6-.9-.4-.2-.3.3-.6.3 0-.5-.6 0-.6-.5-.5-.1-.9 0-1.1.5-.2 0-.2-.2-.4-.3-.1 0-.2 0-.3.1 0 .1 0 .1.1.2l-.2.2-.3-.2c-.1.2-.2.3-.4.2-.4.3.2.4.1.7-.1.1-.2 0-.4.1-.5.5.6.5.1 1-.2.5.4.5.2 1l1 .9.1 1.4.4-.3v-.6l.4-.4c.4-.2.7.2.9.5.2 0 .3 0 .4.2 0 .1 0 .3-.1.4-.2.1-.2-.2-.3-.2l-.1.1.3.4c.2.1.3-.1.5-.3.4 0 .6-.4 1-.2.2.2 0 .5.2.7.3-.1.4.1.6.3.1-.1.1-.2.2-.3.1 0 .4-.1.4.1l-.2.2c.2.2.1-.2.4-.1.5.1.2.8.7.9l.3-.2.9.9c.2.2.6-.1.7.2.2-.1.4-.2.5-.4.5-.1.6.4.9.6v.6c.1.1.2.3.4.3.2-.5.9 0 1-.5.2.3-.2.2-.1.5h.3c.3.3-.2.4-.3.6 0 .1.3.3.4.4.1.2.1.4 0 .6.3.3.3-.3.6-.1.3.2.8.3 1 .7 0-.1.2-.3.3-.2.2.4.6.6 1.1.5.4.4 1.1.6.9 1.4.1.4.6.3.9.3.2.2.4.3.5.6-.2.5-.8.2-1.2.2-.1-.5-.6-.1-.7-.5l-.2.3-.6-.5-.2.2c-.2 0-.4 0-.5-.2l-.3.2c-.1-.2-.3-.3-.5-.2-.2-.5-1 0-1.2-.5-.4.2-.6-.3-.9-.3 0-.1-.1-.1-.1-.2h-.2v.1c-.1.1-.1.2-.2.1-.2-.5-.8-.2-1.2-.2l-.6-.7c-.3.1-.5-.3-.7-.2-.4.1-.5-.2-.6-.5-.3 0-.6 0-.8.1 0 .2 0 .3-.2.4-.2.1-.3-.2-.4-.3l-.3.3c-.2-.2-.3-.6-.7-.5-.3-.5-1.3.2-1.2-.7-.2 0-.1.3-.4.2-.1-.5-.7 0-.8-.5-.7.3-.9-.5-1.2-.7l-.3.2c-.2-.5-.8-.2-1.2-.2-.1.1-.1.2-.1.3-.1.1-.1.2-.2.2v.2h.1c.1.1.2.2.2.4-.1.1-.1.2-.2.2v.2c.8.4-.6.7.2 1.1-.4.6.5.8.2 1.4.1.1.3.4.5.4s.3.1.3.3c.6-.3.9.4 1.2.7.4-.1.4.5.9.3.1.7 1 .2 1.4.7.6-.3.9.5 1.2.7.1-.2.3-.3.5-.2.2.1.1.3.1.4h.2c0-.4.5 0 .6-.4.1 0 .2-.1.3.1 0 .1 0 .2-.1.3l.1.1.1-.1c.4 0 .7-.1.9-.4 0-.3.1-.5-.1-.7h-.2c-.4.5-.7-.3-1.1.2-.1 0-.3 0-.4-.1.2-.2.5-.4.7-.5-.2-.7.7-.1.8-.6.1.1.3.3.5.2.4.2-.1.5-.1.7.3 0 .7-.1.9.1 0 .1-.2.2-.2.2.1.1.2.1.2.2 0 .3-.3.2-.5.3.2.6-1 .6-.2 1 .2 0 .1.3.4.3v-.1c.1-.2.2-.1.4-.1.2-.4.6-.2.9-.2.1.1 0 .3.2.2.1 0 .1-.1.1-.2-.1 0-.2 0-.2-.1s.1-.2.1-.2c.2.1.3.3.4.5.2.1.2-.1.3-.2.7-.3.1.6.6.6.2.5-.4.6-.2 1.1.8-.4 1 .8 1.7.5.2.1 0 .4.2.5.3.1.8-.2.9.2.2.1.2-.2.4-.2.2.1.1.2.1.4.7-.1.9.4 1.2.8.1-.1.1-.2.2-.2.5-.2.4.3.6.5.3.1.3-.1.4-.3.2 0 .3.3.5.4h.2c.2.3-.2.8.1 1.2h.2c.6-.1.5.4.6.7h.1c0-.2 0-.4.2-.5.4.2-.1.5.2.7.5-.1.6.4.9.6 0 .1.1.2 0 .2l.7.7c-.1.4 0 .6.2.8 0 .1 0 .1-.1.2-.4-.1-.3.3-.6.2-.1-.2-.5-.3-.7-.4-.1.3-.6.1-.9.2-.3-.5-.8-.2-1.2-.2-.3-.4-1.1.1-1.4-.4-.4.1-1-.2-1.2.2l-.1-.1c.2-.7-.6-.3-.9-.4-.1.1-.1.3-.2.2 0-.1-.1-.1-.1-.2-.3-.1-.1.3-.4.2-.3-.3-.8-.1-1.2-.2l-.1-.1c0-.1 0-.1-.1-.2l-.1.1c-.4.1-.4-.4-.9-.3 0-.1-.1-.1-.1-.2-.2-.1-.4-.1-.6-.1-.3-.2-.4-.4-.7-.7l.1-.1c.1.1.5.2.5.5.2-.1.3-.3.4-.4-.5-.2 0-.6-.2-.9.2-.3.3.1.5.1 0 0 0-.1.1-.1-.1 0 0-.2-.1-.2 0-.1.1-.1.2-.1.1.2.5.3.4.7h.1c.1-.2.3-.3.2-.6-.2-.1-.1.3-.4.2 0-.3-.4-.3-.4-.5l-.1.2c-.1 0-.3.1-.4-.1-.1-.2.1-.3.2-.3 0-.2.1-.7-.1-.8l-.3.2c0 .2.3.3.2.6 0 .1-.1.1-.2.1-.1-.1-.1-.2-.2-.2l-.7.8-.2-.2c.2-.2.6-.4.6-.7 0-.1-.1-.1-.2-.1-.1-.2-.1-.2.1-.4l.2.3.6-.6c.2-.4-.4-.5-.4-.7-.1-.1-.3 0-.2-.2 0-.1.1-.1.2-.1v-.2h-.3c0 .1-.1.1-.1.2.2.1.2.4.5.6.1.1 0 .3-.1.4l-.4-.5c-.1 0-.4.1-.4-.1 0-.3 0-.6.2-.7-.2-.2-.1.1-.3.2-.1 0-.1 0-.2-.1 0-.2-.1-.5.2-.5.1-.2-.2-.2-.2-.4.1-.1.2-.1.3-.2l-.3-.4-.6.6c0 .2.1.5-.1.7-.1 0-.4.1-.4-.1 0-.1 0-.1.1-.1.3 0 .1-.4.2-.6.1-.2.3-.2.5-.2 0-.4-.5 0-.6-.4-.5-.1-.1.4-.4.5-.4-.1-.1-.5-.3-.7l-.2.2c-.4.4-.4-.2-.7-.3 0-.2 0-.4-.2-.4s-.3.3-.4.4c.1 0 .1.1.2.1 0 .1-.1.2-.1.2-.2-.1-.5 0-.7-.1-.1.3-.6.1-.6.4.2 0 .4 0 .5.2-.1.3-.6-.1-.5.3.3 0 .6 0 .9-.2.5.5-.4.6-.4 1 .5-.2.4.4.7.4-.1 0 0 .2-.1.3 0 .1.1.1.2.1-.2.7.8.3.6.9.2.3.8.5.9.9l-.1.1-.1-.1-1.5.2c-.2.1-.2-.2-.4-.2-.1.1 0 .2-.1.4-.2.2-.6.1-.9.1-.1.1-.1.2-.1.3-.3.3-.4.7-.9.7-.1.3-.5.3-.7.5-.7.3-.1-.8-.8-.6 0-.4-.4 0-.6-.3-.8.2-.2-1.1-1.1-.6-.1-.2-.1-.2-.1-.4-.1-.1-.3-.2-.4-.1.1-.5-.4-.5-.7-.5l-.4-.4c-.2 0-.4 0-.5-.2-.3.2-.4-.4-.7-.3-.1-.4-.5-.1-.7-.4 0-.1 0-.1.1-.2l-.1-.1h-.1c0 .1-.1.2-.2.2-.1-.1-.2-.1-.2-.2h-.1c-.4.7-1.2.7-1.7 1.5-.3-.1-.3.2-.4.4-.6.2.3.3.1.7.5.3.2 1 .2 1.5.3.1.2.4.3.7.5 0 0 .8.6.6 0 .4.6 0 .6.4-.2.6.8 0 .9.6.2.1-.1.4.2.4.2.1.9-.1.6.5h.2c.5 0 .1.6.3.7l.3-.3c.2.2 0 .7.2.9l.3-.2c.2.1.1.2.1.4l.7.6c.2.5-.3 1.1.4 1.4.1-.1.1-.2.2-.2s.2.1.2.1c-.4.7.8.1.5.8.6-.2.2.6.7.5.6-.2.4.5.5.7h.2c.2.4.5 0 .7.4-.1.2-.3.1-.2.3.2 0 .5-.1.7.1v.1c.2.2-.1.9.4.6.3.3.5.8 1 .7.1.2 0 .3.1.6 0 .3.4.1.5.2 0 .5.5.7.7 1.1.4-.1.5.4.9.6-.1.5.4.2.6.6-.2.5.4.2.4.4-.1.5.4.2.6.6-.2.5.7.5.5 1.1l.3-.3.6.6c.1.2-.2.1-.3.3.1.2.2 0 .4.1.1.1.2.1.1.2s-.2.1-.2.2c.1.7-.2 1.7.2 2.2l-.1.1c-.4-.1-.4.3-.6.6-.6.3-.8-.4-1.2-.7l.1-.1c0-.1.1-.2-.1-.2-.1 0-.2.2-.2.2-.2.1-.2-.1-.3-.2.2-.3-.3-.5-.4-.7 0-.1 0-.3-.1-.4-.3.2-.4-.4-.7-.2-.2-.1-.1-.3-.1-.4-.3-.1-.2.2-.4.2-.1-.2-.4-.4-.6-.7-.1-.2-.4.1-.5-.2 0-.1 0-.1.1-.2l-.1-.1c-.2-.1-.1.2-.3.2-.3 0-.2-.3-.2-.5h-.2c-.8.4-.2-.8-.9-.5-.1-.4-.9-.1-.7-.7l-.3.2-.7-.7c-.4.1-.4-.4-.8-.3.2-.6-.5-.4-.9-.4-.3-.1-.6-.7-1-.7-.1-.4-.5-.1-.7-.4-.3.1-.5-.3-.7-.5-.2.1-.3-.2-.4-.2-.4.2-.4-.4-.7-.2-.1-.1-.2-.2-.2-.4.2-.6-.8-.1-1-.5.2-.4-.7-.6-.5-1.1-.1 0-.2.2-.3.2-.2.1-.2-.1-.2-.2.3-.6-.5-.1-.7-.4l.3-.2c-.3 0-.6-.2-.6-.6-.2 0-.1.2-.2.2-.1-.3-.2-.5-.4-.7-.2.1-.1.4-.4.3-.1-.1 0-.3-.1-.4-.2-.1-.1.3-.4.2-.2-.1 0-.2-.1-.4-.4-.2 0 .2-.3.4-.5-.1-.1-.7-.2-.9-.5.1-.3-.4-.6-.5v.1c-.2.3-.3-.1-.5-.1v.2c.4-.1.3.3.5.4l-.1.1-.7-.7c-.2.2-.5.3-.6 0-.3.5-1 0-1.3.4-.8-.1-1.1.4-1.6.8.1.3-.2.4-.2.6.1 0 .2.1.2.2-.1.2-.4 0-.5.2-.3.6.5.8.7 1.2 0 .1.3.1.2.3.5-.1.6.4.9.6-.2.4.3.4.5.6-.1.4.4.5.3.8.4.1.6.5.9.7.3.1.3-.2.6-.3.4.3-.2.2-.1.5.4.3.7.5 1.2.5.2.3-.3.2-.2.4.1 0 .2.1.2.2-.1.3.3.5.5.7 0 .1-.1.1-.2.2-.2-.2-.4-.4-.6-.5-.1.2.2.2.2.4.1.1 0 .3-.1.4-.4-.2-.3-.8-.7-.7-.1.1-.3.2-.3.4.4-.1.5.3.7.5l-.1.1c-.1 0-.1 0-.2-.1 0-.3-.3-.1-.4-.2 0 .2.3.3.3.6-.1.1-.1.2-.3.2v.1c.1.1.3 0 .4.1.2.1.1.4.1.6-.1.1-.1.2-.3.2.1.2-.1.2-.2.2-.1-.1-.1-.2-.1-.3 0-.1.2 0 .3-.1v-.2c0-.1-.1-.2-.2-.1v.3c-.1.1-.1.2-.2.2 0 .3.1.7-.3.8.1 0 .2.1.3.2 0 .2 0 .4-.3.4.1.3-.2.9.3 1-.1.2.2.6-.2.7-.2-.1 0-.4-.2-.5-.2.1-.1.4-.1.6.2.1.2.4.4.4l.1-.1c.2.1.3.2.2.4-.1.1-.1.2-.2.1l-.1-.1c-.3-.4-.5.1-.7.3l.2.3c-.1.2-.3 0-.4.1.2.4-.4.4-.5.7-.1.3.1.3.2.4l-.5.6c.5 0 0 .8.6.6 0 .1.2.1.1.2-.1.2-.3.1-.4.1-.1-.1-.2-.1-.1-.3h-.3c-.1.2-.4.3-.4.6.7.4-.4.6-.3 1.1-.3.3-.5.5-.7.9l.2.1c0 .2 0 .4-.2.5 0 .5-.6.8-.9 1.2-.3-.1-.3.1-.4.3-.6.2-.9-.2-1.3-.6.1-.4-.3-.4-.6-.6 0-.3-.1-.6.3-.7.1-.7-.6.1-.7-.4.1-.1.1-.2.3-.2v-.1c-.3 0-.2-.4-.3-.5-.3-.2-.1-.6-.2-.9.3-.1.3-.5.2-.7.1-.1.1-.2.3-.2v-.8h-.1c-.3-.1-.2-.4-.2-.6.5-.4 0-1.3.5-1.6.1-.2-.1-.4-.2-.6.1-.1.1-.2.2-.2.1-.3-.2-.9.3-1 .1-.4-.3-.6-.2-1.1.1 0 .1-.1.2-.1-.1-.3-.5-.4-.5-.7 0-.3.2-.3.2-.6-.6-.3.4-.5.2-.8l-.1.1c-.4.6-.3-.3-.6-.4 0-.2-.2-.5.1-.7.4-.1 0 .4.3.5 0-.1.1-.1.1-.2-.1-.2.1-.5-.3-.6-.1-.4.3-.2.4-.3-.1-.4.3-.4.3-.7 0-.2-.2-.1-.3-.1-.1 0-.1.2-.2.2s-.2.1-.2-.1 0-.4.2-.5c.3.1.3-.2.6-.2.1 0 .1.1.1.2h.2v-.1c-.6 0 .1-.8-.6-.7-.3.2.2.2.1.4-.2 0-.2.3-.4.2 0-.2-.4-.1-.3-.4.2 0 .2-.2.3-.4-.4-.2-.2.5-.6.6-.4 0-.6 0-.9.2 0 .2 0 .4-.2.4l-.1-.1c.1-.4-.3-.2-.5-.4-.2 0-.3-.4-.5-.4-.1.1-.3 0-.2.2.2.2.3-.1.5.1.1.2-.2.2-.3.2 0 .1.2.3.4.4.1-.1.1-.3.2-.2.5.9-.8.2-1 .7l-.1-.1c0-.2 0-.4.2-.5-.1-.1-.1-.4-.4-.3v.3c-.1.1-.1.2-.2.2-.1.3.2.8-.2 1 .1.4-.4.5-.6.7 0 .2-.1.4-.2.5l.2.3c0 .2-.1.4-.2.5.1.6-.1 1-.6 1.3-.1 0-.2-.1-.2-.1-.1-.3.3-.1.3-.2-.3-.3-.2.3-.6.1-.3.7-.6-.2-.9-.3v-1.2c.1-.1.3-.3.3-.5.5-.3 0-1.2.5-1.5-.5-.1-.2-.6-.3-.9.4-.2.2-.8.7-.9.1-.2-.1-.2-.2-.2 0-.2-.1-.5.2-.5 0-.3.2-.4.3-.7.1-.4-.4-.1-.5-.2-.1-.2.3-.2.2-.4-.1 0-.4.1-.4-.1 0-.1-.1-.4.1-.4.6.2.1-.5.6-.6.1-.4-.2-.4-.2-.7.1 0 .1-.1.2-.1l.1-.7c-.4-.1-.1-.6-.5-.8.2-.2.3-.5.7-.4.2-.4-.3-.5-.4-.7.1-.2-.1-.3-.3-.5 0-.3-.1-.7.2-.7-.4-.2 0-.7-.4-.8.1.2-.1.2-.2.3-.1-.1-.2-.1-.1-.3.5-.1.1-.6.5-.7-.1-.1-.2-.1-.2-.2v-1.6c-.4-.1-.1-.6-.5-.7 0-.4-.3-.6-.3-1.1-.2 0-.1.2-.3.2-.2 0-.4-.4-.6-.4-.4.7-.6-.5-1.1 0-.1-.1-.2-.1-.1-.2h-.2c0 .1 0 .2.1.3.4.1 0 .5-.1.6-.5 0-.2-.6-.3-.9h-.2v.1c-.3.1-.1.5-.4.6 0 .5-.5.6-.7.9.1.4-.4.5-.5.8l.2.2-.2.2c0 .2.2.1.2.2l-.2.3c.5.1 0 .8.5 1-.3.2-.2.5-.3.7.7.4-.4.9.3 1.2l-.3.2c.5.2.2.8.3 1.2-.1.2-.3.1-.5.2-.1.3.1.3.2.5.2.5-.3.7-.5.9.2.3-.3.3-.2.6.5 0 .1.6.5.7-.1.1-.2.1-.3.2l.3.3c-.1.1-.2.1-.3.2-.1.3.2.8-.2.9v.1c.1 0 .2.1.2.2-.1.1-.2.2-.2.3.1 0 .2.1.2.2-.1.1-.1.2-.2.2-.1.2.2.1.2.3 0 .2.1.5-.1.7-.3.2-.2.7-.1 1h.3c.4.4-.3.6-.4.9.8.3-.6.7.2 1-.1.1-.2.1-.2.2.1.3-.2.9.2 1-.1.1-.2.1-.2.2.1.3-.2.9.2 1-.1.1-.2.1-.2.2l.2.3c-.2.1-.3.3-.4.5.3.3.1.8.2 1.2.1.1.3.3.2.5.2.3-.3.3-.2.6.1 0 .2.1.2.2 0 .3-.1.5-.2.7.1.1.3.2.2.4l-1.4 1.5c.2.4-.4.3-.3.7-.3.2-.4.8-.9.7-.1.2-.4.3-.2.6.9-.2.1.9.7 1.1.1.3-.2.2-.2.4 0 .3.4.5.5.7-.5.3-.2.9-.3 1.4.4.1.2.7.5.8-.2.1-.2.1-.4.1-.5.2-.3.7-.5 1-.4-.2-.3.3-.5.5-.5 0-.7.5-1.1.8.1.2-.1.3-.3.5 0 .3-.1.6.3.7l-.6.6c-.5-.1-.7.2-.9.4-.1.3-.5.3-.6 0-.4.8-1.8 1.2-1.5 2.3.3 1.1 1.7.5 2.5.6l.3.2h5.8l.3-.2c.5 0 1.4.3 1.7-.2l.1.1c.4-.1.9.2 1.1-.3.3.1.6 0 .9.1.3-.5.9-.1 1.3-.3.2-.3.8-.1 1.2-.2.3-.5 1.3 0 1.6-.5h2.7c.1.1.2.1.2.2.2.1.6-.2.7.2l.9.1c.2.3.7.1 1.1.2 0-.1.2-.3.3-.3.1.5.6.2.9.3.1-.5.7-.2 1-.3.1-.1.2-.3.4-.2.2-.3.9-.4.6-.9-.2 0-.1.2-.3.2-.1 0-.1 0-.2-.1.2-.3.5-.5.7-.8-.2-.5.3-.6.5-.9.1-.3-.1-.3-.2-.4-.1-.2.2-.1.2-.3l-.5-.5c.2-.1.3-.4.5-.4-.1-.2-.3-.3-.3-.6-.1-.2-.5-.2-.4-.6-.2 0-.3-.3-.5-.3-.1.1-.3 0-.2.2 0 .1-.1.1-.2.1s-.1-.1-.1-.2c.2-.1.2-.5.6-.4 0-.4.5-.1.6-.4-.1 0-.2-.1-.2-.2.2-.2.6-.3.5-.7 0-.1-.2-.1-.3-.2.1-.5-.8-.6-.5-1.3.3-.1.5-.2.7-.5.2-.4-.4-.2-.3-.6 0-.1.1-.1.2-.1 0-.5.6-.1.7-.3l-.2-.3c.4-.1.1-.6.4-.7l-.3-.2c.3-.1.3-.6.6-.2-.1.2-.3.1-.2.3.2.1.4.4.6.2l-.3-.3.1-.1c.1 0 .1 0 .2.1 0 .2.2.2.4.2 0 .3.4.1.4.4h.2c0-.2-.5-.4-.5-.6.1-.2.3-.1.5-.1-.3-.5.5-.3.2-.9h-.2c0 .2.1.4-.1.5-.1 0-.2-.1-.2-.2-.1-.4.3-.5.5-.7.2-.4-.4-.4-.2-.7-.2-.3-.5-.3-.9-.3v.2c.2.2.5.2.7.4 0 .1-.1.1-.1.2-.6.3-.6-.4-.9-.6l.4-.4c.3.1.9-.2 1 .2.2 0 .4.1.6-.1.1-.3-.1-.4-.4-.4-.6-1.1 1-1.2.9-2.2.1-.2.2-.1.4-.1.1-.2.5-.3.4-.6 0-.1-.1-.1-.2-.1-.1.5-.8 0-.9.5-.4-.2.2-.3.1-.5.1 0 .2-.2.3-.1l.6-.5c.1.1.2.1.1.3.1 0 .1 0 .2-.1-1-.6.6-1 .3-1.4.4-.1.3.4.6.3.5.5.7 1.2 1.6 1 .1.4.6 0 .6.4l.3-.2c.1.1.1.2.2.2l.3-.2c.3.2-.2.5.2.7.1-.1.1-.2.2-.2s.2.1.2.1c-.1.4.3.5.5.8-.1.1-.1.5.1.5 1.1-.4.2 1 1.1 1.1-.3.6.6.1.5.6.4.1 1-.2 1.2.2.3-.1.5.3.7.4.1.2.5-.1.4.3-.1 0-.1.1-.2.1v.2h.1c.1.1.3.2.1.4.1.2.2.1.4.1.1.4.6.1.7.5.4-.1.5.5.9.5.1.2.4.3.4.6.4.1.1.6.5.7-.1.1-.1.2-.2.2-.1.3.2.3.2.6-.1.1-.1.2-.2.2-.1.4.2 1-.3 1.2.2.1.2.5.6.4.2.1.1.3.1.4.2.1.4.1.5-.1.4.1.5-.4.7-.6.1 0 .4.1.4-.1.3 0 .5-.4.8-.6.4.1.5-.3.7-.5.3.1.3-.1.4-.2.4.1.5-.3.7-.5.5.1.5-.6 1.1-.5.3-.3.4-.8.9-.7l1.1-1c-.2-.6.6-.5.5-1.1.4 0 0-.4.3-.6.2-.1 0-.5.4-.6-.1-.4.2-.5.4-.7 0 .4.4.5.4 1 1.1.1.1-1.1.9-1.4-.3-.4.3-.5.4-.8-.2-.4.4-.4.4-.7-.1-.5.6-.6.6-1.1.2-.4.7-.5.7-1l3.5-3.5h.2c.1-.2.4-.2.4-.5.3-.2.5-.5.7-.7.4 0 .7-.5 1-.7.4-.2.6-.6 1-.9h.2c.2-.1.2-.1.2-.3.5-.5.9-1 1.4-1.5-.2-.5.6-.6.5-1l.2-.2c.1-.1.1-.2 0-.2.1-.2.4-.3.3-.6.2-.1.2-.3.3-.5V90l.1-.1v-.2c0-.1.1-.2.3-.3-.1-.4.5-.4.2-.8.5 0 0-.7.5-.7-.2-.4.4-.3.2-.7.4-.1.1-.6.5-.7 0-.1.1-.3-.1-.3.1-.2.4-.3.2-.6.1-.1.1-.2.2-.2.1-.3-.2-.7.2-.7-.2-.5.6-.5.2-1.1.1-.1.1-.2.2-.2v-.6c.3-.1.2-.4.3-.6.4-.1 0-.6.3-.7.2-.1 0-.5.2-.7.4-.2-.1-.9.4-1.1-.1-.3.2-.9-.2-1l.2-.2c.1-.3-.3-.5-.5-.7.1-.3-.3-.5-.5-.7.3-.2.4-.6.9-.4.1-.2.5-.2.4-.6-.2-.1-.3-.5-.6-.4-.3-.1-.2.3-.5.2 0-.1-.1-.1-.1-.2l-.9-.1c0-.2-.2-.2-.4-.2 0-.2-.5-.2-.3-.5.2 0 .2-.2.1-.4.1-.1.1-.2.2-.1 0 .1.1.1.1.2l1 .1c.1.1.2.3.3.2 0-.1.1-.1.1-.2.5.1 1.2-.3 1.4.4.7-.1.3-.9.4-1.3.4-.3.2-.9.2-1.3.5-.3.2-1.2.2-1.7l.3-.3c0-.7.1-1.4-.1-2.1l.2-.2c0-1.3.1-2.7-.1-4-.2-.1 0-.4-.2-.5-.4.2-.4-.3-.6-.5-.4.1-.9-.2-1.1.2-.3.3-1 .1-1.2.7.3.4.7.3.7.9 0 .1-.2.2-.3.2 0 .2-.1.4.1.6.5-.1.9.4 1.2.7-.1.1-.1.2-.2.2.1.3-.2.4-.3.6.2 0 .4-.1.5.1-.2.3-.6.7-.9.9-.1.3 0 .7-.3.8l.3.2c.2.7-.6.3-.7.6-.2.2-.4.2-.7.3 0-.1-.1-.1-.1-.2h.7c-.2.3-.3.4-.3.7.2.1.2.5.6.4.1.1.2.1.2.3.3 0 .2-.4.6-.3.3 0 .4.2.4.5.1 0 .2-.2.3-.2l.1.1c.2.2.1.4-.1.5-.3-.1-.5.3-.7.5-.3-.1-.4-.3-.6-.5-.2.1-.3-.2-.4-.3-.2.5-.9 0-1 .5-.1-.4-.6-.1-.7-.5-.1.2-.2.3-.4.3-.1-.2-.6-.2-.4-.6.1-.2.3-.1.5-.2-.1-.3.3-.5.5-.7 0-.5-.4.1-.5-.2-.1-.2.2-.1.2-.3.1-.3-.2-.4-.3-.6l-.3.3-.1-.1c.1-.5-.5-.6-.7-.9-.1-.2 0-.5-.4-.4-.3-.1-.1-.4-.1-.6-.3-.2-.7-.1-1-.1-.1.1-.2.3-.4.2-.1-.1 0-.3-.1-.4l-.4-.1c-.2-.4-.5 0-.6-.4l.2-.3c-.1 0-.2 0-.2-.1s.1-.2.1-.2c.3 0-.1-.5.3-.4 0 .1.1.1.1.2h.2c.2-.6-.6-.3-.7-.7l.2-.3-.2-.2c.2-.4.3.3.6.1.1-.3.6-.1.4-.6.1-.2.2-.1.4-.1.3.3.1 1 .2 1.5-.1.1-.1.2-.3.2v.2c0 .2-.1.3-.2.3 0 .4.5 0 .6.4.4.2.4-.3.7-.2 0-.1.1-.2 0-.2.3-.2.4-.7.9-.7l1-.9c.8.4.7-.7 1.4-.6.2-.5-.3-.7-.5-1l.2-.3c-.1-.2-.4.1-.5-.2.2-.6-.5-.1-.6-.6-.3.2-.4-.3-.6-.3-.2.6-.5-.1-.9 0 0-.1-.1-.1-.1-.2h-.2c-.2-.2-.5-.3-.5-.6.1-.1.1-.2.2-.2v-.5c-.1 0-.4.1-.4-.1 0-.1.2-.2.2-.2-.1-.1-.2 0-.4-.1-.1-.1-.2-.1-.2-.3-.1 0-.4.1-.4-.1-.1-.2-.5 0-.7-.2-.1-.4-.6 0-.6-.4l-.3.2c-.1-.1-.1-.2-.2-.2-.4.1-.5-.3-.7-.5-.2 0-.5.1-.6-.1-.1-.2-.5 0-.7-.2-.1-.2.2-.1.2-.3l-.1-.1h-.2c-.3.1-.6-.1-.6-.4-.3-.1-.1-.5-.2-.7-.2-.4-.6-.1-.8-.6-.6.2-.8-.4-1.2-.7-.2-.1-.6.1-.7-.2-.1-.5-.6-.1-.7-.6-.5.1-.5-.6-1-.5 0-.1-.1-.1-.1-.2-.7.1-.6-.8-1.4-.6-.1-.2-.3-.2-.4-.4-.2-.1-.4-.1-.6-.2 0 .1-.1.1-.1.2-.5-.1-.2-.8-.7-.9-.2 0-.4 0-.4.2-.4-.2-.8-.8-1.3-1.1h-.3c0-.1-.1-.1-.1-.2l.4-.4c.2.1.4-.1.5-.2.3 0 .6 0 .7.2l1.1-1.1c-.1-.3.2-.4.2-.6.4 0 .7-.5 1-.7.2 0 .4-.1.5-.3l.3.3c.1-.2.3-.3.5-.3.3-.3.6-.5 1-.6.2-.4.7 0 .9-.4.4.1.5-.3.7-.5.3.1.4-.2.6-.3-.1-.4.1-.6.3-.9.2-.1.2.3.4.2.1-.3.5-.1.6-.4.7.2 1-.6 1.4-1 .4 0 .5-.4.8-.6-.1-.9 1-.1 1.2-.7.2.1 0 .4.2.5.7-.3.7.6 1.3.5.2.5 1 0 1.1.5l.1-.1c.3-.5.8-.7 1.2-.9.4.3.6.7.9 1 .1 0 .4-.1.4.1-.2.4.4.3.3.7-.1.1-.1.2-.3.2v.3c-.1.1-.1.2-.2.2 0 .3.1.7-.3.7.2.5-.3.4-.5.7.2.5-.4.4-.3.9-.7-.2-.3.6-.4.9-.2.1-.3.3-.2.5-.4.3-.7.6-.9 1 .3.6-.7 0-.4.6 0 .3-.3.2-.5.2.1.4-.3.4-.4.7-.3-.1-.4.2-.6.3-.1.3.2.3.2.6-.1.1-.2.1-.2.2.2.5-.2.7-.5 1 .1.2-.2.4-.2.5l.2.2-.2.3c.1 0 .3.2.2.3-.5 0-.1.6-.5.6l.2.2c.1.3-.2.3-.2.6l.6.6c.5-.2.9.1 1.4 0 0-.1.2-.3.3-.2.1.1.1.2.2.2.1-.1.1-.2.2-.2.2-.1.1.2.3.2.3-.5.7-.9 1.4-.7.1-.9 1.2-.1 1.4-.9.2.1.3-.1.5-.3l.2.3.5-.5c.4 0 .6-.6 1-.7v-.3c0-.1.1-.1.2-.1h.1v.1c-.2 0 .3.2.2.4.1.1 0 .1-.1.3.5.1.1.8.7.6-.1.7.7.2.8.7-.1.5.6.5.4 1 0 0 .3.1.3.2.1.1 0 .2.1.3 0 .2.1.3.2.4.1.1.1.2.1.3 0 .2.1.4.1.6 0 .1.1.1.2.2s.1.2.2.2v-.4c0-.3-.2-.7-.2-1zm-23.5-43.7c.1 0 .1 0 .2.1 0 .1 0 .1-.1.1h-.1v-.2zm-49.7-9.3h-.1c-.1-.1.1-.3.2-.1v.1h-.1zm3 2.2c-.1 0-.2.1-.3-.1 0-.2.3-.1.4-.1.1.1 0 .2-.1.2zm-.2 5.6c-.1-.1-.1-.2-.2-.2h-.1v-.3c.3 0 .2.3.4.4l-.1.1zm-2.2 4.6l-.1-.1c-.1-.2.1-.1.2-.2-.1.1 0 .2-.1.3zm1.9-.5c-.1 0-.3-.1-.4.1-.1.2-.2.4-.4.4-.1 0-.1.1-.1.2h-.2v-.2c.3-.1.4-.5.7-.6 0-.2.2-.2.2-.4.1 0 .1 0 .2.1s.2.3 0 .4zm1.7-7.9c0 .1.1.1.1.1l.1-.1c0 .1-.1.3-.1.5-.1 0-.2.2-.4.1v-.1c.2 0 .2-.3.3-.5zm-.7-1.7c0-.1.2 0 .3 0 0 .1-.2.1-.3 0zm.1 4.5c0 .1 0 .1-.1.2 0 0-.1 0-.1-.1 0 0 .1-.1.2-.1zm.5 1.6c-.1 0-.2.1-.3.1l.3.3c-.1.1-.5.1-.7 0-.2-.6.7-.1.6-.6l.1.1v.1zm.1-1.2c0 .1-.1.1-.2.1-.3-.1 0-.3 0-.4.4-.1.5.5.7.6-.2.2-.3-.3-.5-.3zm.5-1.1l-.3-.3c-.1.2 0 .7-.4.5V11c.2-.2.5-.4.7-.7.2 0 .3.2.4.3-.1.2-.3.3-.4.4zm1.7-1.5h-.1v-.1c-.1 0-.1-.1-.2-.1l-.1.1c-.1.1-.1.3-.3.2l.1-.8s0 .1.1.1c.1.2.3.4.5.4.1 0 .1.1 0 .2zm.5-7.2c-.1 0-.1 0-.2-.1 0-.1.2-.2.2-.1.1.1.1.2 0 .2zm1.7 1.4c-.3-.1.1-.6-.4-.6l-.2-.3c.3.2.4-.3.6-.2-.1.2-.4.3-.2.6.1.1.2.1.2.2.1.2.1.3 0 .3zm.2 19.6l-.1-.2h.1s.1.1 0 .2zm-57 34.4c-.1 0-.1 0-.2-.1-.1-.2.1-.4.2-.2 0 0 .1.2 0 .3zm2.8 2.2h-.1v-.2c.1 0 .1 0 .2.1l-.1.1zm1.3-13.5c-.1 0-.1 0-.2-.1 0-.1.2-.2.2-.1v.2zm.8 14.4h-.2c0-.1 0-.1-.1-.1.1-.2.4-.2.4 0 0 0 0 .2-.1.1zm2.1 1.4c-.1 0-.1 0-.1.1-.1 0-.1-.2 0-.2 0 0 .1 0 .1.1zm1.4 1.5h-.1l.1-.4c.1 0 .1.1.1.1-.1.1 0 .3-.1.3zm1.9 2.5c.1 0 .1 0 0 0 .1-.1.2-.1.2-.1 0 .1-.1.1-.2.1zm8.2 41.5v.2h-.1l-.1-.1c.1-.2.1-.1.2-.1zm-.7-.6c.1 0 .2 0 .2.1s0 .1-.1.2c-.1 0-.2.1-.2-.1s.1-.1.1-.2zm33.2-2.2v.2c-.1 0-.1 0-.2-.1 0 0 .1-.1.2-.1zm-.2-.5c0 .1 0 .1.1.1 0 .1-.1.1-.2.1-.2 0 0-.2.1-.2zm-.9.3c0-.1 0-.2.1-.3.2.2.1.5.4.6-.3.3-.4-.2-.5-.3zm.1-21.9c.1 0 .1 0 .1.1s.1.2-.1.3h-.1l.1-.4zm.2 20.7c.1 0 .1 0 .2.1-.2.1-.3.7-.7.4-.1-.5.5 0 .5-.5zm-.5-15.9c.1 0 .1 0 .2.1v.1c-.2 0-.3-.1-.2-.2zm-1.3-4.4c.1 0 .1 0 .2.1v.1c-.1.1-.2 0-.2-.2zm-.7 18v.1c-.2 0-.4-.2-.4-.4.2-.2.2.2.4.3zm-1.2-18.1c0 .1 0 .1-.1.1s-.2 0-.2-.1.3-.1.3 0zm-10.3 1.4h.2v.2c-.2 0-.3-.1-.2-.2zm-2.3.7l.1.1c0 .1 0 .1-.1.2-.1 0-.1 0-.1-.1l.1-.2zm-2.6 19.4l.1-.1c.2.1.3.2.4.4-.3 0-.3-.2-.5-.3zm.2-.8c0 .1 0 .1-.1.2 0 0-.1 0-.1-.1-.1-.1.1-.2.2-.1zm.6-.9c0-.2.2-.1.4-.1 0 .2.2.2.3.3v.2c-.4.1-.5-.3-.7-.4zm1 1.3c0-.3-.6-.2-.2-.4 0 .2.1.3.3.3l-.1.1zm.4-.1c-.2-.2-.5-.4-.7-.6-.1-.2.2-.2.2-.2.1-.2-.2-.1-.2-.3 0-.1.1-.1.1-.2.1 0 .4-.1.4.1.1 0 .1 0 .2.1-.1.1-.3.2-.2.4.1.1.2.3.4.3.1 0 .1-.2.3-.2 0 0 .1 0 .1.1h-.1c0 .1 0 .1.1.2-.4.1-.3.3-.6.3zm.5-.5v.1h-.1c.1 0 .1-.1.1-.1zm-.1.6l-.1-.2c.1 0 .3-.1.4.1-.1 0-.2.1-.3.1zm1.6 3.8c-.1 0-.1 0-.1-.1s0-.4.2-.3c0 .2.1.3-.1.4zm.3.5h-.2c0-.1.2-.2.2 0zm-.1-4.8c0-.1.1-.1.1-.2.1 0 .1.1.1.2h-.2zm.3 8.2c-.1 0-.1 0-.1-.1l.1-.2.1.1c0 .1 0 .2-.1.2zm.2.9c.3 0 .1-1 .4-.4 0 .2-.1.3-.1.4-.1 0-.3.1-.3 0zm.3 1.7c-.1 0-.1 0-.2-.1 0-.1.2-.2.2-.1.1.2 0 .2 0 .2zm.7-.2c-.1.1-.1.2-.1.2h-.1v-.2s.1.1.2 0c0-.1-.1-.2-.2-.2h-.3c0-.3-.6-.3-.2-.7h.3v.2c-.1 0-.1.1-.2.1 0 .4.9-.1.7.6l.2.2c0 .1-.1.1-.2.1 0-.1.1-.4-.1-.3zm.4-2.8c.1-.1.3 0 .2.1-.4 0 0 .7-.4.4-.2-.3.3-.2.2-.5zm.3 2.1h.1v.2c-.2 0-.3-.3-.4-.4.1-.6-.6-.2-.7-.6.1-.3.2 0 .2.1.3-.1.4.2.6.3 0 .2.2.3.2.4zm.1.6v.1c-.1 0-.1 0-.2-.1 0-.1.2-.2.2 0zm-.5-4c-.2-.1-.6.2-.7-.2 0-.1 0-.3.2-.2.1.2.3.3.5.2v.2zm-.5.3c0 .1 0 .1-.1.2-.1 0-.4 0-.3-.2h.4zm0 .5c0 .1 0 .1-.1.2-.1 0-.4 0-.3-.2h.4zm.8 5c-.1 0-.1 0-.2-.1 0-.1.1-.1.1-.2.1.1 0 .2.1.3zm.2 1.6h-.1c0-.2.3-.3.4-.4 0 .2-.3.4-.3.4zm.3-2.1c-.1 0-.2-.1-.2-.2h.2v.2zm0-2.2c-.1 0-.1 0-.2-.1-.3-.4.6-.2.1-.6-.3-.1-.5.2-.8 0 0-.4.4 0 .5-.4h.1c0 .1.1.1.1.2.1 0 .1 0 .2-.1-.1-.3-.5-.5-.1-.6 0 .1.1.2.2.2s.1 0 .1-.1v-.2h.2c.1.2-.2.2-.3.2.8.3-.5.5.1.9.2 0 .6.1.4-.2v-.2h.2c.3.5-.5.2-.2.7l-.1.1c-.3-.1-.3-.5-.6-.4 0 .3.1.5.1.6zm-.5-2.8h.2v.2c-.1 0-.2-.1-.2-.2zm.3.5h.2c0 .1 0 .1-.1.2-.1 0-.1-.1-.1-.2zm.5.3h.2c0 .1 0 .1-.1.2-.1-.2-.2-.1-.1-.2zm1.3 5.7H39.327c.1-.2.3-.4.5-.6 0-.2-.2-.1-.2-.2l.1-.2c0 .3.5.2.3.6 0 .1.1.2.1.4zm-1.3-2.5c0-.2-.4-.2-.3-.4h.3c.2.3.6.5.7.9-.6.3.1-.8-.7-.5zm.7.8c0 .1 0 .1-.1.2-.1 0-.1-.1-.1-.2h.2zm.2-1.8c.2.3-.3.3-.2.6h-.2c-.1-.2.1-.2.2-.3.1-.1 0-.7.2-.3zm-.2-1.4c-.1-.3.3-.2.4-.1 0 .1 0 .1-.1.2-.1 0-.2 0-.3-.1zm-.8 4.9h-.1l-.1-.4h.2v.4zm.4-.7c0-.2-.6-.2-.3-.5.1.1.6.3.3.5zm.4 1.8c-.1 0-.1 0-.2-.1 0-.1.1-.2.2-.1v.2zm.4-.2c-.1 0-.3-.2-.4-.3 0-.1.1-.1.1-.1.1.1 0 .3.2.3 0-.2.2-.3.4-.3l.1.1c0 .3-.5-.1-.4.3zm.7-.9c-.1 0-.1 0-.1.1-.1 0-.1-.2 0-.2 0 0 .1 0 .1.1zm.2.9h-.1v-.2c.1 0 .1 0 .2.1l-.1.1zm0-1.6l-.1-.2c.1 0 .1 0 .2.1l-.1.1zm0-.5c-.1 0-.1-.1-.1-.2.1 0 .1-.1.2-.1-.1-.2-.2-.4-.4-.4-.2.1.1.6-.2.5-.1.1 0 .3-.1.4h-.2v-.4c.2.1.2-.1.3-.2.1-.2-.1-.4-.3-.4l.3-.3c-.1-.3-.4 0-.4-.2l.1-.3 1.3 1.4-.5.2zm-.7-2.4v.1h-.2c0-.1.2-.2.2-.1zm1.2 1.4c-.2-.1-.3-.2-.4-.4-.2-.1-.6-.1-.4-.4.4-.1.2-.5.5-.7 0-.2-.3 0-.3-.3l.1-.2c.2.1 0 .7.4.4v-.1h.4c.1.2-.1.1-.2.2-.5-.1-.1.5-.5.6v.1c-.1 0-.2-.1-.3.1.2.2.2.5.6.6-.1.2.2.2.3.2-.2-.2-.2-.2-.2-.1zm1.4 1.7c-.1-.2-.4-.2-.5 0h-.1c0-.2.1-.5-.2-.5h-.2c-.3-.3.6-.6-.1-.7 0-.1.1-.1.3-.1 0 .1-.1.2.1.3.2-.1.1.1.2.2l-.1.1c.1.2.3.2.5.2 0 .1.1.2.2.2h.3c0 .1-.3.1-.4.3zm0-2.9c.1.2 0 .4.1.6-.1.1-.2.1-.3.2.5 0 0 .8.5.9.1-.1 0-.3.3-.3.1.3-.5.2-.1.5.1 0 .4-.1.4.1v.3l-.6-.3c-.3-.2-.3-.5-.4-.7-.8.3-.7-.7-1.3-.7 0-.1.1-.2-.1-.2h-.2v-.2c.1.1.3.1.3.3.4 0 0-.3.2-.5.2-.1.2.2.4.3 0 .2-.1.5.1.7.2.1.2-.1.2-.2 0-.3 0-.7.4-.6.1-.1 0-.2.1-.2zm-.3-.2c-.2-.2-.3.1-.5-.1.1-.2.5-.1.7-.1 0 .1-.2.1-.2.2zm0-2.6l-.1.1c-.1 0-.1 0-.2-.1 0-.1.2-.1.3 0zm-.5 1.4c0 .5 1.1.1.4.5-.4-.2-1.1.2-1.2-.4.1-.1.1-.3.4-.3.1.2.3.3.4.2zm1.8-16c-.1 0-.1-.2 0-.2s.1.1.2.1c-.1.1-.2.1-.2.1zm2 2.2c-.1 0-.1-.1-.1-.2h.2c-.1.1-.1.2-.1.2zm0-.7c-.1-.2-.5-.2-.4-.4.3 0 .2.3.4.3v.1zm-.7-8.4l-.1.1h-.2c-.1-.2.4-.5.3-.1zm-14.6-.5c.1 0 .3.1.4-.1.1-.2-.3-.2-.2-.4.1 0 .2-.1.3-.2-.1-.1-.1-.2.1-.3.3.1.4-.2.5-.2 0 .3-.4.3-.3.7-.2.1-.1.3-.2.4-.2 0-.3.5-.6.3v-.2zm.3 6.7c0-.2.1-.2.2-.1-.1.1-.2.1-.2.1zm.1.5c-.1 0-.2 0-.3-.1l.1-.1.2.2zm-1.1-7.4c.3-.1.2.2.2.4 0 .1.1.2-.1.3-.1 0-.1-.1-.2-.1l.1-.6zm-.3 6.7c0 .1 0 .1-.1.2-.1 0-.1-.1-.1-.2h.2zm-.8 2c.1-.2.3-.1.4-.1 0-.5.6 0 .7-.5.4.1.5-.6 1-.5 0-.2.6-.2.3-.5l.3-.3-.4-.4c0-.2.2-.4.4-.4 0 .1.2.1.1.2.2.2.4-.1.5-.2.2-.1.1.3.4.2 0-.1-.1-.3.1-.4.2-.1.2.3.4.2v-.1c.2-.4.7-.2.9-.6.2 0 .4.1.5.2l.6-.6c-.1-.4.3-.3.3-.6.2-.1.2.2.2.2l.3-.2c.1.1.1.3.3.2 0-.1 0-.1.1-.1l-.1-.1c0-.1 0-.2.1-.3l.3.2.4-.5c.2 0 .4-.1.5-.2.6.2.3-.6.7-.7.2 0 .4 0 .4.2-.1.2-.5.2-.5.6.4.1.6-.4.9-.6-.2-.1 0-.3.1-.4l.2.2c.2.6.4-.2.7 0v-.3c.3-.5.6.4.9-.1.3-.1.1.3.4.2 0-.1-.1-.3.1-.4.2-.1.4-.1.6-.2 0 .1.1.1.1.2.4-.1.5-.5.7-.7.1 0 .2.1.2.1 0 .1.2.1.4.1.4.1.1-.4.4-.5.1 0 .2.1.2.1 0 .1-.1.2-.1.2 0 .1.1.1.2.1.1-.8 1-.2 1.4-.5 0-.1-.1-.3.1-.4h.1s.1 0 .1.1c.1.2-.1.2-.2.3 0 .2 0 .3.2.4.1.3.1.6-.2.7v1.7l.2.1c.2.2 0 .4-.2.6 0 .4.1.6.3.9 0 .3-.3.2-.5.3.1.2.2.4.4.5.3.5-.3.5-.2 1 .6.3 0 .5 0 .8h-.1c-.5-.1-.3-.8-.7-.7-.1.1-.1.2-.2.2-.3 0-.3-.3-.5-.5-.6-.2-.8.4-1.2.7-.5-.2-.7.3-1 .5l-.3-.2c-.1.5-.6.1-.7.5-.1-.1-.1-.2-.2-.2l-.4.3c.1.5-.4.6-.6.9l-.2-.2h-.1c-.1-.2-.1-.5-.4-.5-.1-.4-.7-.2-1-.3-.2-.4-.5-.2-.8-.2-.3.5-.9.8-1 1.3-.1.1-.3.2-.4.2-.3-.1-.3.1-.2.3-.1 0-.1.1-.2.1-.4-.2.2-.2.1-.5-.1 0-.1 0-.1-.1 0 .1-.1.1-.2.1-.1.5-.9 0-1 .5-.3.1-.5-.2-.8-.2-.2.1-.2.5-.5.4-.3-.5-.6.2-1 .1 0 .1 0 .1.1.2-.1.1-.1.3-.3.2 0-.1-.1-.1-.1-.2-.6-.2-1.6.2-2-.3 0-.6-.6-.6-.8-1.1v-.7h.1zm-1.3 4.3c.2.1.3.3.4.4-.1.1-.2 0-.3.1-.3-.1-.2-.4-.1-.5zm-.4.7c0 .1 0 .1-.1.2-.1 0 0-.2.1-.2zm-1.8 0c.1 0 .3-.1.4.1 0 .1-.1.1-.1.1-.1 0-.4.1-.3-.2zm-.3 1.5c0 .1 0 .1-.1.2-.1 0-.1 0-.1-.1-.1-.1.1-.2.2-.1zm-1.3.4c0 .1 0 .1-.1.2l-.1-.1c0-.1.2-.2.2-.1zm12.5-32.4l-.1.1c-.1 0-.1-.1-.1-.2.2-.1.3 0 .2.1zm-3.8 3.8c0 .1 0 .1-.1.2-.1 0-.2-.1-.1-.2h.2zm-1.2.2c0 .1.2.2.3.3l-.1.1c-.2 0-.1-.3-.4-.3 0-.1.1-.1.2-.1zm-.4-.4c0 .1 0 .1-.1.1h-.1c0-.1 0-.1-.1-.1.1-.1.2-.1.3 0zm-.3 1.9c0 .1 0 .1-.1.1s-.1 0-.2-.1c.1-.1.3-.1.3 0zm-.6.4c.1 0 .1 0 .2.1 0 .3-.2.3-.4.3-.2-.2.2-.2.2-.4zm-1.3-6.5c0 .1 0 .1-.1.2-.1 0-.1 0-.1-.1s.1-.1.2-.1zm-10.9 35.9c-.1 0-.4 0-.3-.2.1 0 .3 0 .4.1-.1 0 0 .1-.1.1zm2.2-.5c-.1 0-.2-.1-.2-.2h.2v.2zm.2.5c-.1 0-.1 0-.2-.1.1-.2.2-.3.4-.4.2.3-.2.2-.2.5zm1-22.9h-.1V84h.2c-.1.1 0 .1-.1.2zm-3.6-2c.2-.2-.3-.6.2-.6.4.3 1 .1 1.4.2.4-.2-.2-.6.2-.7l.5.6c0 .1-.3.1-.2.3l.1.1c.2-.4 1.3-.4.9-1.2-.2-.1-.3-.2-.2-.5h.2c0 .2-.1.4.1.5.5.3.4-.7.6-.1-.1.1-.3 0-.3.2.1.1.2.1.3.2-.1.2-.3.1-.3.3.1.2.3.2.3.4-.1 0-.2.2-.3.2-.2-.4-.5 0-.7.1 0 .3.4.2.2.6-.4-.1-.5.3-.7.5-.3.2-.9-.2-1.1.3-.3.1-.3-.1-.4-.2-.1.1-.3.3-.5.2-.2-.1.1-.4-.2-.5l-.3.2c-.3-.1.2-.7-.3-.7.2-.1.3-.3.5-.4zm-1 24.2c0 .1 0 .1-.1.2h-.1c0-.1.1-.2.2-.2zm.4-42.7l.1.1v.1s0-.1-.1-.2zm-3 2.9c.1.2-.3.3-.3.4-.1 0-.1 0-.1-.1.1.1.1-.3.4-.3zm-2.2-8.7h-.2c-.2-.4.2-.5.4-.7l.1.1c-.1.2-.3.3-.3.6zm14.4 3.2l.1.1-.1.1-.1-.1.1-.1zm-.8 0l.1.1v.1c-.1 0-.1 0-.1.1v-.3zm17-7v.2h-.2c0-.1.1-.2.2-.2zm-9.6.3v.2c-.1 0-.1 0-.2-.1 0-.1.1-.2.2-.1zm-2.6-.5c.1 0 .1 0 .2.1 0 .1 0 .1-.1.1h-.1v-.2zm-.2-.8c.1 0 .1 0 .1.1v.1c-.1 0-.1 0-.1.1-.1-.1-.1-.2 0-.3zm-2.6-.5c.1 0 .1.1.1.2h-.1v-.2zm-7.2.5c-.1 0-.1 0-.1-.1-.1-.1.1-.3.2-.1-.1.1 0 .2-.1.2zm-1.1-1.1c.1 0 .2.2.4.2.2-.1.4 0 .6-.1.2.1.2.3.4.3 0 .1 0 .1-.1.2-.2-.6-1.5.2-1.3-.6zm.4.8c-.1.1-.3.1-.4 0 0-.2.4-.2.4 0zm-1.5-1.1c.2.1.4.5.7.5.3.4-.2.5-.3.7-.6.2-.3-.5-.7-.6l.3-.6zm19.3-14.1c.2.3-.3.4-.4.5l-.1-.1c.6.1.1-.7.5-.4zm-.4-.3c0 .1 0 .1.1.1 0 .1-.1.1-.2.1-.2-.1-.1-.3.1-.2zm-.6 1.8c0 .1.1.1.1.2s-.1.1-.2.1c-.1-.1 0-.2.1-.3zm-.6-3.8c0 .1 0 .1-.1.2-.1 0-.1 0-.1-.1s.2-.2.2-.1zm-2.9 1c-.1.1-.1.4-.4.4-.1 0-.1-.1-.1-.2.3.2.3-.3.5-.2zm-1.2-2.4c.4 0-.1 1 .6.7 0 .1 0 .1-.1.2-.4.2-.3-.3-.6-.4v-.5h.1zm-1.9-12.7c-.1.1-.2 0-.4.1-.1-.1 0-.2.1-.2.1-.1.3 0 .3.1zm-.6-2.3c.1 0 .3-.1.3.1 0 .1.1.3-.1.3-.1 0-.2 0-.3-.1 0 0-.1-.2.1-.3zm.1 6.8v.2c-.1 0-.2-.1-.2-.2h.2zm-.3-7.5c0 .1 0 .1-.1.2 0 0-.1 0-.1-.1s.1-.2.2-.1zm0 4.4c0 .1 0 .1-.1.2 0 0-.1 0-.1-.1s.1-.3.2-.1zm-1.7-1.1c.2 0 .3.2.2.4 0 .1.1.2-.1.3h-.1c0-.1.1-.4-.1-.4h-.1c.1-.2.1-.2.2-.3zm-.9-2c-.1.1-.3 0-.4.1-.1-.1-.2-.2-.3-.2-.1-.2.2-.2.3-.2.2.1.3.2.4.3zm-.3-1.1c0 .1 0 .1.1.1-.1.2-.5.1-.7.1 0-.3.4-.1.6-.2zm-4.4 12.1l.1.1v.1c-.1 0-.1 0-.1.1-.1-.1-.1-.3 0-.3zm-.6-5.6l-.6.1.6-.1zm-.5-3.6c0 .1 0 .1-.1.2-.1 0-.1-.1-.1-.2h.2zm-.5-.8c0 .1.1.2-.1.3-.1 0-.1 0-.1-.1s0-.4.2-.2zm0 2.1c0 .1 0 .1-.1.2-.1 0-.1 0-.1-.1-.1-.1.1-.3.2-.1zm-5.1 19.2c-.1-.1-.3-.4-.5-.3-.1-.2-.2-.3-.4-.5-.1.1-.2.1-.2.2-.2.1-.2-.3-.4-.3 0-.2 0-.4.2-.4-.1-.3.2-.7-.2-.7v-.1c.1 0 .1-.1.2-.1-.2-.2-.1-.4-.3-.7-.2-.1-.4-.2-.4-.4.1-.5.8 0 1-.4.4-.2.3.4.7.2-.2.5.6.7.3 1.3-.1.2-.3.1-.3.3.3.2.4.6.5.9-.4.1-.1.7-.2 1zm10.4.2h-.2c.1-.1.1-.3.2-.1v.1zm3.8 0h-.1v-.2c.1 0 .1 0 .2.1 0 .1-.1.1-.1.1zm.5 0h-.1v-.2c.1 0 .1 0 .2.1 0 .1-.1.1-.1.1zm2.8-3.6c-.2.2 0 .4.2.6.1.2 0 .3-.2.4-.1-.1-.2-.1-.4 0-.2 0-.1-.3-.4-.2-.1.3-.4.2-.6.2-.2-.1 0-.4-.2-.5-.3-.1-.4.1-.6.2-.1-.1-.2-.1-.2-.2-.3.1-.4-.2-.6-.3 0 .1-.1.2-.2.3-.4.2-.3-.4-.6-.3-.4 0 0 .5-.3.6-.3 0-.2-.3-.2-.5h-.1c-.1.3-.4.2-.6.3-.3-.5-.5 0-1 0-.1-.1-.2-.1-.2-.3h-.6c-.1-.3-.4-.2-.6-.3 0-.4-.5 0-.6-.3.1-.6-.7 0-.8-.6-.5.1-.6-.8-1.2-.5-.1.3-.4.2-.6.4.2.6-.6.2-.6.6-.1-.1-.2-.1-.2-.2-.2 0-.4 0-.5-.2 0-.5-.7-.1-.7-.6-.7-.1-1.5.2-2-.2l-.2.2c-.4-.1-1 .2-1.2-.2l-.2.2c-.1 0-.1 0-.2-.1-.3-.1-.3-.5 0-.6-.4-.2-.4-.7-.7-.9l.2-.4c-.3-.1-.5-.4-.7-.6.1-.4-.3-.4-.6-.4-.1-.1-.2-.1-.1-.2-.2-.1-.1.2-.3.2-.1-.1-.2-.1-.2-.2-.2-.1-.1.2-.3.2-.1-.1-.2-.3-.4-.3-.1-.2.1-.2.2-.2.3-.4-.2-.6-.2-1 .2-.1.3-.6.7-.4l.6-.7c.4.1.5-.3.7-.5l.9.1c.1-.4.4-.2.7-.2 0-.1.1-.1.1-.2.5.1.6-.4.5-.7l.9-.1c.1-.2-.2-.1-.2-.3.1-.1.3-.1.2-.2-.2 0-.4 0-.5.2-.3.1-.2-.2-.4-.3-.3-.6.5-.7.3-1.3.1-.2.3-.1.4-.1 0-.2 0-.4.2-.5.2.1.2.6.5.5v.1c.1.1.2.1.2 0 .1.2 0 .5 0 .8.3-.1.4.1.5.2 0 0 .1 0 .1.1.1.1.1.2.2.3h.5v.2l.3-.2.1.1c0 .1.1.2-.1.3-.3.1-.8.2-.9-.2l-.1.1c.4 0 .1.7.4.6 0-.2.3-.2.4-.2.4.3-.4.2-.1.6-.1.1-.1.2-.2.2v.1c.3.3.3-.3.7-.2.2.3-.1.5-.2.7.4.3.4-.3.7-.2.2 0 .4.3.3.5.3.1.2-.3.4-.3s.2.2.3.4c0 .2-.3.2-.4.2-.1.3 0 .7-.1.9.1 0 .1 0 .2.1.1.2.1.2.3.2.3.1.5-.1.4-.4-.4 0-.1-.5-.2-.7.3-.3.5.4.7.2 0-.1-.1-.2-.1-.2-.2-.1-.3-.5-.6-.4-.1-.2.1-.2.2-.3.1-.2-.1-.2-.2-.2-.2-.6.4-.7.2-1.3-.2-.2-.2-.4-.2-.7.2-.3.7-.1 1.1-.1.1-.5.7-.1.7-.5l.1.1c0 .2.3.2.4.2.1-.5.6-.1.7-.5l.1.1c0 .3.4.1.6.2.1.1.2.1.2.2h.3c.3-.3.6-.6.5-1.1-.4-.1 0-.6-.4-.7l.3-.2c-.4-.2-.4-.8-.5-1.2-.7-.3-.6-1.1-1.2-1.5-.5.2-.4-.4-.9-.3-.1-.3-.6-.1-.9-.2-.1-.1-.2-.3-.4-.2-.1.1-.1.2-.2.2-.2.1-.2-.2-.2-.2-.2.1-.1.3-.3.2-.1-.1-.1-.2-.2-.2h-.3s-.1-.1-.1-.2c.1-.1.2-.1.2-.2-.1-.5.2-1.1-.2-1.4 0-.1 0-.1.1-.2 1 0-.1-.5.2-1-.5-.2-.2-.7-.2-1 .2-.3.5-.4.9-.4.2-.5.8 0 1-.5l.1.1c.1-.1.5-.2.6-.6.1 0 .1.1.2.1.1.2-.2.2-.3.2l.1.2c.1 0 .2.1.2-.1l.2.2c.1.2-.2.4-.2.5.5.2 0 .9.4 1.2.4.4.1-.3.4-.4.1 0 .2.2.2.2.4-.1.7.2.9.4 0 .4.1.8.3 1.1-.3.4.4.4.2.9.1.6.8.1.9.6.1.2-.2.1-.2.3.3.3.4.6.7 1l-.1.1c-.2 0-.4 0-.4-.3-.1 0-.1 0-.2.1.3.1.2.5.2.8h.2c-.1-.6.6-.2.6-.7.1 0 .1 0 .2.1 0 .3-.3.3-.5.6-.1.3.3.2.2.4-1.4.1.5.5 0 1.2.2.2.3.3.5.4.1.2-.2.1-.2.3 0 .1 0 .3.1.4-.1.7.8.2.9.8.1.4-.3.5-.5.8.1.1.2 0 .4.1 0 .1.1.1.1.2.5-.1-.2-.1-.1-.4.4-.3.2.3.6.2.1.3-.2.4-.2.6.1.2.4-.1.5.2l-.3.2c0 .2.2.1.3.2l-.2.2c-.2-.1-.6 0-.7-.3-.3.3.2.2.2.4.3.2.5-.2.7.2-.1.1-.1.2-.3.2.1.2.5.5.7.8l-.4.4c-.4.1 0-.5-.3-.5-.1.2-.3.2-.3.4.1 0 .2.1.2.2-.1.5 1.1.8.5 1.2l.2.1c.1.2-.1.2-.2.3l.7.7c-.1.5.6.5.5 1.1h.1c.2.1.2.3.1.4-.2.4-.6.2-.7.6 0 .4.5.1.7.2.1.1 0 .3.2.2 0 .1.2.2 0 .3-.2.1-.2-.2-.2-.2-.2 0-.2.2-.2.4-.1 0-.1.1-.2.1v.1c.2 0 .4 0 .6-.2.1 0 .3-.1.4.1 0 0-.1.2-.3.2zm-10.4-8.1c.1 0 .1 0 .2.1 0 .1 0 .1-.1.1l-.1-.2zm.6 2.1v.1c-.1.1-.5.1-.3-.1h.3zm10.3 7c-.2-.1 0-.2.1-.3.1 0 .1.1.1.2-.1 0-.2.1-.2.1zm1 .3h.1c.2.4-.3.3-.2.6-.3-.1-.5-.4-.7-.6.1-.1.2-.1.3-.1 0 .3.4.4.5.1zm11.9.5c0 .1.1.2-.1.3-.1 0-.1 0-.2-.1 0-.1.2-.4.3-.2zm-7-10.2c0 .1.1.4-.1.4-.1 0-.3.1-.3-.1.1 0 .2-.4.4-.3zm3.4-11.1c-.1 0-.2-.1-.2-.2.1 0 .1 0 .2.1v.1zm.7-.2c-.1 0-.1 0-.1-.1-.1-.1.1-.3.2-.1-.1.1-.1.1-.1.2zm.7-8.7c-.1 0-.1 0-.1-.1l.1-.2.1.1c0 .1 0 .2-.1.2zm.9 11.5l-.3-.1.1-.6c.2-.1.4.1.3.3 0 .2 0 .4-.1.4zm1.5 1.4c0 .1-.2.2-.3.1-.1 0-.1-.1-.1-.2.2-.2.5-.3.6-.6l.1.1c-.1.3-.3.3-.3.6zm3.4-3.5c-.1 0-.1 0-.2-.1l.1-.1.1.1v.1zm7.5 8.9c-.1.1-.3 0-.4.1 0-.1 0-.1-.1-.1.1-.3.5-.2.5 0zm0 1.2c-.3 0-.1-.4-.4-.5.3-.4.5.1.5.4-.1 0-.2 0-.1.1zm2-.9l.1.1v.2l-.2-.1.1-.2zm1.1-10.3c0 .1 0 .1-.1.1s-.1 0-.2-.1c.1-.1.2-.1.3 0zm0 .8c0 .1 0 .1-.1.1h-.1V19c.1 0 .2 0 .2.1zm-.2 1.1c-.1-.1-.3-.1-.2-.2.1.1.5.2.4.5-.1.2-.4.1-.6.1l-.1-.1c.2-.2.5.1.5-.3zm-1.3 2.1c0 .1 0 .1.1.1-.1 0-.3.2-.4.1-.2-.2.1-.2.3-.2zm-.6 1.5c.1.2.5.2.4.6-.1.1-.3.3-.2.5-.2.1-.3-.2-.4-.2-.2-.5 0-.6.2-.9zm-.1 2.4c0 .1 0 .1-.1.1s-.2.1-.3-.1c0-.1.3 0 .4 0zm-.4 4.5h-.2c0-.1.1-.2.2-.2v.2zm-.1-1.9c-.2-.1-.1-.4-.1-.6.2-.2.3.2.4.2-.1.2-.2.3-.3.4zm1.2-1.6l-.3.3.3.2c-.2.1-.3.6-.7.3.1-.2.4-.2.3-.6-.3-.2-.5-.5-.9-.4-.1-.1-.1-.3 0-.4.2.5 1.1-.5 1 .4l.3.2zm.2-1.8c-.1 0-.1 0-.1-.1-.1-.1.1-.3.2-.1 0 .1 0 .2-.1.2zm0-1.1c-.1-.2-.5-.2-.4-.6 0-.1-.1-.3.1-.3.1.2.1.4.3.6.1 0 .1.2 0 .3zm.9.9c-.1 0-.1-.1-.1-.2.2-.1.3 0 .4.1 0 .1-.1.1-.3.1zm.6-3.2c-.1 0-.4-.1-.4.1.2.6-.6.1-.6.6h-.1c0-.2-.1-.3-.2-.3-.3-.7.6-.7.5-1.3.4-.2.6.3.9.6v.3h-.1zm.5-.7c-.1 0-.1 0-.2-.1-.1-.2.1-.5.2-.3 0 .2.1.3 0 .4zm.2-3.4c-.4-.3-.5.7-.7.1-.2-.1-.1-.4-.1-.5.3 0 .6 0 .8.3v.1zm1.7 1.3c-.2.1-.3-.5-.5-.1 0 .2 0 .3.2.4h.1c0 .1 0 .1-.1.2-.1-.2-.5-.2-.4-.6-.1-.3.2-.3.4-.3 0 .1.2.3.3.3v.1zm-.3-.8c-.1-.1-.1-.3 0-.4.1 0 .3 0 .4.1-.1.1-.3.3-.4.3zm.6-12.4c.2-.2.3.1.2.3-.1-.1-.2-.2-.2-.3zm.5 1.3v.3c-.1 0-.1 0-.1.1l-.3-.4c.1-.2.2-.1.4 0zm-.3 1.1c0 .1 0 .1-.1.2-.1 0-.1 0-.1-.1s.2-.3.2-.1zm.4 10.5c-.5-.1-.1-.8-.6-1.1v-.3c0-.2.2-.1.3-.1.1 0 .1.2.2.2s.1-.2.1-.1c.1.1.3.1.1.3-.2 0-.3.3-.2.5.1 0 .1.1.2.1.2-.1.1-.3.1-.4l.3-.3c.1.1.2 0 .1.2.1.6-.4.7-.6 1zm4.2-7c.2.1.2.2.2.4-.2.2-.6.3-.5.7-.2.3-.3-.2-.4-.2.2-.3.7-.5.5-1 .2 0 .2-.4.4-.2.1.2-.3 0-.2.3zm4.1-.7l-.4.3c-.1 0-.1-.1-.1-.2.1 0 .2-.1.3-.1-.1-.2-.4-.3-.2-.6.1.2.6.2.4.6zm3.3-5.5c-.1 0-.2 0-.2-.1-.1-.2.2-.5.2-.1v.2zm.1.5h.2v.2c-.1 0-.3-.1-.2-.2zm0 1.1l.1-.3c.2 0 .2.2.4.3-.2.1-.4.1-.5 0zm.4-2.1c-.2 0-.3-.2-.4-.3.1 0 .2-.4.4-.3v.6zm.1 30.3c.1-.2-.6-.4-.1-.4-.1.3.3.2.2.4h-.1zm6.9 5.4c-.1 0-.1-.1-.1-.2 0 .1.1.1.2.1-.1-.1 0 0-.1.1zm11.6-5.6c-.1 0-.2-.1-.2-.2h.2v.2zm2.8-19s0 .1.1.1c0 .1-.1.1-.2.1l-.1-.2h.2zm-4.5-7.8c0 .2-.1.3-.2.3-.3 0-.2-.3-.4-.4-.1-.6.5-.1.6.1zm-.7 3.3c-.2.1-.2.4-.6.4l-.1-.1c.3-.2.4-.5.7-.3zm-.4-.7c.2-.1.1.1.2.2-.1.1 0 .3-.2.2-.1-.2-.1-.4 0-.4zm-.6-3c.5-.1.2.5.6.6 0 .1 0 .1-.1.2-.2.1-.3-.1-.4-.2.2-.4-.4-.3-.1-.6zm-.2 3s-.1.2-.2.1c0-.1.1-.2.2-.1zm-8.1-3.4c0 .4-.4.5-.6.8l-.1-.6c.4.2.3-.4.7-.2zm-1.2-.5c.1.3.3.3.6.2 0 .1 0 .1-.1.2-.4.1-.4-.4-.8-.3.1-.1.2-.2.3-.1zm-1.3.2c.2-.1.1.3.4.2.1-.3.3-.1.5 0l.1.1c.1-.1.2 0 .2.1-.1.3-.6-.1-.5.3h-.2c0-.1 0-.1-.1-.2-.1 0-.2 0-.3.1 0 .3.4.3.3.6.2 0 .3.6.6.2-.1-.3-.3-.2-.3-.6.2 0 .4.1.5-.1.1.1.2 0 .1.2v.3c-.1 0-.1.1-.2.1 0 .1.1.2.1.2.1 0 .2-.1.3-.1 0 .1 0 .1.1.1-.3.7-.5-.1-.9.1-.2.1.1.4-.2.4 0-.6-.8-.7-.6-1.4l-.2-.1-.2-.3c.1-.2.5.2.5-.2zm1.7 3.8c0 .1-.1.1-.2.1-.1-.4-.6-.3-.7-.7.4-.1.7.3.9.6zm-3.4-4.2c0 .1 0 .1.1.2.1 0 .2-.1.2-.1 0-.1 0-.1-.1-.2h-.1v-.2c.1-.2.2 0 .4.1 0 .2 0 .3.2.4.2 0 0-.3.2-.2 0 .2-.3.3-.2.6-.1 0-.2.1-.2 0-.2 0-.2.3-.4.2-.2-.2.1-.6-.3-.6l-.6-.6c.4-.2.6.3.8.4zm-.4 2.1c.1 0 .1-.1.2-.1 0-.1-.1-.2-.1-.2-.1-.1-.2.2-.3 0l.1-.2c.4.1 1.2-.2 1.1.4.1.1.3.1.2.2-.2.5-.9 0-1 .5-.5 0 0-.3-.2-.6zm.7-1.2h.2c0 .2 0 .4-.2.4-.1 0-.2 0-.2-.1 0-.2.3-.1.2-.3zm-1 1.4v.2c-.1 0-.1 0-.2-.1.1 0 0-.1.2-.1zm0 .6c0 .1 0 .1-.1.1s-.1 0-.2-.1c.1-.1.2-.1.3 0zm-.2 1.7c-.3 0-.4.4-.7.2-.1-.4.5-.4.7-.2zm.1 1.1c-.1-.6-.7 0-.8-.4.3.1.4-.2.6-.2.2.1-.1.4.2.4l.1.1-.1.1zm.7-2c-.3.2-.4-.3-.6-.4 0-.1.1-.1.2-.1 0 .3.3.2.5.3 0 .2-.1.3-.1.2zm.3 24c.1 0 .1.1 0 0 .1.1.1 0 0 0zm.2-23.5c-.2-.1-.1-.2-.1-.4l.1-.1.2.2c.2-.1.3-.3.3-.5-.2-.2-.7.2-.7-.3l.1-.1-.2-.2c-.2 0-.1.2-.2.2s-.1 0-.2-.1c.2-.1.4-.6.7-.3 0 .1.1.1.1.2.5.2.3-.3.6-.4l-.2-.3c.1-.1.2 0 .4-.1.1.1 0 .3.2.2l.1-.1c-.1-.2-.4-.2-.3-.6l.1-.1c.1.2.4.5.3.9-.4-.1-.4.5-.9.3-.2.1-.1.3-.1.5.3 0 .2.4.5.3 0-.3.1-.5.4-.7.2-.1.6-.1.9 0-.2.4-.6.2-.8.6-.5-.3-.3.5-.8.3.1.7-.2.6-.5.6zm1.5.1c0 .1 0 .1-.1.2-.1 0-.1-.1-.1-.2h.2zm15.5 14.9c-.1.4.3.3.3.6-.1 0-.1.2-.2.1s-.2-.1-.2-.3c-.2-.1-.4.1-.6.3.1.8-1 .2-1.2.7-.1-.1-.2-.1-.2-.2-.2-.1-.2.1-.3.2-.4-.1-.5.3-.7.5-.2.1-.1-.3-.4-.2-.1.8-1.2.1-1.3.9-.3-.2-.6.6-.8 0-.6-.2-.8.5-1.1.7h-.1c-.2-.5-.4.2-.7.1-.1.3-.6.1-.9.2-.1.5-.7.1-1.1.3 0 .1.1.4-.1.4l-.3-.3c0 .5-.7 0-.7.5-.2 0-.4 0-.4-.2-.1 0-.1 0-.2.1 0 .2.2.1.3.2.1.3-.3.3-.4.5-.1-.1-.2-.1-.2-.3h-.1c-.1.5-.6.2-.9.3-.3.7-1 .4-1.6.6v.3l-1.2.1c-.1.2.1.2.2.2 0 .1-.1.2-.1.2-.4-.2-.7 0-1 .2-.1-.1-.2-.2-.1-.4.1-.1.2-.1.2-.2l-.2-.3c.1-.1.1-.2.2-.2v-.6c.5-.1 0-.8.5-.9.1-.3-.2-.4-.2-.6.6-.2.5-.8.5-1.4.5-.3.2-1 .2-1.5.1-.1.1-.2.2-.1 0 0-.1-.1 0-.1.5-.1 0-.8.4-.9.2-.3-.2-.9.3-1-.1-.1-.2-.1-.2-.2-.3-.5.4-.5.4-.9h-.1c-.1-.1-.2-.1-.1-.3.5-.2.2-.9.2-1.3-.1-.2-.4-.4-.5-.6.1 0 .1-.1.2-.1.2-.4-.3-1.2.5-1.4.1-.2-.1-.2-.2-.2.1-.2-.2-.6.2-.7 0-.3.3-.5.5-.7 0-.4.4-.6.2-1 .1-.2.3-.2.5-.2.4-.9-.6-1.1-1-1.7-.2-.8.7-.9 1-1.4 0-.2 0-.3.2-.4.1-.2-.1-.2-.2-.3.1-.3-.2-.7.2-.9.1-.2-.1-.2-.2-.3l.2-.3c-.2-.4-.2-.7-.2-1.2.3-.4.6-.7 1.2-.7 0-.1-.1-.4.1-.4.8.3 1.1-.4 1.6-.7.2-.2-.1-.7.2-.8-.2-.6.6-.1.6-.6.3 0 .7-.1.7.3.4-.2.3.3.5.5.6-.4.5.5.9.6-.1.1-.1.2-.2.2v.1h.1c.1.1.2.2.2.4.3.2.4.6.8.6.3.2.2.7.1 1.1l.5.6c-.1.4.2.5.4.8.5-.1.6.4.9.6-.2.4.3.4.2.7 0 .2-.3.2-.4.2-.2.4.2 1.1-.3 1.3l.5.5c0 .3 0 .5.2.7-.5.1 0 .8-.5 1 .1.1.2.1.3.2-.4.4-1.1-.1-1.4.4-.5-.3-.3.5-.8.3-.3.5-1.2 0-1.5.5.2.6-.6.3-.7.7 0 .5-.5.7-.7 1-.1.3.1.3.2.4-.1.5-.8.3-1 .7l.2.3c-.4.1-.2.5-.2.7.5-.1.6.4 1 .7 0 .2 0 .4.2.4.2-.2.4-.2.6-.4.1-.2.5 0 .6-.4.4.1.5-.3.7-.5.3 0 .2.4.6.2.2-.5.7-.2 1.1-.2.2 0 .3-.5.5-.1.1.2.5 0 .6.4.2.1.3-.2.4-.2h2.2l.3-.2c.1.1.2.1.2.2h.2c.3.2.3-.3.6-.2.1.1.1.2.2.2.6.1 1.3-.2 1.7.2.1-.1.1-.2.2-.2.3 0 .7-.1.8.2.3.1.3-.2.5-.2.1.3.5.2.6.4.1.3-.3.5-.4.7-.4-.1-.5.4-.7.4 0-.1-.1-.1-.1-.2h-.1l-1.4 1.4c-.6-.1-.6.6-1.2.8zm2.6-1.9c0 .1 0 .1-.1.2l-.1-.2s.1-.1.2 0zm-1.5 9.6c.2-.2.3.3.5.3-.3.3-.3-.2-.5-.3zm2.9-1.8c-.4.5-1.1 0-1.5.5-.2-.1-.3.1-.5.2-.3-.1-.7.3-.8-.1.3-.4.7-.4 1-.7.4-.2.5.5.7 0 .4.2.4-.4.7-.2.2-.5 1.1-.7 1.3-.2.2.3-.7.5-.9.5zm-8.6 31.3v-.1c.2 0 .4.2.4.4-.2.1-.2-.2-.4-.3zm3.8 16.5v.1c-.1 0-.1-.1-.2-.1h.2zm-.1.5c.2-.1.1.1.2.2-.1.1 0 .2-.2.2-.1-.1-.1-.3 0-.4zm-4.8-4.2l.1-.2.1.1c-.1.1-.2.1-.2.1zm0 1.2V77c.2-.1.1.1.2.2 0 .2-.1.2-.2.2zm.2 7.3s-.1-.1-.1-.2l.1-.1h.2c0 .1-.1.3-.2.3zm.5.2c-.2-.1-.1-.3 0-.5.1.1.3.2.4.3-.2 0-.2.3-.4.2zm-27.5 3.2c.1 0 .1 0 .2.1 0 .1 0 .1-.1.1h-.1v-.2zm-6.4 22.8c0 .1 0 0 0 0-.1 0-.1-.1-.1-.1 0-.1 0-.4.2-.3-.1.2 0 .3-.1.4zm2.2 0c-.1 0-.1 0-.1.1-.2-.1-.1-.3-.1-.4.1 0 .2 0 .2.1v.2zm3.1-26.7c-.1 0-.1-.1-.1-.2h.2c-.1.1-.1.1-.1.2zm.6 1.7c.1 0 .1 0 .1.1v.1c-.1 0-.1 0-.1.1v-.3zm-.3-.3c-.1-.1.1-.3.2-.1 0 .1 0 .1-.1.2 0 0 0-.1-.1-.1zm3.9 11.3c.1-.2-.3-.3-.1-.4l.3.4c-.1.1-.1 0-.2 0zm2.8 3.8l-.1.1c-.1-.2-.1-.5 0-.7.4.1 0 .4.1.6zm.3-4.7c.1 0 .1 0 .2.1v.1h-.2c.1-.1 0-.1 0-.2zm-.3 0c.1 0 .1.3.3.2-.1.1-.1.3-.3.2 0-.1-.3-.3 0-.4zm-.2-.6c0 .1-.1.1-.2.1l-.1-.1c.1-.1.3-.1.3 0zm-1.1.6c.3-.2.6.7.6 0-.2-.1-.3-.2-.4-.4.1-.3.5 0 .6.2v.6c-.2.2-.9-.1-.7.5-.1 0-.1 0-.1.1-.1-.1-.1-.2-.1-.3l.3-.2c0-.2-.4-.4-.2-.5zm-.8.3c.1 0 .1 0 .2.1 0 .1 0 .1-.1.1h-.1v-.2zm.1 2.1s-.1 0-.1-.1l.1-.2.1.1c0 .1 0 .2-.1.2zm.2-.9l-.4.4c-.1-.2-.1-.5 0-.7h1.1c-.1.4-.6.1-.7.3zm.7.3c-.1 0 0 .2-.1.1-.1 0-.4 0-.3-.2.1.1.2 0 .4.1zm0 1.4c-.5.1 0-.6-.5-.6 0-.1 0-.2.1-.2.3-.1.3.3.6.2.5-.2.2-.8.3-1.2 0-.1-.1-.1-.2-.1 0-.3.4-.4.5-.7h.1c.1.3-.8.5-.2.8 0 .3 0 .6.2.7-.2.5-.6.7-.9 1.1zm.7.1l.1-.6c.1 0 .3.2.4.3-.4 0 0 .8-.6.6-.2-.2 0-.2.1-.3zm4.5 19.8c-.1-.1-.2-.2-.3-.2-.2.1.1.4-.2.5-.2-.1-.1-.3-.1-.4.3 0 .2-.4.6-.3l.1.3-.1.1zm.6.3c0-.2.4-.3.4-.1-.1.1-.2 0-.4.1zm0-11.8h.1c0 .1 0 .1-.1.2-.1 0-.1 0-.1-.1l.1-.1zm-.1-.3l-.1-.1c.3-.1.3-.4.6-.6h.1c-.2.3-.5.5-.6.7zm1.9 9.9h-.2c-.1-.1.1-.3.2-.1v.1zm.2-.9c-.1 0-.1 0-.1-.1l.1-.2.1.1c0 .1 0 .1-.1.2zm-.2-2v.4h-.2c.1-.1 0-.4.2-.4zm-.6.3c.2 0 0 .3.2.4l.9.1v.2c-.1 0-.4-.1-.4.1 0 .1 0 .3-.1.4-.5.1-.1-.4-.5-.6-.2-.1-.2-.4-.1-.6zm-.1 4.3c0 .1 0 .1-.1.2l-.1-.2h.2zm-.6-11.6c-.2-.2.3-.3.3-.5.3.3-.2.4-.3.5zm1.1-3.5c.3-.1.4-.5.7-.5.2.4-.4.4-.4.7-.1 0-.3 0-.3-.2zm-.6.6c.1-.3.4-.3.6-.2-.1.3-.5.3-.5.6.1.1.3 0 .2.2h-.2c0-.1-.3-.3-.1-.6zm.8 6c-.2-.1-.3-.2-.4-.4h.2c-.1.3.4.2.2.4zm-.2-3.5c0 .1 0 .2-.1.2s-.1 0-.1-.1c-.1-.1.1-.2.2-.1zm-.1.9c-.2-.3.3-.3.3-.5l.1.1-.4.4zm.2-1.4c0-.2-.4-.2-.6-.3 0-.1.2-.3.4-.1.1.1.1.2.3.3.2-.1.1-.3.1-.5.1 0 .2 0 .2.1.1.3-.3.2-.4.5zm.5 1.9c-.2-.2.2-.3.3-.3 0 .1 0 .1.1.1-.1.3-.3.2-.4.2zm.3-1.4c-.1 0-.1-.1-.1-.2.1 0 .1 0 .2.1 0 0-.1 0-.1.1zm0-.5c-.1 0-.1-.1-.1-.2h.2s0 .1-.1.2zm0-3.4c-.1 0-.1 0-.1-.1l.1-.2.1.1c0 .1 0 .2-.1.2zm-.3-.7c-.1-.1 0-.2-.1-.4.1-.1.3-.1.4 0 0 .1-.2.3-.3.4zm.2-1.7c0-.1-.2 0-.3-.1-.1.1-.2 0-.2-.1.2 0 .5-.1.7.1l-.2.1zm2.1 6.4l-.1.1c-.1 0-.1-.1-.1-.2.1-.1.3 0 .2.1zm.2-8.3c0 .1 0 .1-.1.2-.1 0-.3 0-.4-.1.2-.2.4-.1.5-.1zm-.2-1.2v.2c-.1 0-.1 0-.2-.1 0-.1.1-.1.2-.1zm-.4-.8c.1 0 .1.1.2.1v.4c-.1-.1-.1-.2-.2-.2v-.1-.2zm0 5.7l-.1.1c-.3 0-.2-.3-.4-.4.3-.2.2.3.5.3zm-1-2.9c0-.2.1-.3.1-.5-.1-.2-.4-.2-.2-.4.1.1.2.3.5.2.1 0 .1.1.1.2-.5.1 0 .8-.5.5zm.2 2.9c0 .1 0 .1-.1.1h-.1s0-.1-.1-.1c.1-.1.3-.1.3 0zm.3-2.2c0 .1 0 .1-.1.1s-.1 0-.2-.1c0-.1.2-.1.3 0zm-.2.4c.1 0 .1 0 .2.1 0 .1 0 .1-.1.1h-.1v-.2zm-.3-2.9c.3 0 .5-.7.7-.2-.1.1 0 .2-.1.4.2.2.3.3.3.6-.4.3-.5-.3-.7-.4-.1 0-.3.1-.4-.1-.1-.3.1-.3.2-.3zm-.4 1.5l.1.1c0 .1-.1.1-.2.1l.1-.2zm-.1.5c.1-.1.3.2.4.2-.2.3-.2-.2-.4-.2zm.4.9c.1 0 .1.2.1.4 0 .1-.1.1-.2.1-.1-.2-.1-.4.1-.5zm.1 3.3l-.1.1c-.2-.1-.1-.3.1-.3-.1.1-.1.1 0 .2zm-.1 3.9l-.1-.1c0-.1.2-.1.2 0l-.1.1zm0-.5c-.1 0-.1 0-.2-.1l.1-.1.1.1c.1 0 0 0 0 .1zm.1-2.4c-.1-.1.2-.4.2-.1 0 .1.1.2-.1.3-.1.1-.1-.1-.1-.2zm.9 2.5c.1.2-.1.2-.3.2l-.4-.1c.1-.3.5-.1.7-.1zm-.3-.5c-.2-.2-.5-.4-.6-.7.3-.1.4.1.6.3 0 .1.2.3 0 .4zm.1-3c-.1 0-.2.1-.3.1-.1 0-.1-.1-.1-.2l.3-.3c.1.1 0 .3.1.4zm.1.5c-.1-.1 0-.3.1-.2 0 .1 0 .1.1.1-.1.1-.1.1-.2.1zm.4-.5c-.1 0-.1 0-.2-.1 0-.1 0-.3.1-.4.2.2.1.4.1.5zm.2-2.6c-.1 0-.1 0-.2-.1 0-.1.1-.1.2-.1v.2zm.2 1.4l-.1.1c-.1 0-.1-.1-.1-.2.2-.1.3 0 .2.1zm.2 2.4l-.1-.6h.2c0 .2.1.5-.1.6zm-.1-1c0-.1.2-.1.2 0v.1c-.1-.1-.1-.1-.2-.1zm.9-1v.3h-.2c-.1.1-.1.3-.3.1-.1-.2 0-.5-.3-.5 0-.1 0-.2.1-.2-.1.3.3.2.3.4.1 0 .1.1.2.1v-.1c.2-.3-.4-.2-.1-.5.1.3.2.3.3.4zm0-4s-.1 0-.1.1c-.1 0-.1-.2 0-.2s.1 0 .1.1zm0 2.4l.3-.4c.1.1.3.2.4.4-.2.1-.5.1-.7 0zm.3-1.5v-.2c.1 0 .1 0 .2.1v.1h-.2zm.4.8h-.2v-.2c.1 0 .1 0 .2.1v.1zm-.3-1.4c-.2-.1-.2-.5.1-.4 0 .1.2.2.2.3-.1.1-.2.1-.3.1zm.6 1.1c-.5-.3 0-.5 0-.8h.2c0 .3.2.8-.2.8zm.2-1c-.1 0-.1-.1 0 0 0-.1.1-.1.2-.1 0 0 0 .1.1.1h-.3zm.5.7c0-.1.1-.1 0 0 .1-.1.1 0 0 0 .1 0 0 0 0 0zm.9.3h-.2c.1-.1.1-.3.2-.1.1.1.1.1 0 .1zm12.9 9.2c-.1-.1 0-.3.1-.2 0 .1 0 .1.1.1 0 .1-.1.1-.2.1zm3.6-22.3c.3 0 .3-.4.5-.4-.1-.3.2-.3.3-.5.3.2.4.4.4.7 0 .1.1.2-.1.3h-.1c0-.1-.1-.1-.1-.2-.2 0-.1.3-.4.2 0-.1-.1-.1-.1-.2-.2-.1-.2.1-.2.2v.2h-.2v-.3zm-.7-2.2c.1 0 .1.1.2.1-.2.1 0 .3.1.4h.1v.2h-.4c-.1-.2-.1-.5 0-.7zm-3.4-4.3c0 .1 0 .1-.1.1s-.1 0-.2-.1c0-.1.2-.1.3 0zm-.5-2.2c0 .1 0 .1-.1.1h-.1c0-.1 0-.1-.1-.1.1-.1.2-.1.3 0zm-.8-1.9c0 .1 0 .1-.1.1s-.1 0-.1-.1c0 0 .2-.1.2 0zm-.2 2.6c0 .1 0 .1-.1.2-.1 0-.1 0-.1-.1-.1-.1.1-.2.2-.1zm-.4.5c.2 0 .3.2.4.3l-.1.1c-.1-.1-.2 0-.3-.1v-.3zm-.1.4v.1c.1.1.1.2.2.2v.1c-.2.1-.2-.1-.3-.2 0-.1 0-.2-.1-.2h.2zm.4 3.6c0 .1 0 .1-.1.1-.2-.2-.6.2-.6-.2.3-.4.6-.2.7.1zm-.7-4.1c.1 0 .1.1.1.2l-.1.1c-.1-.1-.1-.2 0-.3zm-.6-3.7v.1c-.1 0-.1 0-.2-.1 0-.1.1-.2.2 0zm0 .5v.1c-.1 0-.1 0-.2.1-.2.3.3.2.2.4-.3.1-.2-.3-.4-.2 0-.2.2-.6.4-.4zm-.7-.7c0 .1-.2 0-.2.1-.1-.3.1-.3.2-.1zm-.2 2.4c-.1-.1-.1-.2-.2-.2-.1-.2.1-.2.2-.3 0-.2-.2-.1-.2-.2s.1-.1.2-.1c0 .2.1.3.3.3-.4.2.1.5-.3.5zm.4-1.9c-.1 0-.1 0-.2-.1 0-.1.1-.1.2-.1v.2zm.2 2.7h-.1c0-.1.1-.2.2-.2-.1.1-.1.2-.1.2zm.4-.5c-.1-.2-.4-.2-.4-.4h.2c0 .1 0 .1.1.2.3.2.2-.4.4-.1 0 .1-.2.1-.3.3zm1.2 12.1h-.1c-.1-.1.1-.2.2-.2 0 .1 0 .1-.1.2zm3.4 5.7c-.1 0-.3.1-.4-.1 0-.2.2-.1.4-.1v.2zm.5.3h-.2v-.2h.2v.2zm0-1.4l-.1-.4h.2c-.1.1 0 .3-.1.4zm.3-4.9c-.3 0 0 .4-.3.5-.2 0-.4 0-.4-.2-.2 0-.4-.1-.6.1.3.8-.7.4-.9.9-.5 0 0-.5-.2-.7l.1-.1c0-.1 0-.3-.1-.4-.2.1-.1.3-.3.2-.1-.1-.1-.2-.2-.2-.3-.1-.3.1-.4.2-.3 0-.5-.1-.7-.3l-.3-.3c0-.1.1-.2.1-.2-.1-.6.6-.3.9-.6l-.7-.6c-.1-.1.1-.6-.3-.4-.8.2-.4-.7-.6-1h-.2c-.1-.2-.1-.5-.1-.8h.3c-.3-.6.5-.1.4-.6.1-.3-.3-.1-.4-.2 0-.5.7-.3.7-.7.1 0 .2.1.2.1 0 .2-.2.2-.3.2l.3.3c.1.3-.4.3-.2.7-.1.1-.1.2-.3.2.1.2.4.5.6.6.2-.2-.1-.3.1-.5.7-.2.3.6.8.7.3 0 .6.1.8-.1l-.2-.3.1-.1c.2 0 .4-.1.6 0 0 0 .1 0 .1.1v.1c.1.2.3.2.3.5-.1.4.4.1.5.2.1.2-.2.2-.2.4l.2.2c-.2.4.3.3.4.5-.1.4.3.5.5.7-.1.4 0 .7-.1.9zm.5-3.8l-.2.2c-.1-.2-.3-.3-.6-.2.1-.2.4-.4.6-.6.4-.2.3.3.6.3 0 .2 0 .3.2.4h.1c0 .2-.2.3-.4.4-.2-.2.2-.5-.3-.5zm.3 7.5c-.1 0-.1-.1-.1-.2.1 0 .2 0 .2-.1 0 .1.1.3-.1.3zm1 1.2l-.4-.4c.2-.3-.4-.4-.2-.7 0-.2 0-.3-.2-.4h-.1c.1-.1 0-.3 0-.4.5.2.4-.5.9-.2 0 .1 0 .1.1.1-.1 0-.1.1-.1.2.3.2.3.8.7.9 0 .1 0 .1.1.2-.1.2-.4.7-.8.7zm6.5-21.7c-.2-.5-.9 0-1.1-.4h-.3c0-.1-.1-.2-.2-.2l-.3.2c0-.5-.8 0-.6-.6-.1-.2-.4-.1-.2-.3.2 0 0 .3.3.2.1-.1.3-.3.5-.2.1.4.5.2.7.2.1.5.6.2.9.2.3.2.5.8 1 .7 0 .2.3.5 0 .7-.3-.2-.3-.7-.7-.5zm.4 14.4c0 .3-.3.3-.4.5h-.2c-.4-.4.4-1.4.6-.5zm-5.3 8.9l-.1.1c-.1-.1-.1-.3 0-.4.1-.1.2.2.1.3zm-.1-9.6s.1-.1 0-.2V87l.1-.2.1.1-.2.4zm.7 2.2c-.1 0-.1 0-.1-.1-.1-.1.1-.3.2-.1 0 .1 0 .2-.1.2zm.9 0c-.2-.1-.3.3-.5.2v-.6c.2-.1.1.3.4.2l.1-.1.2.2c-.1 0-.1.1-.2.1zm-.3-1.1c.1-.1.2-.2.3-.1 0 .1-.1.1-.1.2l-.2-.1zm.6 1.4c-.1-.1-.3-.1-.2-.2 0 0 .1 0 .1-.1.1.1.2.2.3.2 0 .1-.1.1-.2.1zm.3-.1v-.4s0-.1.1-.1l.2.2c-.1.1-.2.3-.3.3zm0-1.8c-.1 0-.2.1-.3.2-.2-.1-.4-.1-.6 0-.4.1-.3-.3-.4-.5l-.3.2c-.2-.2-.1-.5-.3-.7.1 0 .1.1.2.1v.1c.2 0 .5.1.7-.1-.1-.1-.2-.1-.4-.1.2-.2.4-.5.7-.5.1 0 .2.1.2.2-.1.1-.2.1-.2.2l.1.1c.2 0 .3 0 .4.1.1.2-.3.2-.2.4l.1.1c.1 0 .2 0 .2-.1.1.1.3.1.2.2.4 0 .7 0 1 .2 0 .1 0 .3-.1.4-.4-.1-.8-.2-1-.5zm6 6.4c-.1 0-.3 0-.4-.1.1-.2.3-.1.4-.1.1.1.1.2 0 .2zm.2-1l-.1-.2h.2c0 .1 0 .2-.1.2zm.4 1.7h-.2c-.1-.1.1-.3.2-.1v.1zm.6 1.7c-.1 0-.2-.1-.2-.2.1 0 .1 0 .2.1v.1zm0-1h-.2c-.1-.1.1-.3.2-.1v.1zm-.1-.5c-.1-.1-.3-.2-.2-.3.1 0 .3.2.4.3-.1.1-.2.1-.2 0zm0-.6c-.1-.1-.3 0-.2-.2.1 0 .3-.1.4.1 0 0-.1 0-.2.1zm.4 1.6h-.2V96c.1 0 .1 0 .2.1v.1zm-.1-3.1c-.1 0-.3.1-.3-.1 0-.1.1-.1.1-.2.1 0 .2.1.3.1 0 .1-.1.2-.1.2zm-.3-1.7c0 .5-.3.7-.3 1.1-.1.2-.2.1-.4.1-.3.2-.5.6-.7.7 0-.1-.1-.1-.1-.2-.2-.1-.1.2-.3.2l-.7-.7.1-.1c0-.3-.4-.1-.6-.2-.1-.5-1.1.1-.9-.7l-.3.2-.1-.1c.2-.7-.6-.3-.7-.8.2-.4-.3-.2-.4-.4.1-.4-.3-.4-.6-.6v-.3c0-.3.5-.3.3-.7.4-.1-.1-.8.4-.9-.2-.1 0-.2.1-.3.4-.1.2.4.3.4.7.5-.6.8.2 1.2.3-.1.4-.5.6-.6-.1-.1-.1-.3 0-.4 0 0 .1 0 .1.1.1.3.4.1.6-.1 0 .1.1.1.2.1s.1-.1.1-.2c-.1 0-.2-.1-.3-.2l.6-.6c.2 0 .4 0 .5.2.4 0 .7.1 1 .5h.1c-.3 0-.1.4-.2.6.1 0 .2 0 .3.1l.1-.2c.1 0 .1.1.1.2l-.1.1c.3.3-.1 1.2.7 1.3-.1.4.3.5.4.8.3.1.1-.3.4-.2.1.5-.4.4-.5.6zm.6 3.9c-.1 0-.1 0-.1-.1s.1-.2.2-.1c0 .1-.1.1-.1.2zm.2-1.5c-.1 0-.1 0-.1-.1l.1-.2.1.1c0 .1 0 .2-.1.2zm0-1.4h-.1v-.2h.2s0 .1-.1.2zm.3 3.3h-.2v-.2c.1 0 .1 0 .2.1.1 0 0 .1 0 .1zm.2-3.1h-.1v-.2c.1 0 .1 0 .2.1l-.1.1zm0-.7h-.1v-.2c.1 0 .1 0 .2.1 0 0-.1 0-.1.1zm.5 1.2h-.1c0-.1 0-.1-.1-.1 0-.1.2-.1.2 0 .1 0 0 .1 0 .1zm8.8-22.4l.1-.2c.4-.1.4.3.4.6v.3s0 .1-.1.1-.3.1-.3-.1c-.1-.2.1-.3.3-.5-.3-.1-.3-.2-.4-.2zm-5.3 19.7v-.1c.1-.1.2-.1.3-.1-.1.1-.1.2-.3.2zm1.1-6.5c0 .1.1.3-.1.3-.3.1-.4-.2-.6-.3.1-.4.5 0 .7 0zm-1.1.6c.1.2 0 .5.3.6 0 .2-.3.1-.2.4 0 .1.2 0 .2.2-.1.1-.3 0-.4.1-.1-.2 0-.5-.3-.5-.2.1-.3-.2-.5-.3.3-.4.6-.6.9-.5zm-1.2-2.4h.3c-.1.4.7.7.1.9-.3 0-.3-.3-.4-.4v-.5zm-.7 4.4c.2 0 .4-.1.6.1-.4.2-.1.4-.2.7.1.1.1.2.2.1.1 0 0-.2.2-.2.1.1 0 .2.1.3-.2.3-1-.1-.6.4.1.1 0 .5.3.4l.1-.4c.1.3.5.1.7.4.3 0 .2-.3.6-.2.7.1 0 1.2.8 1.1.2.5-.4.2-.4.4-.1.2-.3.1-.4.1-.2-.2.1-.6-.2-.7-.2 0-.3 0-.4.2v.1h-.1c0-.1-.1-.2-.2-.2-.2.1-.4.5-.6.4.1-.2.1-.3-.1-.4h-.1c-.1-.3.5-.2.1-.5-.2 0-.2.2-.3.3-.1-.2-.4-.2-.4-.4.1 0 .2-.1.3-.2-.2-.2-.4-.4-.5-.6.5-.2-.1-1.1.5-1.2zm-6.4-25.3c.3 0 .8-.2.9.1-.1 0-.2.1-.2.2 0 .2.2.1.2.2-.1.3-.6.2-.7.6v.1c-.3.1-.2-.3-.4-.2.3-.3.2-.7.2-1zm-1.2-2.2c0 .1 0 .1-.1.1s-.1 0-.2-.1c0-.1.3-.1.3 0zm.2.5c.1.1.1.2 0 .2-.1.1-.4 0-.5-.1 0-.2.3-.3.5-.1z"/><path d="M61.927 21.4c.1.2.2.3.4.4-.1-.3.2-.8-.2-.7v-.2c-.4-.1-.1.3-.2.5zM58.827 22.5h.2v-.1c-.1-.2-.3 0-.2.1zM59.227 27.5c-.1 0-.2 0-.2-.1v.1c.1.1.2.1.2 0zM117.327 65.4c.4.2.3-.4.7-.2.1-.2.3-.2.3-.4-.1 0-.1-.1-.2-.1-.1-.6-.9-.2-1.3-.3-.1.3-.4.1-.6.2l.2.3c-.5.2-.2.8-.2 1.2.2 0 .1.4.4.3 0-.6.6-.7.7-1zM97.527 54.4c-.2-.1-.6.1-.4.4l.1.1c0-.2.4-.3.3-.5zM93.127 75.3l.1-.3-.3.2.2.1zM108.727 90.3c-.2.2.1.6-.2.7v.2c.1-.1.6-.2.4-.6 0-.1-.1-.3-.2-.3zM106.827 89.3c-.8-.2 0 .8-.6.9.4.4.6-.4.9-.4-.3-.5.5-.4.2-.9-.1 0-.3.3-.5.4zm.1.4c-.1 0-.1 0-.2-.1 0-.1.1-.2.2-.1v.2zM107.427 88.5c-.1-.1-.2-.5-.4-.4v.1c.1.1.1.4.4.3zM103.827 90.3h.1l.1-.1c0-.1-.1-.1-.2-.1v.2zM51.227 15.1c.2 0 .1.3.3.2 0-.3-.4-.4-.5-.7l-.4.2c-.1-.1 0-.3-.2-.2.1.2.4.4.6.7l.2-.2zM51.727 14.6c-.1 0-.2 0-.2.1s.1.1.2.1v-.2zM49.127 14c-.1-.1-.4-.1-.4.1.1.1.2.1.3.1 0-.1.1-.1.1-.2zM49.527 16.5c.1 0 .1-.1.1-.2h-.2c0 .1 0 .2.1.2zM54.127 13.8c.1-.2-.1-.2-.2-.2v.2h.2zM23.227 43.7c.1 0 .1 0 .1-.1s0-.1-.1-.2c0 .1-.2.2 0 .3zM17.827 30.1c0 .1.1.1.2.1l.1-.1c-.1-.1-.3-.1-.3 0zM1.827 61.8c.2-.2-.1-.2-.2-.4-.6 0-.7-.7-1.2-.9-.2.1-.2.3-.2.6.2.3.5.6.8.7 0 .1.1.1.1.2h.2c0-.1.1-.2.2-.2.1.1.2 0 .3 0zM5.427 63.7l.1-.1c-.1-.1-.4-.1-.4.1 0 .1.2 0 .3 0zM6.227 61.8c.1-.1.3 0 .2-.2-.1-.1-.5-.2-.4.1 0 .2.2.1.2.1zM79.027 104.6c.2.1.5.1.7 0l-.3-.3c.1-.1.2-.1.3-.2-.6-.4-.3.4-.7.5zM77.127 109.8c.2 0 .3-.6.7-.4v-.2c-.2 0-.4 0-.5-.2.1 0 .1-.1.1-.2-.2-.2-.3.1-.4.2-.1.3.2.4.2.6-.5 0 0 .6-.4.8-.1-.1-.1-.2-.2-.3-.1 0-.1 0-.2.1l.1.1h.1c0 .5.7 0 .7.5.7 0-.4-.5-.2-1zM76.327 109.9l-.1-.1h-.4v.2c.2-.1.4 0 .5-.1zM76.427 111.5c.1.1.2.5.6.4.2-.4-.5-.2-.6-.6-.1-.3.3-.2.2-.4-.2 0-.3.1-.3.2-.2.1-.5.1-.7-.1-.1-.3.3-.1.3-.3 0-.1-.1-.1-.2-.1 0 .3-.4.3-.2.6h.1c.5 0 .3.5.4.8l.2-.1c.3.1.4.6.7.4 0-.1 0-.2-.1-.3-.5.1-.4-.5-.7-.6 0-.1 0-.1.1-.2 0 .3.1.2.2.3zM77.327 111.4c0 .1.1.1.2.1 0-.1 0-.1.1-.1-.1-.2-.3-.2-.3 0zM77.327 112.9c.1 0 .2.1.2-.1l-.1-.1c0-.1-.1 0-.1.2zM76.527 112.9c-.1.1-.2 0-.1.2.1.1.3.1.4 0 0-.2-.2-.3-.3-.2zM76.927 113.8h.1l.1-.1c0-.1-.1-.1-.2-.1v.2zM76.328 115.8c.1 0 .1-.1.1-.2h-.2c-.1.1 0 .2.1.2zM95.127 87.1c-.1 0-.2 0-.2.1.2.3.1 0 .2-.1zM3.827 44.5c0-.1-.1-.1-.2-.1-.1.1 0 .2.1.2 0 0 .2 0 .1-.1zM43.227 118.7l-.3-.2c-.1.2-.1.5 0 .7.1 0 .2-.1.3-.2.6.2.1-.6.6-.7l-.1-.1c-.1.2-.4.2-.5.5zM44.427 118.4c.1.1.2.1.1.2.1 0 .1 0 .2-.1l-.3-.4c-.6-.1 0 .7-.6.8 0 .1-.1.3.1.4.3 0 0-.4.2-.5l.4.4-.3.3c.1.1.2 0 .3.1.5-.6-.5-.5-.4-1.1.2 0 .2-.1.3-.1zM42.427 119.1c0 .1.1.1.2.1v-.2c-.1-.1-.2 0-.2.1zM40.227 115h.2v-.1c0-.1-.1-.1-.2-.1v.2zM69.627 86.3c.4.1.4.5.8.4.2-.2-.2-.1-.2-.3l.1-.1c.1 0 .3-.1.4.1.2-.1.3-.3.4-.4-.2-.2-.1.2-.3.2-.3-.1-.4-.5-.7-.6.1-.1.1-.2.3-.2 0-.3-.5-.1-.6-.4l-.1.2c.3 0 .3.3.3.5-.3 0 0 .5-.4.6zm.7-.6c-.2.4.3.1.3.4-.2 0-.2-.1-.3-.2-.1-.1-.1-.1-.1-.2h.1z"/><path d="M69.827 86.7c-.1-.1-.3-.4-.5-.4 0-.4.4-.6.3-1.1h-.2c0 .1.1.3-.1.4-.3-.1-.4-.3-.6-.5l-.1.1c.1.1.2.1.3.2 0 .1-.1.2-.1.2-.3.1 0 .5-.2.7-.2.1-.2.1-.2.3-.1.2-.3.1-.4.1v.2c.3-.1.4.2.6.3.2-.2-.1-.4.2-.5.3-.2.3.3.6.2-.1-.2.3-.1.4-.2zm-1-.2c-.1 0-.1 0-.1-.1.2.1.3-.4.4-.3 0 .2-.2.4-.3.4zM67.927 86.2c-.1-.1-.2 0-.3.1 0 .1.1.1.2.1.1-.1.1-.1.1-.2zM70.327 87.3c.3-.1.4.2.6.2.1-.1 0-.2.1-.3-.1-.2-.7-.2-.7.1zM67.827 87.5l.1-.1c-.1-.1-.3-.1-.3.1h.2zM68.927 87.6c-.1-.1-.3-.1-.3.1 0 .1.1.1.2.1.1-.1.1-.1.1-.2zM71.727 87.9c0-.1-.1-.1-.2-.1v.2h.1c.1 0 .2-.1.1-.1zM71.427 89.3l.1-.1V89c.1-.3-.1-.4-.3-.4-.3.1.1.4.2.7zM67.727 88.6c-.1-.1-.3-.1-.2.1 0 .1.1.1.2.1-.1-.1 0-.1 0-.2zM71.127 87.9c-.1 0-.1.1-.2.1h.1c0 .1 0 0 .1-.1zM71.127 87.9h.2c-.2-.2-.2-.1-.2 0zM70.127 90.2h.1c0-.1 0-.1-.1-.2v.2zM66.727 91.4h.2v-.1c-.1-.2-.3-.1-.2.1zM67.427 91.6c0 .1.1.1.2.1l.1-.1c-.1-.2-.3-.2-.3 0z"/><path d="M67.127 90.5c-.2 0-.2.3-.4.4l.1.1c.1 0 .1-.1.2-.2.3 0 .4.2.5.4.3 0 .2-.3.4-.3.1.1.3.1.3.3.3 0 .3-.3.4-.4.3 0 .2-.3.2-.4-.2-.1-.5 0-.5.2-.1.1-.4.1-.4-.1.2-.8 1-.2 1.6-.5.2-.5.5 0 .7-.4 1 0 .3-1 .7-1.4-.6-.2-.7-1.4-1.6-1-.1.5.4.6.6.9.4 0 .4.3.7.4l-.3.2.3.2c0 .1-.1.1-.1.2-.6.1-.3-.5-.4-.7l-.6.5-.4-.5c-.2 0-.3 0-.4.2-.1.1-.3.1-.4 0-.1-.3.2-.2.3-.4-.3 0-.2-.5-.5-.3 0 .2.2.1.2.2.1.3-.3.2-.2.4 0 .1.1.1.2.1.1.5.6 0 .8.3-.1.6-1.2-.1-1 .6-.1.3-.3-.1-.4.1-.6.3.1.5.2.8l-.3.4c-.5 0-.4-.2-.5-.3zm2.2-1c.1 0 .1.1.1.2-.1 0-.1 0-.2-.1l.1-.1zm-.5-.2c0 .1 0 .1.1.1-.1 0 0 .2-.1.2s-.1 0-.2-.1c0 0 .1-.2.2-.2zm-.5 0c0 .1 0 .2-.1.2l-.1-.2h.2zm-.8.6v-.1c.1 0 .1 0 .2.1-.1.1-.2 0-.2 0z"/><path d="M66.027 92.8c.3 0 .4.1.6.3.2-.3-.4-.2-.2-.6-.1-.2.1-.2.3-.2 0 .4.4.1.6.4.1.2.6.1.5.5-.1.1-.1.2-.2.1 0-.3-.5-.1-.3-.4h-.2c-.1.2.2.1.2.3-.1.1-.1.2-.2.2 0 .4.5.1.7.2.4.5-.5.3-.2.9-.2.3-.4-.1-.7-.1v.6h.3c.1.1.2.1.2.2h.2c-.1-.1 0-.3 0-.4.1-.2.3-.1.4-.1.1-.2-.1-.2-.2-.3 0-.1-.1-.3.1-.4.2 0 .1.3.3.2.6-.1.2-.8.6-1.1-.1-.1-.3-.3-.4-.3 0 .1-.1.2-.2.2-.2-.2-.1-.5-.4-.6 0-.3.6-.1.6-.4l.2.2.1-.5c.1 0 .2 0 .3.1-.1.4.2.5.4.7-.1.7-.3-.2-.6 0-.1 0 0 .1-.1.1.2.1-.1.4.2.3.2.2-.1.6.2.7.2-.2 0-.5.2-.7.2 0 .5 0 .5.3.1 0 .1 0 .1-.1-.9-.7.8 0 .5-.9.1-.1.3-.1.2-.3-.2-.1-.1.2-.3.3-.1 0-.1-.1-.2-.1 0-.1-.1-.4.1-.4.5.2.2-.4.4-.5.1.1.3 0 .4-.1l-.1-.1c-.2 0-.5 0-.4.2-.1 0-.3.1-.4-.1 0-.1 0-.2.1-.2.3.2.3-.3.6-.3-.2-.1-.2-.4-.6-.4-.2.2.1.2.1.4l-.1.1c-.2.1-.2-.1-.2-.2-.2 0-.4-.1-.5.1-.1-.1-.2-.1-.1-.2.1 0 .1-.1.2-.1v-.1c-.4-.2-.3.3-.6.4 0 .4.3-.1.4.2-.1.5-.7 0-1 .3 0 .3-.4.2-.3.6-.2.5-.7.2-.9.6-.3-.1 0-.5-.2-.5-.1.1 0 .2-.1.3-.5.7-.1-.5-.5-.2.3.6-.3.5-.4.9zm2 .8c.1 0 .1.1.1.2l-.1.1c-.1-.1-.1-.3 0-.3zm.5-2.2l.6.1c0 .1.1.1.1.2.1 0 .4.1.4-.1l.1-.6h.1c-.1.5.6.6.1.9l-.1.7c-.3-.2.1-1-.6-.7-.2 0-.2-.1-.3-.2 0-.1-.1-.1-.2-.1-.1.1-.1.2-.1.2h-.1c-.2-.1 0-.2 0-.4zM70.327 92.9c0 .2-.3.3-.2.6-.1.1-.2.2-.4.2-.1.2-.6.3-.3.6.3-.1.4-.6.9-.4.1-.2.5-.3.4-.6.2-.4-.2-.4-.4-.4z"/><path d="M66.027 94.6c.2 0 .2-.2.2-.4.2-.1.3-.4.5-.4.1 0 .1.1.1.2.1.1.4.1.4-.1-.6.1-.6-.6-1.1-.8-.2.2.1.4.2.6-.1.1-.2.1-.3.2.1.3-.2.3-.2.6 0 .1.1.1.2.1zM69.927 94.8c0 .2.2.4.3.4.1-.1-.2-.3-.3-.4zM70.127 96.9v-.2h-.2c-.1.2.1.3.2.2zM70.327 94.6c.2.1.2-.1.1-.2l-.1-.1c0 .1-.1.2 0 .3zM69.427 98.9l.1.1c.1 0 .1-.1.1-.2-.1-.2-.3-.1-.2.1zM69.327 99.4c-.1 0-.1 0-.2.1.1.2.2.3.4.3v-.1c-.1 0-.1-.2-.2-.3zM52.027 117.3h-.2c0 .1.1.1.2.1v-.1zM75.927 114.3c-.2.3.3.1.3.4.3-.1.4-.6.9-.5v-.2h-.3c-.3-.1 0-.4-.2-.5-.2 0-.3.4-.4.2-.1-.2-.1-.2-.3-.2-.1.2-.5.2-.4.5.1-.2.1.4.4.3zm0-.4l.1-.1c0 .2.5.3.3.6-.1 0-.1 0-.1.1-.1-.2-.5-.2-.3-.6zM94.127 33.6v-.1c-.1-.1-.3 0-.2.1h.2zM86.227 21v-.1c-.1-.1-.3 0-.2.1h.2zM48.727 5.6c-.1.1-.5-.1-.4.2.2.3.3 0 .4-.2zM47.527 4.7h-.2c0 .1 0 .2.1.2s.1-.1.1-.2zM43.727 4.6c.1.1.2 0 .3.1.2-.1.1-.2.1-.4l-.1-.1c-.2 0-.2.3-.3.4zM45.027 2.9v-.1c-.1 0-.1 0-.2-.1 0 .1-.3 0-.2.2h.4zM92.427 75.3c-.1-.1-.3 0-.2.1l.1.1c.2 0 .1-.1.1-.2zM108.927 91.3c.1.1.2 0 .4.1v-.2c-.1 0-.4-.1-.4.1zM96.127 81.2c0 .1.1.1.2.1v-.1c-.1-.2-.1-.1-.2 0zM95.427 81.5c0 .1.1.1.2.1v-.2c-.1-.1-.2-.1-.2.1zM96.727 81.8c.2 0 .1-.2.1-.3-.2-.4-.3.2-.4.2 0 .1.2 0 .3.1zM95.927 82h.2v-.2c-.1 0-.2.1-.2.2zM97.027 82.1c-.2-.1-.5-.1-.7 0 .2.1.5.1.7 0zM96.127 79.5c-.1 0-.2-.4-.4-.3v.3c.1.2.2.1.4.1v-.1zM93.927 76.8c0-.1-.1-.1-.2-.1v.2h.1c.1 0 .2 0 .1-.1zM91.927 75.1h-.2l.1.2c.2-.1.1-.2.1-.2zM91.327 75.2c.1-.2-.1-.2-.3-.2-.2 0-.2.3-.2.4.3.2.2-.2.5-.2zM40.027 22.4c.1 0 .1.2.2.1.1 0 .1-.1.1-.2-.2-.1-.3 0-.3.1zM30.727 34.8l-.1.2c.4.1 0 .5.4.5.1 0 .1-.1.1-.2-.1-.3 0-.5-.4-.5zM31.727 36.3c.2 0 .1-.2.1-.3-.3.2-.2-.4-.6-.2 0 .1-.2.3-.1.4.1 0 .1-.1.2-.2.3 0 .2.2.4.3zM29.527 30c.1 0 .1-.1.1-.2h-.2c0 .1 0 .2.1.2zM29.828 31.4c.1 0 .1-.1.1-.2h-.2c-.1.1 0 .3.1.2zM28.927 28.8s-.1 0 0 0c-.1-.1-.2-.1-.2-.1v.2h.2v-.1zM22.227 33.3c0 .1.1.1.2.1l.1-.1c-.1-.2-.4-.1-.3 0zM89.527 113.6c-.2.2-.3.4-.6.5-.1 0-.1-.1-.1-.2.1 0 .1-.1.2-.1v-.2c-.4.1-.6-.5-1.1-.3-.4-.5-1.1-.2-1.6-.2-.3-.6-1.1-.1-1.4-.6-.3.2-.4-.3-.6-.2 0 .1-.1.2-.2.2-.3.1-.5-.1-.7-.2l-.1.1c-.2.1-.2-.1-.2-.2-.4.1-.7-.2-.9-.4-.3 0-.4-.2-.6-.3 0 .1-.1.2-.2.2-.3-.5-.9-.1-1.3-.3-.1-.3-.6-.1-.9-.2-.1-.2-.3-.2-.5-.3 0-.3-.3-.2-.6-.2h-.1l-.1.1c0 .2 0 .4-.3.4l.1.1h.1c.1 0 .1.1.1.2-.1.1-.2.1-.2.2v1.9c.1 0 .3.2.2.3-.1.1-.2.1-.2.2 0 .4-.1.9.3 1.1-.3.5.4.6.5 1l.3-.3.1.1c.4.7 1.1.7 1.5 1.3 0 .1-.1.2 0 .2.2.1.2-.1.2-.2.1 0 .2.1.3.1 0 .1-.1.2-.1.2 0 .1.1.1.2.1.2-.4.8 0 .9-.4.4.1.6-.2 1-.2.1-.5.8 0 .9-.5.4.2.6-.3 1-.2.2-.5.8 0 1-.5.4 0 .7-.3 1-.3.1-.4.6 0 .6-.4.4.2.3-.5.7-.2.1-.5.7 0 .9-.4.5-.2.8-.4 1.4-.6-.2-.4-.8.1-.9-.4zm-7.9-1.4c-.1 0-.1 0-.2-.1 0-.1.2-.2.2-.1.1.1 0 .1 0 .2zM101.527 87.8c.1 0 .1-.1.1-.2h-.2c0 .1 0 .2.1.2zM41.427 82.4h.1l.1-.1c0-.1-.1-.1-.2-.1v.2zM24.527 82.7c.1-.2-.1-.2-.2-.2.1.1 0 .3.2.2zM23.827 74.3h.2c0-.1 0-.1-.1-.2-.1 0 0 .1-.1.2zM26.027 103.9c.1 0 .1.1.2.1s.1-.1.1-.2c-.1-.1-.2 0-.3.1zM25.327 104.9h.2v-.1c0-.1-.1-.1-.2-.1v.2zM169.127 26c-20.2 0-31.8 14.3-31.8 37.4 0 23 11.3 34.6 30.3 34.6 8.2 0 19.2-4 19.2-7.2 0-.4-.3-1-.4-1.4l-3.5-9c-.3-.4-.5-.7-1-.7-2.4 0-5.2 4.6-12.1 4.6-10.5 0-14-7-14-21.9 0-15.7 4.1-22.8 13.4-22.8 7.1 0 11.6 5.5 12.9 5.5.4 0 .7-.4 1-.7l5.1-8.9c.1-.4.4-.8.4-1.2-.1-4.2-12.2-8.3-19.5-8.3zM295.227 29.1c0-1.8-4-3.1-7.9-3.1-9.3 0-14.3 7.6-16.9 10.8-.7-4.6-2.8-11.7-4.4-11.7-.6 0-1.2.4-1.8.5l-9.7 4.2c-.7.3-1.2.7-1.2 1.2 0 3.1 2.3 1.8 2.3 21.6v42.3c0 1.5.3 1.9 1.9 1.9h13.5c1.6 0 1.9-.4 1.9-1.9V48.3c1.8-1.9 6.1-6.5 10.4-6.5 3.1 0 5.6 1.5 6.4 1.5.5 0 .9-.8 1.1-1.2l4.2-11.5c.1-.4.2-.9.2-1.5zM321.927 26c-18.3 0-29.9 15-29.9 36.7 0 25.1 12.5 35.3 30.5 35.3 10.8 0 24.4-4.5 24.4-8.1 0-.5-.1-1.1-.4-1.5l-3.4-8.2c-.3-.5-.8-1.1-1.5-1.1-1.9 0-7.5 4.5-17.3 4.5-12.8 0-15-9.4-15-17h36.7c2.6 0 3.1-.8 3.1-3.4 0-16.5-4-37.2-27.2-37.2zm-12.6 28c.4-3.8.9-15.3 11.6-15.3 9.4 0 9.8 9.7 9.8 15.3h-21.4zM220.027 26c-10.5 0-24 3.3-24 6.4 0 .5.1 1.1.4 1.6l2.7 8.3c.1.5.7 1.4 1.3 1.4 1.8 0 9.3-4.1 16.9-4.1 8.6 0 9.7 3.9 9.7 10.1v3.5c-10.8 0-35.6 0-35.6 23 0 12.8 9.1 21.8 21.6 21.8 11.7 0 18.9-2.2 27.4-5.3 0 0 2.9-.6 2.9-3.8 0-5.7.1-40.9.1-40.9.1-14.2-6.4-22-23.4-22zm6.8 57.6c-2.9 1.4-6.1 2.8-10.4 2.8-6 0-9.4-4.9-9.4-10.7 0-7.6 6.6-11.8 19.7-12.5v20.4h.1zM370.227 31.3c0-2.1-1.6-2.3-2.9-2.3h-2.4v7.2h1.3v-2.9h1.5l1.1 2.9h1.5l-1.3-3.1c.4-.3 1.2-.6 1.2-1.8zm-2.4.8h-1.6v-1.9h1.5c.8 0 1.2.3 1.2 1 0 .6-.5.9-1.1.9z"/><path d="M367.527 25.9c-3.7 0-6.8 3.1-6.8 6.8 0 3.8 3.1 6.8 6.8 6.8 3.7 0 6.8-3 6.8-6.8 0-3.7-3.1-6.8-6.8-6.8zm0 12.6c-3.2 0-5.8-2.6-5.8-5.8 0-3.2 2.6-5.8 5.8-5.8 3.2 0 5.8 2.6 5.8 5.8 0 3.2-2.6 5.8-5.8 5.8z"/></g></svg>